<svg width="21" height="21" viewBox="0 0 21 21" fill="none" xmlns="http://www.w3.org/2000/svg">
<path d="M9.75835 0.0150299C7.6193 0.131754 5.57436 0.911812 3.86883 2.2641C3.40109 2.6342 2.63959 3.39433 2.26597 3.86123C0.991093 5.46405 0.241 7.3117 0.0299467 9.36718C-0.00998223 9.77144 -0.00998223 10.8704 0.0299467 11.2746C0.241 13.3329 0.993945 15.1891 2.26882 16.7834C2.64244 17.2503 3.40394 18.0076 3.86883 18.3777C5.46028 19.6417 7.31983 20.3933 9.37332 20.6011C9.77831 20.641 10.8792 20.641 11.2842 20.6011C13.3405 20.3933 15.2086 19.636 16.7887 18.3777C17.265 17.9962 18.0265 17.2389 18.3916 16.7806C19.6693 15.1749 20.4194 13.3244 20.6276 11.2746C20.6675 10.8704 20.6675 9.77144 20.6276 9.36718C20.4194 7.31455 19.6607 5.44981 18.3887 3.85838C18.0151 3.39433 17.2564 2.6342 16.7887 2.2641C14.7922 0.675516 12.2995 -0.121622 9.75835 0.0150299ZM10.6339 3.30323C11.5837 3.42849 12.3708 3.66763 13.2521 4.10037C15.3627 5.13665 16.8885 7.04694 17.4703 9.38142C17.6956 10.2896 17.6842 10.5657 17.4161 10.6796C17.2821 10.7337 17.1766 10.7309 17.0653 10.6625C16.9313 10.58 16.8743 10.4661 16.8343 10.2013C16.6518 8.99423 16.0928 7.71881 15.3227 6.74801C15.0832 6.44339 14.5384 5.89962 14.2218 5.6434C13.1209 4.75801 11.7548 4.2057 10.286 4.05766C10.1177 4.04058 9.94088 4.00642 9.89525 3.98364C9.64712 3.85553 9.63856 3.4655 9.88099 3.31746C9.99507 3.24629 10.1747 3.24344 10.6339 3.30323ZM10.8364 5.27045C12.0771 5.51814 13.2578 6.19286 14.0878 7.13234C14.5812 7.69034 15.0233 8.45901 15.26 9.16505C15.3969 9.5807 15.4881 9.96788 15.491 10.1444C15.491 10.4547 15.2258 10.6284 14.9348 10.5088C14.8151 10.4576 14.7324 10.3323 14.7067 10.1586C14.6753 9.94511 14.5498 9.49245 14.45 9.23907C13.8824 7.76721 12.7359 6.67399 11.2585 6.19571C10.9619 6.09891 10.6026 6.0192 10.1519 5.95087C9.86102 5.90532 9.72412 5.55515 9.90665 5.32455C10.0436 5.14804 10.189 5.1395 10.8364 5.27045ZM5.77686 5.52668C6.07633 5.60355 6.34442 5.7886 6.44995 5.99357C6.47847 6.04767 6.52981 6.17578 6.56118 6.27827C6.6553 6.56011 7.066 8.18001 7.14871 8.59851C7.23712 9.03694 7.2742 9.60348 7.22286 9.76006C7.17437 9.90525 6.96903 10.0761 6.5241 10.338C6.31875 10.4576 6.14478 10.56 6.13907 10.5657C6.102 10.5971 6.74942 11.5792 7.09737 12.0148C7.40539 12.402 8.14122 13.1422 8.50344 13.4297C9.02822 13.8454 9.51592 14.1614 10.1348 14.4888L10.497 14.6795L10.7109 14.2582C10.8307 14.0276 10.9733 13.7771 11.0275 13.703C11.1872 13.4838 11.2443 13.4668 11.7405 13.4696C12.2311 13.4696 12.4022 13.4981 13.6942 13.7828C15.0261 14.076 15.143 14.1215 15.3484 14.4262C15.4853 14.634 15.548 14.8219 15.568 15.1037C15.5794 15.2859 15.5709 15.3486 15.5081 15.5279C15.2457 16.2767 14.5926 16.9429 13.8425 17.2361C12.425 17.7912 10.42 17.2731 8.17545 15.7785C7.22856 15.1493 6.52125 14.5799 5.81964 13.8796C4.96402 13.0283 4.41072 12.291 3.92302 11.36C2.8592 9.32732 2.92765 7.25476 4.09985 6.13307C4.40217 5.84553 4.84138 5.57223 5.10377 5.51244C5.2749 5.47259 5.58577 5.47828 5.77686 5.52668ZM10.5056 7.28893C11.4525 7.48536 12.3109 8.05475 12.8243 8.82626C13.1067 9.25046 13.3805 9.92518 13.3805 10.1985C13.3805 10.5487 12.927 10.7109 12.6931 10.4462C12.6675 10.4148 12.6047 10.2583 12.5534 10.0931C12.2054 8.96007 11.3584 8.22556 10.1776 8.02913C10.112 8.01774 10.0264 7.97503 9.96655 7.9181C9.88099 7.84123 9.86387 7.80137 9.85246 7.68465C9.8382 7.51099 9.90665 7.37149 10.0464 7.29747C10.1633 7.23483 10.2346 7.23483 10.5056 7.28893Z" fill="#62BDFF"/>
</svg>
