<svg width="446" height="29" viewBox="0 0 446 29" fill="none" xmlns="http://www.w3.org/2000/svg">
<path d="M158.565 5.84814L150.746 21.8965H160.106L161.266 19.3378H163.916L165.076 21.8965H175.373V19.9434L176.29 21.8965H181.617L182.534 19.902V21.8965H203.951L206.555 19.4044L208.986 21.8965L219.985 21.9173L212.146 13.9212L219.996 5.84814H209.163L206.628 8.29434L204.267 5.84814H180.97L178.971 9.99425L176.924 5.84814H167.586V7.73462L166.543 5.84814H158.565ZM160.376 8.12702H164.936L170.119 19.0091V8.12702H175.114L179.118 15.9291L182.807 8.12702H187.777V19.6428H184.754L184.733 10.625L180.319 19.6428H177.607L173.181 10.625V19.6428H166.958L165.778 17.0604H159.406L158.23 19.6399H154.895L160.376 8.12702ZM190.544 8.12702H202.842L206.603 11.897L210.486 8.12702H214.252L208.536 13.9153L214.252 19.6354H210.316L206.555 15.8225L202.652 19.6354H190.544V8.12702ZM162.594 10.0757L160.494 14.6749H164.69L162.594 10.0757ZM193.581 10.511V12.6137H200.29V14.9562H193.581V17.2514H201.106L204.603 13.8709L201.252 10.5096H193.581V10.511Z" fill="#0571C1"/>
<path d="M247.45 6.38574H243.388V20.3532H247.429C249.578 20.3532 251.13 19.8542 252.492 18.7407C254.11 17.4223 255.067 15.4348 255.067 13.3791C255.068 9.25754 251.939 6.38574 247.45 6.38574ZM250.684 16.8784C249.814 17.6514 248.685 17.9885 246.896 17.9885H246.154V8.75247H246.896C248.685 8.75247 249.77 9.06725 250.684 9.88196C251.641 10.7208 252.217 12.0211 252.217 13.3588C252.217 14.7 251.641 16.0398 250.684 16.8784Z" fill="#231F20"/>
<path d="M259.11 6.38623H256.342V20.3537H259.11V6.38623Z" fill="#231F20"/>
<path d="M265.876 11.7465C264.215 11.1418 263.728 10.7427 263.728 9.98817C263.728 9.1081 264.597 8.43995 265.789 8.43995C266.619 8.43995 267.3 8.77525 268.021 9.571L269.469 7.70443C268.279 6.67957 266.855 6.15576 265.3 6.15576C262.789 6.15576 260.874 7.87197 260.874 10.1579C260.874 12.0823 261.766 13.0674 264.365 13.9881C265.449 14.3642 266 14.6148 266.279 14.7834C266.832 15.1388 267.109 15.6423 267.109 16.2286C267.109 17.3603 266.195 18.1987 264.96 18.1987C263.64 18.1987 262.576 17.5488 261.939 16.3359L260.151 18.0309C261.427 19.8734 262.958 20.6901 265.064 20.6901C267.94 20.6901 269.958 18.8077 269.958 16.1039C269.957 13.8846 269.025 12.8798 265.876 11.7465Z" fill="#231F20"/>
<path d="M270.831 13.3805C270.831 17.4859 274.106 20.6694 278.321 20.6694C279.512 20.6694 280.533 20.4387 281.791 19.8556V16.6485C280.684 17.7387 279.704 18.1782 278.45 18.1782C275.662 18.1782 273.684 16.1887 273.684 13.3602C273.684 10.6787 275.725 8.56291 278.321 8.56291C279.641 8.56291 280.64 9.0267 281.791 10.1346V6.92879C280.576 6.322 279.578 6.0708 278.386 6.0708C274.192 6.07147 270.831 9.31962 270.831 13.3805Z" fill="#231F20"/>
<path d="M303.735 15.7682L299.951 6.38623H296.928L302.95 20.7122H304.439L310.569 6.38623H307.568L303.735 15.7682Z" fill="#231F20"/>
<path d="M311.82 20.3537H319.67V17.9894H314.586V14.2193H319.482V11.8532H314.586V8.75296H319.67V6.38623H311.82V20.3537Z" fill="#231F20"/>
<path d="M330.627 10.5098C330.627 7.89474 328.798 6.38623 325.606 6.38623H321.502V20.3537H324.266V14.7428H324.627L328.458 20.3539H331.862L327.395 14.4693C329.479 14.0522 330.627 12.6485 330.627 10.5098ZM325.075 12.8167H324.267V8.58632H325.119C326.842 8.58632 327.78 9.29729 327.78 10.6566C327.78 12.0609 326.843 12.8167 325.075 12.8167Z" fill="#231F20"/>
<path d="M290.243 20.8495C294.411 20.8495 297.791 17.5228 297.791 13.4191C297.791 9.31545 294.411 5.98877 290.243 5.98877C286.074 5.98877 282.694 9.31545 282.694 13.4191C282.694 17.5228 286.074 20.8495 290.243 20.8495Z" fill="url(#paint0_linear)"/>
<path opacity="0.65" d="M290.243 20.8495C294.411 20.8495 297.791 17.5228 297.791 13.4191C297.791 9.31545 294.411 5.98877 290.243 5.98877C286.074 5.98877 282.694 9.31545 282.694 13.4191C282.694 17.5228 286.074 20.8495 290.243 20.8495Z" fill="url(#paint1_linear)"/>
<path d="M332.394 6.91152C332.394 6.66657 332.223 6.53271 331.922 6.53271H331.521V7.76036H331.819V7.28407L332.168 7.76036H332.531L332.121 7.25418C332.297 7.20778 332.394 7.08195 332.394 6.91152ZM331.87 7.07928H331.819V6.75825H331.873C332.02 6.75825 332.097 6.81046 332.097 6.9162C332.097 7.0244 332.019 7.07928 331.87 7.07928Z" fill="#231F20"/>
<path d="M331.983 6.07471C331.377 6.07471 330.896 6.55033 330.896 7.14486C330.896 7.73916 331.383 8.21545 331.983 8.21545C332.573 8.21545 333.056 7.73381 333.056 7.14486C333.056 6.55836 332.572 6.07471 331.983 6.07471ZM331.978 8.02404C331.501 8.02404 331.112 7.63364 331.112 7.14642C331.112 6.65763 331.496 6.26745 331.978 6.26745C332.452 6.26745 332.839 6.66656 332.839 7.14642C332.839 7.6294 332.453 8.02404 331.978 8.02404Z" fill="#231F20"/>
<path d="M26.1965 22.4715H21.2993L24.3624 4.42432H29.2593L26.1965 22.4715Z" fill="#00579F"/>
<path d="M43.949 4.86551C42.983 4.50035 41.451 4.09717 39.5566 4.09717C34.7205 4.09717 31.3149 6.55452 31.294 10.0678C31.2539 12.6599 33.7323 14.0996 35.586 14.9639C37.4806 15.8471 38.1247 16.4235 38.1247 17.2107C38.1054 18.4197 36.5937 18.9771 35.1838 18.9771C33.2286 18.9771 32.181 18.6897 30.5889 18.0171L29.9441 17.7287L29.2588 21.7799C30.4074 22.2785 32.5235 22.721 34.7205 22.7404C39.8589 22.7404 43.2042 20.3211 43.2439 16.5771C43.2634 14.5227 41.9547 12.9485 39.1332 11.6621C37.4204 10.8364 36.3714 10.2796 36.3714 9.43471C36.3915 8.66662 37.2586 7.87991 39.1921 7.87991C40.7842 7.84138 41.9539 8.20603 42.84 8.57093L43.283 8.76257L43.949 4.86551Z" fill="#00579F"/>
<path d="M50.4581 16.078C50.8614 15.0412 52.4133 11.0286 52.4133 11.0286C52.3929 11.0671 52.8158 9.97263 53.0576 9.30075L53.3998 10.8558C53.3998 10.8558 54.3272 15.1757 54.5286 16.078C53.7632 16.078 51.4254 16.078 50.4581 16.078ZM56.503 4.42432H52.7151C51.5469 4.42432 50.6595 4.75043 50.1555 5.9217L42.8813 22.4712H48.0198C48.0198 22.4712 48.8658 20.2438 49.0476 19.764C49.6113 19.764 54.61 19.764 55.3352 19.764C55.4758 20.3976 55.9195 22.4712 55.9195 22.4712H60.4538L56.503 4.42432Z" fill="#00579F"/>
<path d="M17.2094 4.42432L12.4134 16.7307L11.8893 14.2349C11.0027 11.3549 8.22187 8.22594 5.11865 6.67013L9.51157 22.4523H14.6902L22.3877 4.42432H17.2094Z" fill="#00579F"/>
<path d="M7.95969 4.42432H0.0806062L0 4.78896C6.14618 6.2866 10.2167 9.89659 11.8891 14.2356L10.1762 5.94134C9.89425 4.78871 9.02766 4.46234 7.95969 4.42432Z" fill="#FAA61A"/>
<path fill-rule="evenodd" clip-rule="evenodd" d="M390.752 21.9221C390.752 24.8819 388.364 27.2819 385.416 27.2819H356.447V6.0959C356.447 3.13535 358.836 0.735382 361.784 0.735382L390.752 0.735352V21.9221H390.752Z" fill="white"/>
<path fill-rule="evenodd" clip-rule="evenodd" d="M381.308 14.4744H381.327H381.364H381.401H381.437H381.474H381.511H381.548H381.585H381.621H381.658H381.695H381.732H381.769H381.805H381.842H381.879H381.916H381.952H381.989H382.026H382.063H382.1H382.136H382.173H382.21H382.247H382.284H382.32H382.357H382.394H382.431H382.467H382.504H382.541H382.578H382.615H382.651H382.688H382.725H382.762H382.799H382.835H382.872H382.909H382.946H382.982H383.019H383.056H383.093H383.13H383.166H383.203H383.24H383.277H383.314H383.35H383.387H383.424H383.461H383.497H383.528L383.534 14.4745C383.546 14.4748 383.558 14.4753 383.571 14.476C383.583 14.4767 383.595 14.4775 383.608 14.4785C383.62 14.4794 383.632 14.4804 383.645 14.4815C383.657 14.4827 383.669 14.4839 383.681 14.4853C383.694 14.4867 383.706 14.4882 383.718 14.4898C383.731 14.4915 383.744 14.4934 383.755 14.4953C383.763 14.4967 383.771 14.4981 383.777 14.4995L383.792 14.5029C383.804 14.5057 383.816 14.5089 383.829 14.5123C383.841 14.5157 383.853 14.5193 383.865 14.5232C383.878 14.5272 383.89 14.5314 383.902 14.5358C383.914 14.5403 383.927 14.5451 383.939 14.5501C383.951 14.5551 383.964 14.5605 383.976 14.5661C383.988 14.5718 384 14.5777 384.012 14.5839C384.025 14.5902 384.037 14.5968 384.049 14.6037C384.062 14.6107 384.074 14.618 384.086 14.6256C384.098 14.6334 384.111 14.6414 384.123 14.6497C384.135 14.6583 384.148 14.6671 384.16 14.6762C384.172 14.6857 384.184 14.6955 384.196 14.7056C384.209 14.716 384.221 14.7268 384.233 14.7379C384.246 14.7495 384.258 14.7614 384.27 14.7736C384.283 14.7865 384.295 14.7999 384.307 14.8135C384.319 14.828 384.332 14.8429 384.344 14.8582C384.356 14.8746 384.369 14.8915 384.38 14.9088C384.393 14.9278 384.406 14.9473 384.417 14.9673C384.43 14.9898 384.442 15.0131 384.454 15.0369C384.467 15.0651 384.48 15.0942 384.491 15.1241C384.505 15.1644 384.518 15.206 384.527 15.2491C384.544 15.3237 384.553 15.4022 384.553 15.4843C384.553 15.5667 384.544 15.6456 384.527 15.7204C384.518 15.7636 384.505 15.8054 384.491 15.8457C384.48 15.8757 384.467 15.9048 384.454 15.9331C384.442 15.957 384.43 15.9802 384.417 16.0028C384.406 16.0228 384.393 16.0423 384.38 16.0613C384.369 16.0786 384.356 16.0955 384.344 16.112C384.332 16.1273 384.319 16.1421 384.307 16.1566C384.295 16.1702 384.283 16.1835 384.27 16.1964C384.258 16.2087 384.246 16.2205 384.233 16.2321C384.221 16.2432 384.209 16.2539 384.196 16.2643C384.184 16.2744 384.172 16.2842 384.16 16.2936C384.148 16.3027 384.135 16.3115 384.123 16.32C384.111 16.3283 384.098 16.3363 384.086 16.344C384.074 16.3516 384.062 16.3589 384.049 16.3658C384.037 16.3727 384.025 16.3792 384.012 16.3855C384 16.3917 383.988 16.3976 383.976 16.4032C383.964 16.4088 383.951 16.4141 383.939 16.4191C383.927 16.424 383.914 16.4288 383.902 16.4332C383.89 16.4376 383.878 16.4417 383.865 16.4456C383.853 16.4495 383.841 16.4531 383.829 16.4564C383.816 16.4598 383.804 16.4629 383.792 16.4657L383.777 16.469C383.771 16.4705 383.763 16.472 383.755 16.4734C383.744 16.4754 383.731 16.4773 383.718 16.4791C383.706 16.4807 383.694 16.4823 383.681 16.4837C383.669 16.485 383.657 16.4863 383.645 16.4874C383.632 16.4885 383.62 16.4895 383.608 16.4904C383.595 16.4913 383.583 16.4921 383.571 16.4927C383.558 16.4934 383.546 16.4938 383.534 16.4941L383.515 16.4944H383.497H383.461H383.424H383.387H383.35H383.314H383.277H383.24H383.203H383.166H383.13H383.093H383.056H383.019H382.982H382.946H382.909H382.872H382.835H382.799H382.762H382.725H382.688H382.651H382.615H382.578H382.541H382.504H382.467H382.431H382.394H382.357H382.32H382.284H382.247H382.21H382.173H382.136H382.1H382.063H382.026H381.989H381.952H381.916H381.879H381.842H381.805H381.769H381.732H381.695H381.658H381.621H381.585H381.548H381.511H381.474H381.437H381.401H381.364H381.327H381.308V14.4744ZM384.27 12.1882C384.285 12.256 384.293 12.3278 384.293 12.4035C384.293 12.479 384.285 12.5507 384.27 12.6185C384.261 12.662 384.248 12.7038 384.233 12.744C384.222 12.7732 384.21 12.8016 384.197 12.8289C384.185 12.8519 384.173 12.8741 384.16 12.8957C384.148 12.9147 384.136 12.9332 384.123 12.9512C384.111 12.9675 384.099 12.9834 384.086 12.9988C384.074 13.0131 384.062 13.027 384.049 13.0406C384.037 13.0532 384.025 13.0655 384.013 13.0774C384.001 13.0888 383.988 13.0998 383.976 13.1104C383.964 13.1206 383.952 13.1304 383.939 13.1399C383.927 13.1491 383.915 13.158 383.902 13.1665C383.89 13.1748 383.878 13.1828 383.865 13.1905C383.853 13.1979 383.841 13.2051 383.829 13.212C383.817 13.2188 383.804 13.2253 383.792 13.2314C383.78 13.2375 383.767 13.2433 383.755 13.2488C383.743 13.2543 383.731 13.2594 383.718 13.2643C383.706 13.2691 383.694 13.2737 383.682 13.278C383.669 13.2823 383.657 13.2863 383.645 13.29C383.633 13.2937 383.62 13.2972 383.608 13.3004C383.596 13.3036 383.584 13.3065 383.571 13.3092C383.559 13.3119 383.547 13.3143 383.534 13.3165L383.525 13.3182C383.518 13.3194 383.509 13.3208 383.498 13.3222C383.487 13.3236 383.474 13.325 383.461 13.3264C383.449 13.3276 383.437 13.3287 383.424 13.3298C383.412 13.3308 383.4 13.3317 383.387 13.3325C383.375 13.3333 383.363 13.334 383.35 13.3345C383.338 13.335 383.325 13.3353 383.314 13.3354L383.308 13.3354H383.277H383.24H383.203H383.167H383.13H383.093H383.056H383.019H382.983H382.946H382.909H382.872H382.836H382.799H382.762H382.725H382.688H382.652H382.615H382.578H382.541H382.504H382.468H382.431H382.394H382.357H382.321H382.284H382.247H382.21H382.173H382.137H382.1H382.063H382.026H381.989H381.953H381.916H381.879H381.842H381.806H381.769H381.732H381.695H381.658H381.622H381.585H381.548H381.511H381.474H381.438H381.401H381.364H381.327H381.308V11.4714H381.327H381.364H381.401H381.438H381.474H381.511H381.548H381.585H381.622H381.658H381.695H381.732H381.769H381.806H381.842H381.879H381.916H381.953H381.989H382.026H382.063H382.1H382.137H382.173H382.21H382.247H382.284H382.321H382.357H382.394H382.431H382.468H382.504H382.541H382.578H382.615H382.652H382.688H382.725H382.762H382.799H382.836H382.872H382.909H382.946H382.983H383.019H383.056H383.093H383.13H383.167H383.203H383.24H383.277H383.314H383.329L383.35 11.4721C383.363 11.4726 383.375 11.4733 383.387 11.4741C383.4 11.4749 383.412 11.4758 383.424 11.4768C383.437 11.4778 383.449 11.479 383.461 11.4801C383.474 11.4815 383.487 11.4828 383.498 11.484C383.509 11.4853 383.518 11.4865 383.525 11.4876L383.534 11.4892C383.547 11.4914 383.559 11.4939 383.571 11.4966C383.584 11.4994 383.596 11.5023 383.608 11.5055C383.62 11.5088 383.633 11.5123 383.645 11.516C383.657 11.5198 383.669 11.5239 383.682 11.5281C383.694 11.5325 383.706 11.5371 383.718 11.5419C383.731 11.5468 383.743 11.552 383.755 11.5575C383.767 11.563 383.78 11.5688 383.792 11.5749C383.804 11.5811 383.817 11.5876 383.829 11.5943C383.841 11.6012 383.853 11.6085 383.865 11.6159C383.878 11.6236 383.89 11.6316 383.902 11.6399C383.915 11.6484 383.927 11.6574 383.939 11.6666C383.952 11.6761 383.964 11.6859 383.976 11.6961C383.988 11.7067 384.001 11.7177 384.013 11.7291C384.025 11.741 384.037 11.7533 384.049 11.766C384.062 11.7794 384.074 11.7934 384.086 11.8077C384.099 11.8231 384.111 11.839 384.123 11.8554C384.136 11.8733 384.148 11.8918 384.16 11.9109C384.173 11.9324 384.185 11.9547 384.197 11.9776C384.21 12.005 384.222 12.0334 384.233 12.0626C384.248 12.1028 384.261 12.1446 384.27 12.1882ZM388.832 2.52246H388.847L388.847 21.6667C388.847 21.781 388.842 21.8942 388.832 22.006C388.823 22.1044 388.811 22.2018 388.795 22.2979C388.785 22.3625 388.772 22.4265 388.758 22.49C388.747 22.5416 388.735 22.5929 388.722 22.6437C388.71 22.6876 388.698 22.7311 388.685 22.7743C388.673 22.8134 388.661 22.8523 388.648 22.8909C388.636 22.9258 388.624 22.9605 388.611 22.995C388.599 23.0271 388.587 23.059 388.575 23.0908C388.563 23.1206 388.55 23.1502 388.538 23.1796C388.526 23.2075 388.513 23.2352 388.501 23.2627C388.489 23.2889 388.477 23.315 388.464 23.3409C388.452 23.3657 388.44 23.3905 388.427 23.415C388.415 23.4384 388.403 23.4619 388.391 23.485C388.379 23.5074 388.366 23.5295 388.354 23.5515C388.342 23.5729 388.329 23.5941 388.317 23.6151C388.305 23.6356 388.293 23.656 388.28 23.6763C388.268 23.696 388.256 23.7157 388.243 23.7353C388.231 23.7541 388.219 23.7728 388.207 23.7915C388.194 23.8096 388.182 23.8276 388.17 23.8455C388.158 23.8631 388.145 23.8807 388.133 23.8981C388.121 23.9151 388.109 23.932 388.096 23.9487C388.084 23.9651 388.072 23.9812 388.059 23.9974C388.047 24.0133 388.035 24.0291 388.023 24.0448C388.01 24.0602 387.998 24.0755 387.986 24.0907C387.974 24.1056 387.961 24.1203 387.949 24.135C387.937 24.1495 387.925 24.1641 387.912 24.1784C387.9 24.1924 387.888 24.2062 387.875 24.22C387.863 24.2337 387.851 24.2473 387.839 24.2607C387.826 24.274 387.814 24.2873 387.802 24.3004C387.79 24.3133 387.777 24.3259 387.765 24.3386C387.753 24.3512 387.741 24.3639 387.728 24.3764C387.716 24.3885 387.704 24.4004 387.692 24.4124C387.679 24.4244 387.667 24.4363 387.655 24.4481C387.643 24.4596 387.63 24.471 387.618 24.4824C387.606 24.4937 387.593 24.505 387.581 24.5161C387.569 24.5271 387.557 24.538 387.544 24.5489C387.532 24.5596 387.52 24.5702 387.508 24.5808C387.495 24.5912 387.483 24.6017 387.471 24.612C387.459 24.6222 387.446 24.6322 387.434 24.6422C387.422 24.6522 387.41 24.6621 387.397 24.6719C387.385 24.6816 387.373 24.6911 387.36 24.7006C387.348 24.7101 387.336 24.7196 387.324 24.7289C387.311 24.7381 387.299 24.7471 387.287 24.7562C387.275 24.7652 387.262 24.7743 387.25 24.7832C387.238 24.7919 387.225 24.8004 387.213 24.809C387.201 24.8176 387.189 24.8263 387.176 24.8347C387.164 24.843 387.152 24.8511 387.14 24.8593C387.127 24.8675 387.115 24.8757 387.103 24.8837C387.091 24.8916 387.078 24.8994 387.066 24.9072C387.054 24.9149 387.042 24.9227 387.029 24.9303C387.017 24.9378 387.005 24.9453 386.992 24.9527L386.956 24.9745C386.943 24.9817 386.931 24.9889 386.919 24.9959C386.907 25.0029 386.894 25.0097 386.882 25.0166C386.87 25.0234 386.858 25.0303 386.845 25.037C386.833 25.0436 386.821 25.05 386.808 25.0565C386.796 25.063 386.784 25.0696 386.772 25.076C386.76 25.0823 386.747 25.0883 386.735 25.0944C386.723 25.1006 386.71 25.1068 386.698 25.1128C386.686 25.1187 386.674 25.1245 386.661 25.1304L386.625 25.1476L386.588 25.1644C386.576 25.1699 386.563 25.1752 386.551 25.1806C386.539 25.1859 386.526 25.1914 386.514 25.1966C386.502 25.2017 386.49 25.2066 386.477 25.2117C386.465 25.2167 386.453 25.2219 386.441 25.2268C386.428 25.2316 386.416 25.2363 386.404 25.241C386.392 25.2457 386.379 25.2504 386.367 25.255L386.33 25.2687C386.318 25.2731 386.306 25.2774 386.293 25.2817C386.281 25.286 386.269 25.2905 386.257 25.2947C386.244 25.2988 386.232 25.3027 386.22 25.3067L386.183 25.3187C386.171 25.3226 386.159 25.3263 386.146 25.3301L386.109 25.3411C386.097 25.3447 386.085 25.3484 386.073 25.3519C386.06 25.3553 386.048 25.3585 386.036 25.3619C386.024 25.3652 386.011 25.3686 385.999 25.3719L385.962 25.3812L385.925 25.3902L385.889 25.399C385.876 25.4018 385.864 25.4044 385.852 25.4071C385.84 25.4098 385.827 25.4125 385.815 25.4151L385.778 25.4225L385.742 25.4296C385.729 25.4319 385.717 25.4344 385.705 25.4365C385.693 25.4387 385.68 25.4406 385.668 25.4427L385.631 25.4488L385.594 25.4543L385.558 25.4595C385.545 25.4612 385.533 25.4631 385.521 25.4647C385.509 25.4662 385.496 25.4675 385.484 25.4689C385.472 25.4703 385.459 25.4718 385.447 25.4731C385.435 25.4744 385.423 25.4758 385.41 25.477C385.398 25.4782 385.386 25.4792 385.374 25.4803C385.361 25.4813 385.349 25.4826 385.337 25.4835C385.325 25.4845 385.312 25.4853 385.3 25.4861L385.263 25.4884C385.251 25.4892 385.239 25.4901 385.226 25.4907C385.214 25.4913 385.202 25.4916 385.19 25.4921L385.153 25.4935L385.116 25.4944C385.104 25.4947 385.092 25.4948 385.079 25.4949L385.042 25.4954L385.035 25.4955H385.006H384.969H384.932H384.895H384.859H384.822H384.785H384.748H384.711H384.675H384.638H384.601H384.564H384.527H384.491H384.454H384.417H384.38H384.343H384.307H384.27H384.233H384.196H384.159H384.123H384.086H384.049H384.012H383.976H383.939H383.902H383.865H383.828H383.792H383.755H383.718H383.681H383.644H383.608H383.571H383.534H383.497H383.46H383.424H383.387H383.35H383.313H383.276H383.24H383.203H383.166H383.129H383.093H383.056H383.019H382.982H382.945H382.909H382.872H382.835H382.798H382.761H382.725H382.688H382.651H382.614H382.577H382.541H382.504H382.467H382.43H382.393H382.357H382.32H382.283H382.246H382.21H382.173H382.136H382.099H382.062H382.026H381.989H381.952H381.915H381.878H381.842H381.805H381.768H381.731H381.694H381.658H381.621H381.584H381.547H381.51H381.474H381.437H381.4H381.363H381.327H381.29H381.253H381.216H381.179H381.143H381.106H381.069H381.032H380.995H380.959H380.922H380.885H380.848H380.811H380.775H380.738H380.701H380.664H380.627H380.591H380.554H380.517H380.48H380.444H380.407H380.37H380.333H380.296H380.26H380.223H380.186H380.149H380.112H380.076H380.039H380.002H379.965H379.928H379.892H379.855H379.818H379.781H379.744H379.708H379.671H379.634H379.597H379.561H379.524H379.444V17.6897H379.524H379.561H379.597H379.634H379.671H379.708H379.744H379.781H379.818H379.855H379.892H379.928H379.965H380.002H380.039H380.076H380.112H380.149H380.186H380.223H380.26H380.296H380.333H380.37H380.407H380.444H380.48H380.517H380.554H380.591H380.627H380.664H380.701H380.738H380.775H380.811H380.848H380.885H380.922H380.959H380.995H381.032H381.069H381.106H381.143H381.179H381.216H381.253H381.29H381.327H381.363H381.4H381.437H381.474H381.51H381.547H381.584H381.621H381.658H381.694H381.731H381.768H381.805H381.842H381.878H381.915H381.952H381.989H382.026H382.062H382.099H382.136H382.173H382.21H382.246H382.283H382.32H382.357H382.393H382.43H382.467H382.504H382.541H382.577H382.614H382.651H382.688H382.725H382.761H382.798H382.835H382.872H382.909H382.945H382.982H383.019H383.056H383.093H383.129H383.166H383.203H383.24H383.276H383.313H383.35H383.387H383.424H383.46H383.497H383.534H383.571H383.608H383.644H383.681H383.718H383.755H383.792H383.828H383.865H383.902H383.939H383.976H384.012H384.049H384.086H384.123H384.159H384.196H384.233H384.27H384.307H384.343H384.38H384.417H384.454H384.491H384.527H384.564H384.601H384.638H384.675H384.711H384.748H384.785H384.822H384.859H384.895H384.932H384.969H385.006H385.042H385.079H385.116H385.153H385.19H385.226H385.263H385.3H385.337H385.356L385.374 17.6896L385.41 17.6893L385.447 17.6885C385.459 17.6882 385.472 17.688 385.484 17.6876C385.496 17.6872 385.509 17.6866 385.521 17.686L385.558 17.6843L385.594 17.6821L385.631 17.6795L385.668 17.6766L385.705 17.6732C385.717 17.6721 385.729 17.671 385.742 17.6697C385.754 17.6684 385.766 17.6669 385.778 17.6655L385.815 17.661C385.827 17.6594 385.84 17.6578 385.852 17.6561C385.864 17.6544 385.876 17.6525 385.889 17.6507C385.901 17.6488 385.913 17.647 385.925 17.645L385.962 17.6388L385.999 17.6321C386.011 17.6298 386.024 17.6276 386.036 17.6252C386.048 17.6227 386.06 17.6201 386.073 17.6175L386.109 17.6095C386.122 17.6068 386.134 17.604 386.146 17.6011C386.159 17.5982 386.171 17.5951 386.183 17.592C386.195 17.589 386.208 17.5859 386.22 17.5826C386.232 17.5794 386.244 17.5761 386.257 17.5727C386.269 17.5693 386.281 17.5658 386.293 17.5622C386.306 17.5586 386.318 17.555 386.33 17.5512L386.367 17.5396C386.379 17.5357 386.392 17.5316 386.404 17.5275C386.416 17.5233 386.428 17.5191 386.441 17.5148C386.453 17.5105 386.465 17.5061 386.477 17.5016C386.49 17.497 386.502 17.4923 386.514 17.4875C386.526 17.4828 386.539 17.4779 386.551 17.473C386.563 17.468 386.576 17.463 386.588 17.4579C386.6 17.4527 386.612 17.4474 386.625 17.442C386.637 17.4365 386.649 17.4309 386.661 17.4253C386.674 17.4196 386.686 17.4139 386.698 17.408C386.71 17.4021 386.723 17.3961 386.735 17.39C386.747 17.3838 386.759 17.3775 386.772 17.3711C386.784 17.3647 386.796 17.358 386.808 17.3513C386.821 17.3446 386.833 17.3377 386.845 17.3308C386.858 17.3237 386.87 17.3166 386.882 17.3093C386.894 17.302 386.907 17.2946 386.919 17.287C386.931 17.2793 386.943 17.2714 386.956 17.2635C386.968 17.2554 386.98 17.2472 386.992 17.2389C387.005 17.2305 387.017 17.2219 387.029 17.2132C387.042 17.2044 387.054 17.1954 387.066 17.1864C387.078 17.1771 387.091 17.1677 387.103 17.1582C387.115 17.1485 387.128 17.1387 387.14 17.1287C387.152 17.1185 387.164 17.1082 387.176 17.0978C387.189 17.0871 387.201 17.0762 387.213 17.0652C387.226 17.0539 387.238 17.0424 387.25 17.0308C387.262 17.0188 387.275 17.0067 387.287 16.9945C387.299 16.9818 387.312 16.969 387.324 16.956C387.336 16.9426 387.348 16.929 387.36 16.9152C387.373 16.9009 387.385 16.8864 387.397 16.8718C387.41 16.8565 387.422 16.841 387.434 16.8254C387.446 16.8089 387.459 16.7924 387.471 16.7756C387.483 16.7578 387.496 16.7396 387.508 16.7213C387.52 16.7019 387.532 16.6822 387.544 16.6623C387.557 16.6409 387.569 16.6192 387.581 16.5972C387.594 16.5732 387.606 16.549 387.618 16.5244C387.631 16.497 387.643 16.469 387.655 16.4407C387.668 16.4083 387.68 16.3754 387.692 16.3419C387.705 16.3006 387.718 16.2585 387.728 16.2156C387.744 16.153 387.756 16.0887 387.765 16.0228C387.776 15.9429 387.781 15.8608 387.781 15.7764C387.781 15.6942 387.776 15.6144 387.765 15.5369C387.756 15.4732 387.744 15.4111 387.728 15.3507C387.718 15.3095 387.705 15.2691 387.692 15.2295C387.68 15.197 387.668 15.1649 387.655 15.1335C387.643 15.1063 387.631 15.0794 387.618 15.053C387.606 15.0293 387.594 15.0058 387.581 14.9827C387.569 14.9615 387.557 14.9405 387.544 14.9198C387.533 14.9006 387.52 14.8816 387.508 14.863C387.496 14.8453 387.483 14.8278 387.471 14.8106C387.459 14.7944 387.447 14.7784 387.434 14.7626C387.422 14.7475 387.41 14.7326 387.397 14.7178C387.385 14.7037 387.373 14.6896 387.36 14.6758C387.348 14.6625 387.336 14.6494 387.324 14.6364C387.312 14.6239 387.299 14.6116 387.287 14.5994C387.275 14.5876 387.262 14.5759 387.25 14.5644C387.238 14.5532 387.226 14.5422 387.213 14.5313C387.201 14.5207 387.189 14.5102 387.176 14.4998C387.164 14.4897 387.152 14.4797 387.14 14.4699C387.127 14.4602 387.115 14.4507 387.103 14.4413C387.091 14.4322 387.078 14.4231 387.066 14.4141C387.054 14.4054 387.042 14.3967 387.029 14.3882C387.017 14.3798 387.005 14.3715 386.992 14.3633C386.98 14.3553 386.968 14.3474 386.956 14.3396C386.943 14.3319 386.931 14.3243 386.919 14.3168C386.907 14.3095 386.894 14.3023 386.882 14.2951C386.87 14.2881 386.858 14.2812 386.845 14.2744C386.833 14.2676 386.821 14.261 386.808 14.2545C386.796 14.248 386.784 14.2417 386.772 14.2354C386.76 14.2292 386.747 14.223 386.735 14.217C386.723 14.211 386.71 14.2051 386.698 14.1993C386.686 14.1936 386.674 14.1881 386.661 14.1826C386.649 14.1771 386.637 14.1718 386.625 14.1665C386.612 14.1612 386.6 14.1561 386.588 14.151C386.576 14.146 386.563 14.141 386.551 14.1361C386.539 14.1313 386.526 14.1265 386.514 14.1219C386.502 14.1173 386.49 14.1128 386.477 14.1084C386.465 14.104 386.453 14.0997 386.441 14.0954C386.428 14.0912 386.416 14.087 386.404 14.0829C386.392 14.0788 386.379 14.0749 386.367 14.071C386.355 14.0671 386.342 14.0634 386.33 14.0597L386.293 14.0488C386.281 14.0453 386.269 14.0418 386.257 14.0384C386.244 14.0351 386.232 14.0319 386.22 14.0287C386.208 14.0255 386.195 14.0224 386.183 14.0194C386.171 14.0163 386.159 14.0133 386.146 14.0104C386.134 14.0076 386.122 14.0048 386.109 14.0021C386.097 13.9993 386.085 13.9967 386.073 13.9942C386.06 13.9916 386.048 13.989 386.036 13.9866L385.999 13.9795L385.962 13.9729C385.95 13.9708 385.938 13.9686 385.925 13.9666L385.889 13.9608C385.876 13.959 385.864 13.9572 385.852 13.9555L385.815 13.9504L385.778 13.9458L385.742 13.9416L385.705 13.9377L385.668 13.9343L385.631 13.9312L385.597 13.9286L385.597 13.8843L385.631 13.879L385.668 13.8729C385.68 13.8708 385.693 13.8687 385.705 13.8664L385.742 13.8593C385.754 13.8569 385.766 13.8543 385.778 13.8517L385.815 13.8437C385.827 13.8409 385.84 13.8381 385.852 13.8351C385.864 13.8321 385.876 13.829 385.889 13.8259C385.901 13.8227 385.913 13.8194 385.925 13.8161C385.938 13.8127 385.95 13.8093 385.962 13.8058C385.975 13.8022 385.987 13.7986 385.999 13.7949C386.011 13.7912 386.024 13.7873 386.036 13.7834C386.048 13.7794 386.06 13.7753 386.073 13.7712C386.085 13.767 386.097 13.7627 386.109 13.7583C386.122 13.7539 386.134 13.7494 386.146 13.7449C386.159 13.7402 386.171 13.7355 386.183 13.7307C386.195 13.7258 386.208 13.7208 386.22 13.7158C386.232 13.7106 386.244 13.7054 386.257 13.7001C386.269 13.6947 386.281 13.6891 386.293 13.6835C386.306 13.6779 386.318 13.672 386.33 13.6662C386.343 13.6602 386.355 13.6541 386.367 13.6479C386.379 13.6417 386.392 13.6353 386.404 13.6288C386.416 13.6222 386.428 13.6155 386.441 13.6088C386.453 13.6018 386.465 13.5948 386.477 13.5877C386.49 13.5805 386.502 13.5731 386.514 13.5656C386.527 13.558 386.539 13.5503 386.551 13.5424C386.563 13.5344 386.576 13.5262 386.588 13.518C386.6 13.5096 386.612 13.501 386.625 13.4924C386.637 13.4835 386.649 13.4745 386.661 13.4654C386.674 13.4561 386.686 13.4466 386.698 13.4371C386.711 13.4272 386.723 13.4173 386.735 13.4072C386.747 13.3967 386.76 13.3862 386.772 13.3755C386.784 13.3645 386.796 13.3533 386.808 13.342C386.821 13.3303 386.833 13.3185 386.845 13.3065C386.858 13.2942 386.87 13.2817 386.882 13.269C386.895 13.2558 386.907 13.2424 386.919 13.2289C386.931 13.2148 386.944 13.2005 386.956 13.1861C386.968 13.171 386.981 13.1557 386.992 13.1402C387.005 13.1239 387.017 13.1073 387.029 13.0906C387.042 13.0729 387.054 13.0549 387.066 13.0368C387.079 13.0174 387.091 12.9979 387.103 12.9781C387.116 12.9566 387.128 12.9349 387.14 12.9129C387.153 12.8888 387.165 12.8643 387.176 12.8396C387.189 12.8118 387.202 12.7836 387.213 12.7551C387.227 12.7219 387.239 12.6882 387.25 12.6541C387.264 12.6113 387.276 12.5677 387.287 12.5236C387.304 12.4521 387.316 12.379 387.324 12.3047C387.33 12.2461 387.333 12.1867 387.333 12.1267C387.333 12.0633 387.33 12.0015 387.324 11.9412C387.316 11.8642 387.304 11.7899 387.287 11.7181C387.276 11.6732 387.264 11.6294 387.25 11.5866C387.239 11.5524 387.227 11.5189 387.213 11.486C387.202 11.4577 387.189 11.4298 387.176 11.4025C387.165 11.3781 387.152 11.3541 387.14 11.3306C387.128 11.309 387.116 11.2877 387.103 11.2668C387.091 11.2473 387.079 11.2281 387.066 11.2093C387.054 11.1916 387.042 11.1742 387.029 11.157C387.017 11.1408 387.005 11.1248 386.992 11.109C386.98 11.0939 386.968 11.079 386.956 11.0643C386.944 11.0504 386.931 11.0367 386.919 11.0232C386.907 11.0101 386.895 10.9972 386.882 10.9845C386.87 10.9723 386.858 10.9602 386.845 10.9483C386.833 10.9367 386.821 10.9253 386.808 10.9141C386.796 10.9032 386.784 10.8925 386.772 10.8819C386.76 10.8716 386.747 10.8614 386.735 10.8514C386.723 10.8417 386.711 10.832 386.698 10.8226C386.686 10.8133 386.674 10.8042 386.661 10.7952C386.649 10.7864 386.637 10.7778 386.625 10.7693C386.612 10.7609 386.6 10.7527 386.588 10.7446C386.576 10.7366 386.563 10.7288 386.551 10.7211C386.539 10.7135 386.527 10.7061 386.514 10.6987C386.502 10.6915 386.49 10.6844 386.477 10.6774C386.465 10.6705 386.453 10.6637 386.441 10.657C386.428 10.6504 386.416 10.644 386.404 10.6376C386.392 10.6313 386.379 10.6251 386.367 10.619C386.355 10.613 386.343 10.607 386.33 10.6013C386.318 10.5955 386.306 10.5899 386.293 10.5843C386.281 10.5789 386.269 10.5736 386.257 10.5683C386.244 10.5631 386.232 10.558 386.22 10.553C386.208 10.548 386.195 10.5431 386.183 10.5383C386.171 10.5335 386.159 10.5288 386.146 10.5242C386.134 10.5197 386.122 10.5152 386.109 10.5109C386.097 10.5065 386.085 10.5024 386.073 10.4982C386.06 10.4941 386.048 10.4901 386.036 10.4861C386.024 10.4822 386.011 10.4783 385.999 10.4746C385.987 10.4708 385.975 10.4671 385.962 10.4635C385.95 10.46 385.938 10.4566 385.925 10.4532C385.913 10.4499 385.901 10.4466 385.889 10.4434L385.852 10.434C385.84 10.431 385.827 10.428 385.815 10.4251C385.803 10.4223 385.791 10.4195 385.778 10.4168L385.742 10.4089C385.729 10.4064 385.717 10.4038 385.705 10.4014C385.693 10.399 385.68 10.3968 385.668 10.3946L385.631 10.3881C385.619 10.386 385.607 10.3839 385.594 10.3819L385.558 10.3763L385.521 10.3711L385.484 10.3662L385.447 10.3618L385.41 10.3578L385.374 10.3541L385.337 10.3509L385.3 10.348L385.263 10.3454L385.226 10.3433L385.212 10.3425L385.19 10.3411L385.153 10.3389L385.116 10.3369L385.079 10.3349L385.042 10.3332L385.006 10.3316L384.969 10.3302L384.932 10.3291L384.895 10.3283L384.859 10.3278L384.838 10.3277H384.822H384.785H384.748H384.711H384.675H384.638H384.601H384.564H384.527H384.491H384.454H384.417H384.38H384.343H384.307H384.27H384.233H384.196H384.159H384.123H384.086H384.049H384.012H383.976H383.939H383.902H383.865H383.828H383.792H383.755H383.718H383.681H383.644H383.608H383.571H383.534H383.497H383.46H383.424H383.387H383.35H383.313H383.276H383.24H383.203H383.166H383.129H383.093H383.056H383.019H382.982H382.945H382.909H382.872H382.835H382.798H382.761H382.725H382.688H382.651H382.614H382.577H382.541H382.504H382.467H382.43H382.393H382.357H382.32H382.283H382.246H382.21H382.173H382.136H382.099H382.062H382.026H381.989H381.952H381.915H381.878H381.842H381.805H381.768H381.731H381.694H381.658H381.621H381.584H381.547H381.51H381.474H381.437H381.4H381.363H381.327H381.29H381.253H381.216H381.179H381.143H381.106H381.069H381.032H380.995H380.959H380.922H380.885H380.848H380.811H380.775H380.738H380.701H380.664H380.627H380.591H380.554H380.517H380.48H380.444H380.407H380.37H380.333H380.296H380.26H380.223H380.186H380.149H380.112H380.076H380.039H380.002H379.965H379.928H379.892H379.855H379.818H379.781H379.744H379.708H379.671H379.634H379.597H379.561H379.524H379.444V6.35161C379.444 6.08413 379.472 5.8231 379.524 5.57108C379.535 5.51711 379.547 5.4636 379.561 5.41051C379.572 5.36509 379.584 5.32 379.597 5.27525C379.609 5.23528 379.621 5.19559 379.634 5.15616C379.646 5.12014 379.658 5.08431 379.671 5.04878C379.683 5.01582 379.695 4.98305 379.708 4.95052C379.72 4.92013 379.732 4.8899 379.744 4.85991C379.756 4.83161 379.769 4.80343 379.781 4.77547C379.793 4.74891 379.806 4.72254 379.818 4.69632C379.83 4.67129 379.842 4.64645 379.855 4.62174C379.867 4.59797 379.879 4.57438 379.892 4.55089C379.904 4.52825 379.916 4.50577 379.928 4.48341C379.94 4.46173 379.953 4.44022 379.965 4.41881C379.977 4.39805 379.99 4.37737 380.002 4.35688C380.014 4.337 380.026 4.31728 380.039 4.29764C380.051 4.27862 380.063 4.25978 380.076 4.24101C380.088 4.22263 380.1 4.20431 380.112 4.18615C380.125 4.16835 380.137 4.15056 380.149 4.13298C380.161 4.11595 380.174 4.09913 380.186 4.08231C380.198 4.06577 380.21 4.04936 380.223 4.03303C380.235 4.01695 380.247 4.00081 380.26 3.98494C380.272 3.9695 380.284 3.95431 380.296 3.93906C380.308 3.92402 380.321 3.9091 380.333 3.89428C380.345 3.87964 380.358 3.865 380.37 3.85054C380.382 3.83645 380.394 3.8226 380.407 3.8087C380.419 3.79491 380.431 3.7811 380.444 3.7675C380.456 3.75418 380.468 3.74098 380.48 3.7278C380.492 3.71482 380.505 3.70192 380.517 3.68909C380.529 3.67644 380.541 3.66379 380.554 3.65129C380.566 3.63901 380.578 3.62691 380.591 3.61481C380.603 3.60277 380.615 3.59061 380.627 3.57876C380.64 3.56715 380.652 3.55582 380.664 3.54436C380.676 3.53297 380.689 3.52154 380.701 3.5103C380.713 3.49925 380.726 3.4884 380.738 3.47753C380.75 3.46672 380.762 3.4559 380.775 3.44525C380.787 3.43474 380.799 3.42439 380.811 3.41403C380.824 3.40377 380.836 3.39354 380.848 3.38343C380.86 3.37342 380.873 3.36352 380.885 3.35369L380.922 3.32462L380.959 3.29632C380.971 3.28704 380.983 3.27782 380.995 3.26869C381.008 3.25966 381.02 3.25065 381.032 3.24174L381.069 3.21549C381.081 3.20688 381.093 3.19834 381.106 3.18988L381.143 3.16486L381.179 3.14051C381.192 3.13251 381.204 3.12455 381.216 3.11671L381.253 3.09361C381.265 3.08599 381.277 3.07836 381.29 3.07089C381.302 3.06348 381.314 3.05628 381.327 3.04902C381.339 3.04176 381.351 3.03444 381.363 3.02733C381.375 3.02032 381.388 3.01355 381.4 3.00666C381.412 2.99977 381.425 2.99275 381.437 2.98601C381.449 2.97937 381.461 2.97293 381.474 2.96641C381.486 2.95989 381.498 2.95333 381.51 2.94693C381.523 2.94059 381.535 2.93443 381.547 2.92824C381.559 2.92209 381.572 2.9159 381.584 2.90987L381.621 2.89201C381.633 2.88616 381.645 2.88046 381.658 2.87473C381.67 2.86904 381.682 2.86325 381.694 2.85767C381.707 2.85216 381.719 2.84689 381.731 2.8415C381.743 2.83611 381.756 2.83063 381.768 2.82536C381.78 2.82015 381.793 2.81519 381.805 2.81011C381.817 2.80505 381.829 2.79994 381.842 2.795L381.878 2.78046L381.915 2.7664C381.927 2.76174 381.94 2.75702 381.952 2.75252C381.964 2.74805 381.976 2.74385 381.989 2.7395C382.001 2.73515 382.013 2.73071 382.026 2.72649C382.038 2.72229 382.05 2.71834 382.062 2.71426L382.099 2.70229C382.111 2.69837 382.124 2.69442 382.136 2.69062C382.148 2.68685 382.16 2.6833 382.173 2.67965C382.185 2.67598 382.197 2.67218 382.21 2.66866C382.222 2.66517 382.234 2.66192 382.246 2.65855C382.259 2.65518 382.271 2.65178 382.283 2.64853L382.32 2.63898C382.332 2.63588 382.344 2.63294 382.357 2.62997C382.369 2.627 382.381 2.62381 382.393 2.62097C382.406 2.61815 382.418 2.61558 382.43 2.61285L382.467 2.60479L382.504 2.59717C382.516 2.59472 382.528 2.59242 382.541 2.59009C382.553 2.58773 382.565 2.58522 382.577 2.58299C382.59 2.58075 382.602 2.57885 382.614 2.57677L382.651 2.57064C382.663 2.56868 382.676 2.56666 382.688 2.56482C382.7 2.56298 382.712 2.56136 382.725 2.55965C382.737 2.55793 382.749 2.55606 382.761 2.55447C382.774 2.55288 382.786 2.55147 382.798 2.55L382.835 2.54577C382.847 2.54442 382.859 2.54292 382.872 2.5417C382.884 2.54047 382.896 2.53952 382.909 2.53842L382.945 2.53514L382.982 2.53235C382.994 2.53147 383.007 2.53076 383.019 2.53C383.031 2.52926 383.043 2.52831 383.056 2.52767C383.068 2.52702 383.08 2.52666 383.093 2.52614L383.129 2.52476C383.142 2.52436 383.154 2.52384 383.166 2.52356C383.178 2.52329 383.191 2.52326 383.203 2.52307C383.215 2.52289 383.227 2.52268 383.24 2.52261L383.249 2.52249H383.276H383.313H383.35H383.387H383.424H383.46H383.497H383.534H383.571H383.608H383.644H383.681H383.718H383.755H383.792H383.828H383.865H383.902H383.939H383.976H384.012H384.049H384.086H384.123H384.159H384.196H384.233H384.27H384.307H384.343H384.38H384.417H384.454H384.491H384.527H384.564H384.601H384.638H384.675H384.711H384.748H384.785H384.822H384.859H384.895H384.932H384.969H385.006H385.042H385.079H385.116H385.153H385.19H385.226H385.263H385.3H385.337H385.374H385.41H385.447H385.484H385.521H385.558H385.594H385.631H385.668H385.705H385.742H385.778H385.815H385.852H385.889H385.925H385.962H385.999H386.036H386.073H386.109H386.146H386.183H386.22H386.257H386.293H386.33H386.367H386.404H386.441H386.477H386.514H386.551H386.588H386.625H386.661H386.698H386.735H386.772H386.808H386.845H386.882H386.919H386.956H386.992H387.029H387.066H387.103H387.14H387.176H387.213H387.25H387.287H387.324H387.36H387.397H387.434H387.471H387.508H387.544H387.581H387.618H387.655H387.692H387.728H387.765H387.802H387.839H387.875H387.912H387.949H387.986H388.023H388.059H388.096H388.133H388.17H388.207H388.243H388.28H388.317H388.354H388.391H388.427H388.464H388.501H388.538H388.575H388.611H388.648H388.685H388.722H388.758H388.795H388.832V2.52246Z" fill="url(#paint2_linear)"/>
<path fill-rule="evenodd" clip-rule="evenodd" d="M358.432 15.8456C358.406 15.833 358.38 15.8204 358.354 15.8076V6.35158C358.354 6.08486 358.381 5.82451 358.432 5.57316C358.444 5.51919 358.456 5.46571 358.469 5.4126C358.481 5.36711 358.493 5.32199 358.506 5.27718C358.517 5.23724 358.53 5.19761 358.543 5.15822C358.554 5.12217 358.567 5.08627 358.579 5.05068C358.591 5.01775 358.603 4.98501 358.616 4.95251C358.628 4.92212 358.64 4.89183 358.653 4.86181C358.665 4.83351 358.677 4.80539 358.689 4.77746C358.701 4.7509 358.714 4.72456 358.726 4.69834C358.738 4.67329 358.75 4.64841 358.763 4.62367C358.775 4.5999 358.787 4.57631 358.8 4.55285C358.812 4.53021 358.824 4.50773 358.836 4.48537C358.848 4.46372 358.861 4.44218 358.873 4.4208C358.885 4.40004 358.897 4.37933 358.91 4.35881C358.922 4.33896 358.934 4.31927 358.947 4.29966C358.959 4.28067 358.971 4.26181 358.983 4.24303C358.995 4.22465 359.008 4.20633 359.02 4.18817C359.032 4.17034 359.044 4.15255 359.057 4.13494C359.069 4.11794 359.081 4.10115 359.093 4.08434C359.106 4.0678 359.118 4.05138 359.13 4.03505C359.142 4.019 359.155 4.00283 359.167 3.98696C359.179 3.97156 359.191 3.9564 359.204 3.94117C359.216 3.92613 359.228 3.91115 359.24 3.8963C359.253 3.88169 359.265 3.86711 359.277 3.85268C359.289 3.83856 359.302 3.82469 359.314 3.81075C359.326 3.79694 359.338 3.78315 359.351 3.76955C359.363 3.75623 359.375 3.74309 359.387 3.72995C359.399 3.71693 359.412 3.70404 359.424 3.6912C359.436 3.67855 359.448 3.6659 359.461 3.65341C359.473 3.64112 359.485 3.62902 359.497 3.61693C359.51 3.60489 359.522 3.59276 359.534 3.5809C359.546 3.5693 359.559 3.55796 359.571 3.54651C359.583 3.53508 359.595 3.52363 359.608 3.51239C359.62 3.50136 359.632 3.49055 359.644 3.47967C359.657 3.46886 359.669 3.45802 359.681 3.44736C359.693 3.43685 359.706 3.42653 359.718 3.41618C359.73 3.40592 359.742 3.39566 359.755 3.38555C359.767 3.37556 359.779 3.36567 359.791 3.35581C359.803 3.34604 359.816 3.33636 359.828 3.32674C359.84 3.31721 359.852 3.30781 359.865 3.29844C359.877 3.28916 359.889 3.27991 359.901 3.27078L359.938 3.24388C359.95 3.23503 359.963 3.22624 359.975 3.21754C359.987 3.20894 359.999 3.20042 360.012 3.19197C360.024 3.18354 360.036 3.17518 360.048 3.16691C360.061 3.15873 360.073 3.15068 360.085 3.14262C360.097 3.13463 360.109 3.12657 360.122 3.1187C360.134 3.11092 360.146 3.10332 360.159 3.09567C360.171 3.08804 360.183 3.08032 360.195 3.07285C360.207 3.06547 360.22 3.0583 360.232 3.05104C360.244 3.04378 360.256 3.0364 360.269 3.02926C360.281 3.02225 360.293 3.01554 360.305 3.00865C360.318 3.00176 360.33 2.99477 360.342 2.988C360.354 2.98133 360.367 2.97489 360.379 2.96837C360.391 2.96185 360.403 2.95529 360.416 2.94889C360.428 2.94255 360.44 2.93633 360.452 2.93011L360.489 2.9118C360.501 2.90576 360.514 2.89973 360.526 2.89385C360.538 2.888 360.55 2.88233 360.563 2.8766C360.575 2.87087 360.587 2.86502 360.599 2.85945C360.611 2.85391 360.624 2.8487 360.636 2.84331C360.648 2.83792 360.66 2.83243 360.673 2.82717C360.685 2.82196 360.697 2.81694 360.709 2.81185L360.746 2.79678L360.783 2.78214L360.82 2.76811C360.832 2.76346 360.844 2.75865 360.856 2.75411C360.869 2.74964 360.881 2.74548 360.893 2.74113C360.905 2.73678 360.918 2.73237 360.93 2.72814L360.967 2.7158L361.003 2.70382C361.015 2.6999 361.028 2.69589 361.04 2.69209C361.052 2.68832 361.064 2.68474 361.077 2.68109C361.089 2.67742 361.101 2.67368 361.113 2.67013C361.126 2.6666 361.138 2.66333 361.15 2.65993L361.187 2.64991C361.199 2.64666 361.211 2.64336 361.224 2.64023C361.236 2.63711 361.248 2.63426 361.26 2.63126C361.273 2.62826 361.285 2.62513 361.297 2.62225C361.309 2.6194 361.322 2.61674 361.334 2.61401L361.371 2.60599C361.383 2.60335 361.395 2.60069 361.407 2.59821C361.419 2.59576 361.432 2.59349 361.444 2.59113C361.456 2.58877 361.468 2.58632 361.481 2.58409C361.493 2.58185 361.505 2.57983 361.517 2.57772L361.554 2.57159C361.566 2.56963 361.579 2.56752 361.591 2.56565C361.603 2.56378 361.615 2.56222 361.628 2.56047C361.64 2.55876 361.652 2.55692 361.664 2.5553L361.701 2.55067L361.738 2.54647C361.75 2.5451 361.762 2.5435 361.775 2.54225C361.787 2.54099 361.799 2.54007 361.811 2.53894L361.848 2.53569C361.86 2.53465 361.872 2.53364 361.885 2.53275C361.897 2.53186 361.909 2.53116 361.921 2.53039C361.934 2.52963 361.946 2.52874 361.958 2.52807C361.97 2.52739 361.983 2.52693 361.995 2.52638L362.032 2.52497C362.044 2.52454 362.056 2.5239 362.068 2.52359C362.081 2.52329 362.093 2.52332 362.105 2.52313C362.117 2.52295 362.13 2.52274 362.142 2.52268L362.158 2.52246H362.178H362.215H362.252H362.289H362.325H362.362H362.399H362.436H362.472H362.509H362.546H362.582H362.619H362.656H362.693H362.729H362.766H362.803H362.84H362.876H362.913H362.95H362.986H363.023H363.06H363.097H363.133H363.17H363.207H363.244H363.28H363.317H363.354H363.39H363.427H363.464H363.501H363.537H363.574H363.611H363.648H363.684H363.721H363.758H363.794H363.831H363.868H363.905H363.941H363.978H364.015H364.052H364.088H364.125H364.162H364.198H364.235H364.272H364.309H364.345H364.382H364.419H364.456H364.492H364.529H364.566H364.602H364.639H364.676H364.713H364.749H364.786H364.823H364.86H364.896H364.933H364.97H365.006H365.043H365.08H365.117H365.153H365.19H365.227H365.264H365.3H365.337H365.374H365.41H365.447H365.484H365.521H365.557H365.594H365.631H365.668H365.704H365.741H365.778H365.814H365.851H365.888H365.925H365.961H365.998H366.035H366.071H366.108H366.145H366.182H366.218H366.255H366.292H366.329H366.365H366.402H366.439H366.475H366.512H366.549H366.586H366.622H366.659H366.696H366.733H366.769H366.806H366.843H366.879H366.916H366.953H366.99H367.026H367.063H367.1H367.137H367.173H367.21H367.247H367.283H367.32H367.357H367.394H367.43H367.467H367.504H367.541H367.577H367.614H367.651H367.687H367.724H367.755V21.6667C367.755 21.8332 367.745 21.9973 367.724 22.1582C367.714 22.2357 367.702 22.3123 367.687 22.3883C367.676 22.4461 367.664 22.5034 367.651 22.5602C367.639 22.6081 367.627 22.6556 367.614 22.7028C367.602 22.7442 367.59 22.7853 367.577 22.826C367.566 22.863 367.553 22.8996 367.541 22.9361C367.529 22.9698 367.517 23.0034 367.504 23.0366C367.492 23.0677 367.48 23.0986 367.467 23.1293C367.455 23.1582 367.443 23.1869 367.43 23.2155C367.418 23.2425 367.406 23.2694 367.394 23.2962C367.382 23.3217 367.369 23.3471 367.357 23.3723C367.345 23.3965 367.333 23.4205 367.32 23.4444C367.308 23.4674 367.296 23.4903 367.283 23.513C367.271 23.535 367.259 23.5569 367.247 23.5786C367.235 23.5996 367.222 23.6204 367.21 23.6411C367.198 23.6611 367.186 23.6809 367.173 23.7007C367.161 23.7201 367.149 23.7393 367.137 23.7583C367.124 23.777 367.112 23.7956 367.1 23.814C367.088 23.8319 367.075 23.8496 367.063 23.8673C367.051 23.8845 367.039 23.9016 367.026 23.9187C367.014 23.9354 367.002 23.9521 366.99 23.9687C366.978 23.9848 366.965 24.0009 366.953 24.0168C366.941 24.0324 366.929 24.0479 366.916 24.0633C366.904 24.0785 366.892 24.0937 366.879 24.1087C366.867 24.1234 366.855 24.1379 366.843 24.1524C366.831 24.1666 366.818 24.1808 366.806 24.1949C366.794 24.2088 366.782 24.2228 366.769 24.2365C366.757 24.2499 366.745 24.2631 366.733 24.2763C366.72 24.2895 366.708 24.3026 366.696 24.3156C366.684 24.3283 366.671 24.3408 366.659 24.3534C366.647 24.3658 366.635 24.3781 366.622 24.3904C366.61 24.4025 366.598 24.4145 366.586 24.4264C366.574 24.4381 366.561 24.4497 366.549 24.4613C366.537 24.4728 366.525 24.4843 366.512 24.4956C366.5 24.5068 366.488 24.5177 366.475 24.5286C366.463 24.5396 366.451 24.5506 366.439 24.5613C366.427 24.5719 366.414 24.5821 366.402 24.5926C366.39 24.6029 366.378 24.6134 366.365 24.6236C366.353 24.6337 366.341 24.6435 366.329 24.6534C366.316 24.6632 366.304 24.6732 366.292 24.6829C366.28 24.6925 366.267 24.7018 366.255 24.7112C366.243 24.7206 366.231 24.73 366.218 24.7392C366.206 24.7483 366.194 24.7572 366.182 24.7661C366.169 24.775 366.157 24.784 366.145 24.7928C366.133 24.8015 366.12 24.8099 366.108 24.8184C366.096 24.8269 366.084 24.8355 366.071 24.8439C366.059 24.8521 366.047 24.8601 366.035 24.8682C366.023 24.8763 366.01 24.8845 365.998 24.8925C365.986 24.9003 365.974 24.9078 365.961 24.9155C365.949 24.9232 365.937 24.931 365.925 24.9385C365.912 24.946 365.9 24.9532 365.888 24.9605C365.876 24.9678 365.863 24.9751 365.851 24.9823C365.839 24.9894 365.827 24.9963 365.814 25.0032C365.802 25.0102 365.79 25.0171 365.778 25.0238C365.765 25.0306 365.753 25.0373 365.741 25.0438L365.704 25.0633C365.692 25.0697 365.68 25.0761 365.668 25.0824C365.655 25.0886 365.643 25.0947 365.631 25.1008C365.619 25.1068 365.606 25.1131 365.594 25.119C365.582 25.1249 365.57 25.1305 365.557 25.1363C365.545 25.142 365.533 25.1479 365.521 25.1535C365.508 25.1591 365.496 25.1644 365.484 25.1699L365.447 25.186L365.41 25.2017C365.398 25.2068 365.386 25.2117 365.374 25.2167C365.361 25.2217 365.349 25.2268 365.337 25.2317C365.325 25.2365 365.313 25.241 365.3 25.2457C365.288 25.2504 365.276 25.2551 365.264 25.2597C365.251 25.2642 365.239 25.2686 365.227 25.273L365.19 25.2859L365.153 25.2986C365.141 25.3027 365.129 25.3066 365.117 25.3106C365.104 25.3146 365.092 25.3187 365.08 25.3226C365.068 25.3264 365.055 25.3299 365.043 25.3336L365.006 25.3446L364.97 25.3551C364.957 25.3585 364.945 25.3618 364.933 25.3651C364.921 25.3684 364.909 25.3719 364.896 25.375C364.884 25.3782 364.872 25.381 364.86 25.384C364.847 25.3871 364.835 25.3901 364.823 25.393L364.786 25.4015L364.749 25.4096C364.737 25.4122 364.725 25.4151 364.713 25.4176C364.7 25.4201 364.688 25.4223 364.676 25.4247C364.664 25.4271 364.651 25.4295 364.639 25.4317L364.602 25.4384C364.59 25.4405 364.578 25.4425 364.566 25.4445C364.553 25.4465 364.541 25.4487 364.529 25.4506C364.517 25.4525 364.505 25.4541 364.492 25.4559L364.456 25.4611C364.443 25.4627 364.431 25.4644 364.419 25.4659C364.407 25.4675 364.394 25.4687 364.382 25.4702C364.37 25.4716 364.358 25.4731 364.345 25.4744C364.333 25.4757 364.321 25.4768 364.309 25.4779L364.272 25.4812C364.26 25.4823 364.247 25.4835 364.235 25.4845C364.223 25.4854 364.211 25.486 364.198 25.4868L364.162 25.4891L364.125 25.4911C364.113 25.4917 364.101 25.492 364.088 25.4925C364.076 25.4929 364.064 25.4935 364.052 25.4939C364.039 25.4942 364.027 25.4944 364.015 25.4946L363.978 25.4951C363.967 25.4951 363.955 25.4955 363.944 25.4955H363.941H363.905H363.868H363.831H363.794H363.758H363.721H363.684H363.648H363.611H363.574H363.537H363.501H363.464H363.427H363.39H363.354H363.317H363.28H363.244H363.207H363.17H363.133H363.097H363.06H363.023H362.986H362.95H362.913H362.876H362.84H362.803H362.766H362.729H362.693H362.656H362.619H362.582H362.546H362.509H362.472H362.436H362.399H362.362H362.325H362.289H362.252H362.215H362.178H362.142H362.105H362.068H362.032H361.995H361.958H361.921H361.885H361.848H361.811H361.775H361.738H361.701H361.664H361.628H361.591H361.554H361.517H361.481H361.444H361.407H361.371H361.334H361.297H361.26H361.224H361.187H361.15H361.113H361.077H361.04H361.003H360.967H360.93H360.893H360.856H360.82H360.783H360.746H360.709H360.673H360.636H360.599H360.563H360.526H360.489H360.452H360.416H360.379H360.342H360.305H360.269H360.232H360.195H360.159H360.122H360.085H360.048H360.012H359.975H359.938H359.901H359.865H359.828H359.791H359.755H359.718H359.681H359.644H359.608H359.571H359.534H359.497H359.461H359.424H359.387H359.351H359.314H359.277H359.24H359.204H359.167H359.13H359.093H359.057H359.02H358.983H358.947H358.91H358.873H358.836H358.8H358.763H358.726H358.689H358.653H358.616H358.579H358.543H358.506H358.469H358.432H358.354V17.4264C358.354 17.4264 358.381 17.4339 358.432 17.447L358.469 17.4562L358.506 17.4652L358.543 17.4741L358.579 17.4828L358.616 17.4914L358.653 17.4999L358.689 17.5082L358.726 17.5164L358.763 17.5245L358.8 17.5325L358.836 17.5403L358.873 17.5481L358.91 17.5558L358.947 17.5633L358.983 17.5708L359.02 17.5782L359.057 17.5855L359.093 17.5927L359.13 17.5998L359.167 17.6068L359.204 17.6137L359.24 17.6205L359.277 17.6273L359.314 17.6339L359.351 17.6405L359.387 17.647L359.424 17.6534L359.461 17.6596L359.497 17.6659L359.534 17.672L359.571 17.6781L359.608 17.684L359.644 17.6899L359.681 17.6957L359.718 17.7015L359.755 17.7071L359.791 17.7127L359.828 17.7182L359.865 17.7235L359.901 17.7289L359.938 17.7341L359.975 17.7393L360.012 17.7443L360.048 17.7494L360.085 17.7543L360.122 17.7591L360.159 17.7639L360.195 17.7685L360.232 17.7732L360.269 17.7777L360.305 17.7821L360.342 17.7865L360.379 17.7908L360.416 17.7949L360.452 17.7991L360.489 17.8032L360.526 17.8071L360.563 17.811L360.599 17.8148L360.636 17.8186L360.673 17.8222L360.709 17.8258L360.746 17.8293L360.783 17.8326L360.82 17.836L360.856 17.8392L360.893 17.8424L360.93 17.8455L360.967 17.8485L361.003 17.8515L361.04 17.8543L361.077 17.8571L361.113 17.8598L361.15 17.8624L361.187 17.8649L361.224 17.8673L361.26 17.8697L361.297 17.872L361.334 17.8742L361.371 17.8764L361.407 17.8783L361.444 17.8803L361.481 17.8822L361.517 17.884L361.554 17.8857L361.591 17.8873L361.628 17.8888L361.664 17.8904L361.701 17.8916L361.738 17.893L361.775 17.8942L361.811 17.8953L361.848 17.8964L361.885 17.8973L361.921 17.8981L361.958 17.899L361.995 17.8996L362.032 17.9002L362.068 17.9007L362.105 17.9011L362.142 17.9015L362.178 17.9018L362.215 17.9019L362.252 17.902L362.266 17.9021L362.289 17.9019L362.325 17.9017L362.362 17.9015L362.399 17.9013L362.436 17.901L362.472 17.9004L362.509 17.8997L362.546 17.899L362.582 17.8983L362.619 17.8974L362.656 17.8963L362.693 17.8951L362.729 17.894L362.766 17.8928L362.803 17.8911L362.84 17.8895L362.876 17.8879L362.913 17.8862L362.95 17.8842L362.986 17.8821L363.023 17.8799L363.06 17.8778L363.097 17.8753L363.133 17.8727L363.17 17.87L363.207 17.8674L363.244 17.8644L363.28 17.8613L363.317 17.8581L363.354 17.8549L363.39 17.8514L363.427 17.8476L363.464 17.8439L363.501 17.8401L363.537 17.836L363.574 17.8317L363.611 17.8273L363.648 17.823L363.684 17.8182L363.721 17.8133L363.758 17.8084L363.794 17.8033C363.807 17.8016 363.819 17.7996 363.831 17.7978L363.868 17.7922L363.905 17.7867L363.941 17.7808C363.954 17.7788 363.966 17.7767 363.978 17.7746L364.015 17.7684C364.027 17.7663 364.039 17.7643 364.052 17.7622C364.064 17.76 364.076 17.7576 364.088 17.7554L364.125 17.7485L364.162 17.7416L364.198 17.7344C364.211 17.7319 364.223 17.7293 364.235 17.7268L364.272 17.7192L364.309 17.7114C364.321 17.7088 364.333 17.7059 364.345 17.7031L364.382 17.6948C364.394 17.692 364.407 17.6894 364.419 17.6865C364.431 17.6836 364.443 17.6805 364.456 17.6775L364.492 17.6684C364.504 17.6654 364.517 17.6624 364.529 17.6593C364.541 17.6562 364.553 17.6529 364.566 17.6497L364.602 17.6398C364.615 17.6365 364.627 17.6333 364.639 17.6299C364.652 17.6265 364.664 17.623 364.676 17.6195L364.713 17.6088C364.725 17.6052 364.737 17.6017 364.749 17.5981L364.786 17.5868L364.823 17.5752C364.835 17.5713 364.847 17.5675 364.86 17.5636L364.896 17.5513L364.933 17.5388C364.945 17.5346 364.958 17.5306 364.97 17.5263C364.982 17.5219 364.994 17.5174 365.006 17.5129L365.043 17.4995C365.055 17.4949 365.068 17.4905 365.08 17.4858C365.092 17.4811 365.104 17.4762 365.117 17.4714C365.129 17.4666 365.141 17.4618 365.153 17.4569L365.19 17.4419L365.227 17.4264C365.239 17.4213 365.251 17.4162 365.264 17.411C365.276 17.4055 365.288 17.3999 365.3 17.3944L365.337 17.3778L365.374 17.3606C365.386 17.3548 365.398 17.3488 365.41 17.3429C365.423 17.3369 365.435 17.3311 365.447 17.325C365.46 17.3188 365.472 17.3123 365.484 17.306C365.496 17.2997 365.509 17.2935 365.521 17.2871C365.533 17.2805 365.545 17.2738 365.557 17.2671C365.57 17.2604 365.582 17.2537 365.594 17.2469C365.606 17.24 365.619 17.233 365.631 17.226C365.643 17.2188 365.655 17.2116 365.668 17.2043C365.68 17.197 365.692 17.1897 365.704 17.1823C365.717 17.1746 365.729 17.1669 365.741 17.1592C365.753 17.1514 365.766 17.1437 365.778 17.1358C365.79 17.1277 365.802 17.1194 365.814 17.1112C365.827 17.1029 365.839 17.0947 365.851 17.0863C365.864 17.0777 365.876 17.0689 365.888 17.0601C365.9 17.0513 365.913 17.0425 365.925 17.0335C365.937 17.0243 365.949 17.015 365.961 17.0056C365.974 16.9961 365.986 16.9866 365.998 16.977C366.01 16.9672 366.023 16.9572 366.035 16.9473C366.047 16.9371 366.059 16.9267 366.071 16.9164C366.084 16.9059 366.096 16.8954 366.108 16.8847C366.121 16.8737 366.133 16.8624 366.145 16.8513C366.157 16.8399 366.17 16.8286 366.182 16.8171C366.194 16.8052 366.206 16.7932 366.218 16.7811C366.231 16.7688 366.243 16.7563 366.255 16.7437C366.267 16.7309 366.28 16.7182 366.292 16.7052C366.304 16.6916 366.316 16.6779 366.329 16.6642C366.341 16.65 366.353 16.6358 366.365 16.6215C366.378 16.6067 366.39 16.592 366.402 16.577C366.414 16.5615 366.427 16.546 366.439 16.5303C366.451 16.5138 366.463 16.4972 366.475 16.4806C366.488 16.4632 366.5 16.4458 366.512 16.4282C366.525 16.4099 366.537 16.3914 366.549 16.3728C366.561 16.3533 366.574 16.3337 366.586 16.3139C366.598 16.293 366.61 16.272 366.622 16.2508C366.635 16.2284 366.647 16.2058 366.659 16.183C366.672 16.1586 366.684 16.1341 366.696 16.1094C366.709 16.0828 366.721 16.0559 366.733 16.0289C366.745 15.9996 366.758 15.9701 366.769 15.9403C366.782 15.9074 366.794 15.8743 366.806 15.8409C366.819 15.8029 366.831 15.7646 366.843 15.726C366.856 15.6808 366.868 15.6352 366.879 15.5892C366.893 15.5321 366.906 15.4743 366.916 15.4159C366.932 15.3289 366.944 15.2406 366.953 15.1511C366.965 15.0263 366.971 14.8992 366.971 14.7702V10.3277H366.953H366.916H366.879H366.843H366.806H366.769H366.733H366.696H366.659H366.622H366.586H366.549H366.512H366.475H366.439H366.402H366.365H366.329H366.292H366.255H366.218H366.182H366.145H366.108H366.071H366.035H365.998H365.961H365.925H365.888H365.851H365.814H365.778H365.741H365.704H365.668H365.631H365.594H365.557H365.521H365.484H365.447H365.41H365.374H365.337H365.3H365.264H365.227H365.19H365.153H365.117H365.08H365.043H365.006H364.97H364.933H364.896H364.86H364.823H364.786H364.749H364.713H364.676H364.639H364.602H364.566H364.529H364.492H364.456H364.419H364.382H364.345H364.309H364.272H364.235H364.198H364.162H364.125H364.088H364.052H364.015H363.978H363.941H363.905H363.868H363.831H363.794H363.758H363.721H363.693V14.7702C363.693 14.8397 363.69 14.9081 363.684 14.9753C363.677 15.0607 363.664 15.1441 363.648 15.2251C363.637 15.2752 363.625 15.3243 363.611 15.3725C363.6 15.4109 363.587 15.4487 363.574 15.4859C363.563 15.5175 363.55 15.5486 363.537 15.5793C363.526 15.6067 363.514 15.6337 363.501 15.6603C363.489 15.6845 363.477 15.7084 363.464 15.7319C363.452 15.7535 363.44 15.7747 363.427 15.7957C363.415 15.8155 363.403 15.835 363.39 15.8542C363.379 15.8722 363.366 15.89 363.354 15.9075C363.342 15.9242 363.33 15.9407 363.317 15.957C363.305 15.9724 363.293 15.9876 363.28 16.0026C363.268 16.0169 363.256 16.0311 363.244 16.0451C363.232 16.0586 363.219 16.0719 363.207 16.085C363.195 16.0976 363.183 16.1101 363.17 16.1224C363.158 16.1342 363.146 16.146 363.133 16.1575C363.121 16.1687 363.109 16.1796 363.097 16.1904C363.085 16.2009 363.072 16.2113 363.06 16.2215C363.048 16.2314 363.036 16.2412 363.023 16.2509C363.011 16.2602 362.999 16.2695 362.986 16.2786C362.974 16.2875 362.962 16.2963 362.95 16.3049C362.938 16.3133 362.925 16.3216 362.913 16.3297C362.901 16.3377 362.889 16.3455 362.876 16.3533C362.864 16.3608 362.852 16.3682 362.84 16.3755C362.827 16.3826 362.815 16.3896 362.803 16.3965C362.791 16.4033 362.778 16.4099 362.766 16.4164C362.754 16.4229 362.742 16.4292 362.729 16.4353C362.717 16.4414 362.705 16.4474 362.693 16.4533C362.681 16.459 362.668 16.4648 362.656 16.4703C362.644 16.4757 362.632 16.4811 362.619 16.4864C362.607 16.4915 362.595 16.4965 362.582 16.5014C362.57 16.5063 362.558 16.511 362.546 16.5157C362.534 16.5203 362.521 16.5248 362.509 16.5292C362.497 16.5335 362.485 16.5379 362.472 16.542C362.46 16.5461 362.448 16.5501 362.436 16.5539C362.423 16.5578 362.411 16.5614 362.399 16.5651C362.387 16.5687 362.374 16.5723 362.362 16.5757C362.35 16.579 362.338 16.5824 362.325 16.5856C362.313 16.5888 362.301 16.5918 362.289 16.5948C362.277 16.5977 362.264 16.6005 362.252 16.6033C362.24 16.606 362.228 16.6087 362.215 16.6113C362.203 16.6138 362.191 16.6163 362.178 16.6187C362.166 16.621 362.154 16.6232 362.142 16.6253C362.13 16.6275 362.117 16.6296 362.105 16.6316L362.068 16.6373C362.056 16.639 362.044 16.6407 362.032 16.6423C362.019 16.6439 362.007 16.6455 361.995 16.6469L361.958 16.651C361.946 16.6523 361.934 16.6534 361.921 16.6545C361.909 16.6556 361.897 16.6568 361.885 16.6577C361.873 16.6587 361.86 16.6595 361.848 16.6603C361.836 16.6611 361.824 16.6618 361.811 16.6624C361.799 16.663 361.787 16.6637 361.775 16.6642C361.762 16.6647 361.75 16.6649 361.738 16.6653L361.701 16.6662C361.689 16.6664 361.677 16.6664 361.664 16.6665L361.651 16.6667L361.628 16.6666L361.591 16.6663L361.554 16.6658L361.517 16.665L361.481 16.6641L361.444 16.6629L361.407 16.6614L361.371 16.6596L361.334 16.6578L361.297 16.6556L361.26 16.6532L361.224 16.6506L361.187 16.6477L361.15 16.6446L361.113 16.6413L361.077 16.6378L361.04 16.634L361.003 16.63L360.967 16.6258L360.93 16.6213L360.893 16.6166L360.856 16.6118L360.82 16.6067L360.783 16.6013L360.746 16.5958L360.709 16.59L360.673 16.584L360.636 16.5778L360.599 16.5714L360.563 16.5648L360.526 16.5579L360.489 16.5509L360.452 16.5436L360.416 16.5361L360.379 16.5284L360.342 16.5206L360.305 16.5124L360.269 16.5041L360.232 16.4956L360.195 16.4869L360.159 16.478L360.122 16.4688L360.085 16.4595L360.048 16.4499L360.012 16.4402L359.975 16.4303L359.938 16.4202L359.901 16.4098L359.865 16.3993L359.828 16.3886L359.791 16.3776L359.755 16.3665L359.718 16.3552L359.681 16.3437L359.644 16.332L359.608 16.3202L359.571 16.3081L359.534 16.2959L359.497 16.2834L359.461 16.2708L359.424 16.258L359.387 16.245L359.351 16.2318L359.314 16.2185L359.277 16.2049L359.24 16.1912L359.204 16.1773L359.167 16.1632L359.13 16.1489L359.093 16.1345L359.057 16.1199L359.02 16.1051L358.983 16.0901L358.947 16.075L358.91 16.0597L358.873 16.0442L358.836 16.0286L358.8 16.0128L358.763 15.9968L358.726 15.9806L358.689 15.9643L358.653 15.9479L358.616 15.9312L358.579 15.9144L358.543 15.8975L358.506 15.8803L358.469 15.863L358.432 15.8456V15.8456Z" fill="url(#paint3_linear)"/>
<path fill-rule="evenodd" clip-rule="evenodd" d="M368.977 11.2984C368.951 11.3202 368.924 11.3421 368.898 11.3643V6.35158C368.898 6.08501 368.926 5.82481 368.977 5.57356C368.988 5.51962 369.001 5.46617 369.014 5.41309C369.025 5.36754 369.038 5.32236 369.051 5.27749C369.062 5.23752 369.075 5.19782 369.087 5.1584C369.099 5.12238 369.111 5.08654 369.124 5.05101C369.136 5.01808 369.148 4.98531 369.161 4.95281C369.173 4.92243 369.185 4.8922 369.198 4.86218C369.21 4.83388 369.222 4.80576 369.234 4.77779C369.246 4.75124 369.259 4.72487 369.271 4.69865C369.283 4.67359 369.295 4.64878 369.308 4.62403C369.32 4.60026 369.332 4.57668 369.345 4.55319C369.357 4.53055 369.369 4.50807 369.381 4.48571C369.393 4.46405 369.406 4.44249 369.418 4.42111C369.43 4.40034 369.442 4.37967 369.455 4.35915C369.467 4.33933 369.479 4.31963 369.491 4.30006C369.504 4.28101 369.516 4.26217 369.528 4.24337C369.54 4.22496 369.553 4.20667 369.565 4.18851C369.577 4.17068 369.589 4.15285 369.602 4.13527C369.614 4.11824 369.626 4.10149 369.638 4.0847C369.651 4.06816 369.663 4.05171 369.675 4.03539C369.687 4.01931 369.699 4.0032 369.712 3.98733C369.724 3.97192 369.736 3.95673 369.749 3.94151C369.761 3.92647 369.773 3.91149 369.785 3.89667C369.797 3.88203 369.81 3.86745 369.822 3.85302C369.834 3.83893 369.846 3.82502 369.859 3.81112C369.871 3.79733 369.883 3.78349 369.896 3.76986C369.908 3.75654 369.92 3.74336 369.932 3.73022C369.944 3.71724 369.957 3.70434 369.969 3.69151C369.981 3.67886 369.993 3.66621 370.006 3.65371C370.018 3.64146 370.03 3.62936 370.042 3.61726C370.055 3.60522 370.067 3.59309 370.079 3.58121C370.091 3.5696 370.104 3.55827 370.116 3.54681C370.128 3.53539 370.14 3.52393 370.153 3.51269C370.165 3.50166 370.177 3.49082 370.189 3.47995C370.201 3.46911 370.214 3.45829 370.226 3.44763C370.238 3.43713 370.25 3.42681 370.263 3.41645C370.275 3.40619 370.287 3.39593 370.299 3.38579C370.312 3.37581 370.324 3.36591 370.336 3.35608C370.348 3.34631 370.361 3.3366 370.373 3.32698C370.385 3.31749 370.397 3.30808 370.41 3.29871C370.422 3.28943 370.434 3.28018 370.446 3.27105C370.459 3.26199 370.471 3.25304 370.483 3.24413C370.495 3.23531 370.508 3.22649 370.52 3.21779C370.532 3.20918 370.544 3.2007 370.557 3.19221C370.569 3.18379 370.581 3.1754 370.593 3.16713C370.605 3.15895 370.618 3.15089 370.63 3.14284C370.642 3.13481 370.654 3.12679 370.667 3.11892C370.679 3.11114 370.691 3.10354 370.704 3.09588C370.716 3.08825 370.728 3.08054 370.74 3.07306C370.752 3.06565 370.765 3.05848 370.777 3.05122C370.789 3.04396 370.801 3.03655 370.814 3.02945C370.826 3.02243 370.838 3.01569 370.85 3.0088C370.863 3.00191 370.875 2.99496 370.887 2.98822C370.899 2.98154 370.912 2.97511 370.924 2.96855C370.936 2.96203 370.948 2.95547 370.961 2.94907L370.997 2.9303L371.034 2.91195C371.046 2.90595 371.058 2.89988 371.071 2.894C371.083 2.88815 371.095 2.88248 371.108 2.87676C371.12 2.87106 371.132 2.86518 371.144 2.8596C371.156 2.85406 371.169 2.84885 371.181 2.84346C371.193 2.83807 371.205 2.83259 371.218 2.82732C371.23 2.82211 371.242 2.81706 371.254 2.81197L371.291 2.7969C371.303 2.79197 371.316 2.78704 371.328 2.78223C371.34 2.77745 371.352 2.77286 371.365 2.7682C371.377 2.76355 371.389 2.75874 371.401 2.75421C371.413 2.74973 371.426 2.74557 371.438 2.74122C371.45 2.73687 371.462 2.73246 371.475 2.72823C371.487 2.724 371.499 2.71996 371.512 2.71589L371.548 2.70391C371.56 2.69999 371.573 2.69598 371.585 2.69215C371.597 2.68838 371.609 2.68483 371.622 2.68118C371.634 2.67751 371.646 2.67374 371.658 2.67019C371.671 2.66667 371.683 2.66339 371.695 2.65999L371.732 2.64997C371.744 2.64673 371.756 2.64342 371.769 2.64029C371.781 2.6372 371.793 2.63429 371.805 2.63129C371.818 2.62829 371.83 2.62516 371.842 2.62228C371.854 2.61943 371.867 2.61677 371.879 2.61404L371.916 2.60602C371.928 2.60342 371.94 2.60072 371.952 2.59824C371.964 2.59576 371.977 2.59352 371.989 2.59116C372.001 2.58881 372.013 2.58632 372.026 2.58409L372.062 2.57772L372.099 2.57162C372.111 2.56963 372.124 2.56752 372.136 2.56565C372.148 2.56378 372.16 2.56222 372.173 2.56047C372.185 2.55876 372.197 2.55695 372.209 2.55533L372.246 2.5507L372.283 2.54647C372.295 2.5451 372.307 2.5435 372.32 2.54225C372.332 2.54099 372.344 2.54007 372.356 2.53894L372.393 2.53569C372.405 2.53465 372.417 2.53364 372.43 2.53275C372.442 2.53186 372.454 2.53116 372.466 2.53039C372.479 2.52963 372.491 2.52874 372.503 2.52807C372.515 2.52739 372.528 2.52693 372.54 2.52638L372.577 2.52497C372.589 2.52454 372.601 2.5239 372.613 2.52359C372.626 2.52329 372.638 2.52332 372.65 2.52313C372.662 2.52295 372.675 2.52274 372.687 2.52268L372.703 2.52246H372.724H372.76H372.797H372.834H372.87H372.907H372.944H372.981H373.017H373.054H373.091H373.128H373.164H373.201H373.238H373.274H373.311H373.348H373.385H373.421H373.458H373.495H373.532H373.568H373.605H373.642H373.679H373.715H373.752H373.789H373.825H373.862H373.899H373.936H373.972H374.009H374.046H374.083H374.119H374.156H374.193H374.229H374.266H374.303H374.34H374.376H374.413H374.45H374.487H374.523H374.56H374.597H374.633H374.67H374.707H374.744H374.78H374.817H374.854H374.891H374.927H374.964H375.001H375.037H375.074H375.111H375.148H375.184H375.221H375.258H375.295H375.331H375.368H375.405H375.441H375.478H375.515H375.552H375.588H375.625H375.662H375.699H375.735H375.772H375.809H375.845H375.882H375.919H375.956H375.992H376.029H376.066H376.103H376.139H376.176H376.213H376.249H376.286H376.323H376.36H376.396H376.433H376.47H376.507H376.543H376.58H376.617H376.653H376.69H376.727H376.764H376.8H376.837H376.874H376.911H376.947H376.984H377.021H377.058H377.094H377.131H377.168H377.204H377.241H377.278H377.315H377.351H377.388H377.425H377.462H377.498H377.535H377.572H377.608H377.645H377.682H377.719H377.755H377.792H377.829H377.866H377.902H377.939H377.976H378.012H378.049H378.086H378.123H378.159H378.196H378.233H378.27H378.301V21.6667C378.301 21.8331 378.29 21.9971 378.27 22.1579C378.26 22.2354 378.247 22.312 378.233 22.388C378.222 22.4458 378.21 22.5031 378.196 22.56C378.185 22.6079 378.173 22.6554 378.159 22.7026C378.148 22.744 378.136 22.7851 378.123 22.8259C378.111 22.8628 378.099 22.8994 378.086 22.9359C378.074 22.9696 378.062 23.0031 378.049 23.0364C378.037 23.0675 378.025 23.0983 378.012 23.129C378.001 23.1579 377.988 23.1867 377.976 23.2152C377.964 23.2423 377.952 23.2692 377.939 23.2959C377.927 23.3215 377.915 23.3469 377.902 23.3721C377.89 23.3962 377.878 23.4203 377.866 23.4442C377.853 23.4672 377.841 23.4901 377.829 23.5128C377.817 23.5348 377.805 23.5567 377.792 23.5785C377.78 23.5994 377.768 23.6202 377.755 23.6408C377.743 23.6609 377.731 23.6807 377.719 23.7005C377.707 23.7198 377.694 23.739 377.682 23.7581C377.67 23.7768 377.658 23.7954 377.645 23.8138C377.633 23.8317 377.621 23.8494 377.608 23.8671C377.596 23.8843 377.584 23.9014 377.572 23.9184C377.56 23.9352 377.547 23.9519 377.535 23.9685C377.523 23.9846 377.511 24.0006 377.498 24.0166C377.486 24.0322 377.474 24.0476 377.462 24.0631C377.449 24.0783 377.437 24.0935 377.425 24.1085C377.413 24.1232 377.4 24.1377 377.388 24.1522C377.376 24.1665 377.364 24.1806 377.351 24.1947C377.339 24.2086 377.327 24.2225 377.315 24.2363C377.302 24.2497 377.29 24.2628 377.278 24.2761C377.266 24.2892 377.254 24.3025 377.241 24.3154C377.229 24.3281 377.217 24.3406 377.204 24.3532C377.192 24.3656 377.18 24.3779 377.168 24.3901C377.156 24.4022 377.143 24.4143 377.131 24.4262C377.119 24.4379 377.107 24.4495 377.094 24.4611C377.082 24.4726 377.07 24.4841 377.058 24.4955C377.045 24.5066 377.033 24.5175 377.021 24.5285C377.009 24.5394 376.996 24.5504 376.984 24.5612C376.972 24.5717 376.96 24.582 376.947 24.5924C376.935 24.6028 376.923 24.6133 376.911 24.6235C376.898 24.6335 376.886 24.6433 376.874 24.6532C376.862 24.6631 376.849 24.673 376.837 24.6827C376.825 24.6923 376.813 24.7016 376.8 24.711C376.788 24.7204 376.776 24.7298 376.764 24.739C376.752 24.7481 376.739 24.757 376.727 24.766C376.715 24.7749 376.703 24.7839 376.69 24.7927C376.678 24.8013 376.666 24.8097 376.653 24.8183C376.641 24.8268 376.629 24.8354 376.617 24.8437C376.605 24.852 376.592 24.8599 376.58 24.868C376.568 24.8761 376.556 24.8844 376.543 24.8923C376.531 24.9001 376.519 24.9077 376.507 24.9154C376.494 24.923 376.482 24.9308 376.47 24.9384C376.458 24.9458 376.445 24.953 376.433 24.9603C376.421 24.9676 376.409 24.975 376.396 24.9821C376.384 24.9892 376.372 24.9962 376.36 25.0031L376.323 25.0237L376.286 25.0437L376.249 25.0632C376.237 25.0696 376.225 25.076 376.213 25.0823C376.201 25.0885 376.188 25.0945 376.176 25.1006C376.164 25.1067 376.152 25.1129 376.139 25.1189C376.127 25.1248 376.115 25.1304 376.103 25.1361C376.09 25.1419 376.078 25.1478 376.066 25.1534C376.054 25.159 376.041 25.1643 376.029 25.1698L375.992 25.1859L375.956 25.2015L375.919 25.2166C375.907 25.2216 375.894 25.2267 375.882 25.2316C375.87 25.2364 375.858 25.2409 375.845 25.2456C375.833 25.2503 375.821 25.255 375.809 25.2596C375.797 25.2641 375.784 25.2685 375.772 25.2729L375.735 25.2859L375.699 25.2985C375.686 25.3026 375.674 25.3065 375.662 25.3105C375.65 25.3145 375.637 25.3186 375.625 25.3225C375.613 25.3263 375.601 25.3298 375.588 25.3335L375.552 25.3445L375.515 25.355C375.503 25.3584 375.49 25.3617 375.478 25.365C375.466 25.3683 375.454 25.3718 375.441 25.375C375.429 25.3781 375.417 25.3809 375.405 25.384C375.392 25.387 375.38 25.3901 375.368 25.393L375.331 25.4015L375.295 25.4095C375.282 25.4121 375.27 25.415 375.258 25.4175C375.246 25.42 375.233 25.4222 375.221 25.4246L375.184 25.4317L375.148 25.4383C375.135 25.4405 375.123 25.4424 375.111 25.4445C375.099 25.4465 375.086 25.4487 375.074 25.4506C375.062 25.4524 375.05 25.4541 375.037 25.4558L375.001 25.461C374.988 25.4627 374.976 25.4644 374.964 25.4659C374.952 25.4674 374.94 25.4687 374.927 25.4701C374.915 25.4715 374.903 25.4731 374.891 25.4743C374.878 25.4756 374.866 25.4767 374.854 25.4779L374.817 25.4812C374.805 25.4823 374.793 25.4835 374.78 25.4844C374.768 25.4853 374.756 25.486 374.744 25.4868L374.707 25.4891L374.67 25.4911C374.658 25.4917 374.646 25.492 374.633 25.4925C374.621 25.4929 374.609 25.4935 374.597 25.4939C374.584 25.4942 374.572 25.4943 374.56 25.4946L374.523 25.4951C374.512 25.4951 374.5 25.4955 374.489 25.4955H374.487H374.45H374.413H374.376H374.34H374.303H374.266H374.229H374.193H374.156H374.119H374.083H374.046H374.009H373.972H373.936H373.899H373.862H373.825H373.789H373.752H373.715H373.679H373.642H373.605H373.568H373.532H373.495H373.458H373.421H373.385H373.348H373.311H373.274H373.238H373.201H373.164H373.128H373.091H373.054H373.017H372.981H372.944H372.907H372.87H372.834H372.797H372.76H372.724H372.687H372.65H372.613H372.577H372.54H372.503H372.466H372.43H372.393H372.356H372.32H372.283H372.246H372.209H372.173H372.136H372.099H372.062H372.026H371.989H371.952H371.916H371.879H371.842H371.805H371.769H371.732H371.695H371.658H371.622H371.585H371.548H371.512H371.475H371.438H371.401H371.365H371.328H371.291H371.254H371.218H371.181H371.144H371.108H371.071H371.034H370.997H370.961H370.924H370.887H370.85H370.814H370.777H370.74H370.704H370.667H370.63H370.593H370.557H370.52H370.483H370.446H370.41H370.373H370.336H370.299H370.263H370.226H370.189H370.153H370.116H370.079H370.042H370.006H369.969H369.932H369.896H369.859H369.822H369.785H369.749H369.712H369.675H369.638H369.602H369.565H369.528H369.491H369.455H369.418H369.381H369.345H369.308H369.271H369.234H369.198H369.161H369.124H369.087H369.051H369.014H368.977H368.898V16.6552C368.924 16.6773 368.951 16.6992 368.977 16.721C368.989 16.7309 369.002 16.7407 369.014 16.7504C369.026 16.76 369.038 16.7696 369.051 16.7791C369.063 16.7885 369.075 16.7979 369.087 16.8072C369.1 16.8163 369.112 16.8253 369.124 16.8343C369.136 16.8431 369.149 16.852 369.161 16.8608C369.173 16.8695 369.185 16.8781 369.198 16.8867L369.234 16.912C369.247 16.9202 369.259 16.9284 369.271 16.9366L369.308 16.9606C369.32 16.9685 369.332 16.9764 369.345 16.9842C369.357 16.9919 369.369 16.9995 369.381 17.0071L369.418 17.0295C369.43 17.0369 369.442 17.0442 369.455 17.0515C369.467 17.0587 369.479 17.0657 369.491 17.0728L369.528 17.0938L369.565 17.1142L369.602 17.1342C369.614 17.1407 369.626 17.1473 369.638 17.1538C369.651 17.1602 369.663 17.1665 369.675 17.1728L369.712 17.1916L369.749 17.2099L369.785 17.2277C369.798 17.2336 369.81 17.2396 369.822 17.2454L369.859 17.2624L369.896 17.2793L369.932 17.2956L369.969 17.3117L370.006 17.3275L370.042 17.3428L370.079 17.358L370.116 17.3727L370.153 17.3873L370.189 17.4013C370.202 17.4059 370.214 17.4107 370.226 17.4153L370.263 17.4287C370.275 17.4332 370.287 17.4377 370.299 17.4421C370.312 17.4465 370.324 17.4507 370.336 17.455L370.373 17.4678L370.41 17.4802C370.422 17.4843 370.434 17.4885 370.446 17.4925C370.459 17.4965 370.471 17.5004 370.483 17.5044L370.52 17.5162L370.557 17.5275L370.593 17.5388L370.63 17.5497L370.667 17.5605L370.704 17.5709L370.74 17.5813L370.777 17.5913L370.814 17.6011L370.85 17.6108L370.887 17.6202L370.924 17.6295L370.961 17.6384L370.997 17.6474L371.034 17.6559L371.071 17.6643L371.108 17.6725L371.144 17.6806L371.181 17.6885L371.218 17.6961L371.254 17.7038L371.291 17.711L371.328 17.7182L371.365 17.7252L371.401 17.732L371.438 17.7387L371.475 17.7451L371.512 17.7515L371.548 17.7576L371.585 17.7636L371.622 17.7696L371.658 17.7752L371.695 17.7808L371.732 17.7862L371.769 17.7914L371.805 17.7967L371.842 17.8015L371.879 17.8064L371.916 17.8111L371.952 17.8156L371.989 17.8201L372.026 17.8244L372.062 17.8285L372.099 17.8326L372.136 17.8364L372.173 17.8402L372.209 17.8439L372.246 17.8474L372.283 17.8508L372.32 17.8541L372.356 17.8572L372.393 17.8603L372.43 17.8632L372.466 17.866L372.503 17.8688L372.54 17.8713L372.577 17.8737L372.613 17.8762L372.65 17.8783L372.687 17.8805L372.724 17.8826L372.76 17.8844L372.797 17.8862L372.834 17.8881L372.87 17.8896L372.907 17.8911L372.944 17.8926L372.981 17.8938L373.017 17.895L373.054 17.8962L373.091 17.8971L373.128 17.898L373.164 17.899L373.201 17.8996L373.238 17.9002L373.274 17.9009L373.311 17.9012L373.348 17.9016L373.385 17.9019L373.421 17.902L373.458 17.9021L373.495 17.9022L373.532 17.9021L373.568 17.9019L373.605 17.9017L373.642 17.9013L373.679 17.9009L373.715 17.9004L373.752 17.8999L373.789 17.8991L373.825 17.8984L373.862 17.8976L373.899 17.8967L373.936 17.8956L373.972 17.8946L374.009 17.8935L374.046 17.8922L374.083 17.891L374.119 17.8897L374.156 17.8881L374.193 17.8866L374.229 17.8851L374.247 17.8843L374.266 17.8834L374.303 17.8816L374.34 17.8797L374.376 17.8776L374.413 17.8754L374.45 17.8731L374.487 17.8707L374.523 17.8681L374.56 17.8654L374.597 17.8627L374.633 17.8597L374.67 17.8567L374.707 17.8536L374.744 17.8503L374.78 17.847L374.817 17.8435L374.854 17.84L374.891 17.8363L374.927 17.8326L374.964 17.8286L375.001 17.8247L375.037 17.8206L375.074 17.8164L375.111 17.8122L375.148 17.8078L375.184 17.8034L375.221 17.7989L375.258 17.7942L375.295 17.7895L375.331 17.7848L375.368 17.7798L375.405 17.7749L375.441 17.7698L375.478 17.7647L375.515 17.7595L375.552 17.7541L375.588 17.7488L375.625 17.7433L375.662 17.7377L375.699 17.7321L375.735 17.7264L375.772 17.7206L375.809 17.7147L375.845 17.7088L375.882 17.7028L375.919 17.6967L375.956 17.6905L375.992 17.6843L376.029 17.678L376.066 17.6716L376.103 17.6651L376.139 17.6585L376.176 17.6519L376.213 17.6453L376.249 17.6385L376.286 17.6317L376.323 17.6248L376.36 17.6178L376.396 17.6107L376.433 17.6036L376.47 17.5964L376.507 17.5892L376.543 17.5818L376.58 17.5744L376.617 17.567L376.653 17.5594L376.69 17.5517L376.727 17.544L376.764 17.5363L376.8 17.5284L376.837 17.5205L376.874 17.5125L376.911 17.5044L376.947 17.4962L376.984 17.488L377.021 17.4796L377.058 17.4711L377.094 17.4626L377.131 17.4539L377.168 17.4452L377.204 17.4363L377.241 17.4272V15.8076L377.204 15.8258L377.168 15.8441L377.131 15.8621L377.094 15.88L377.058 15.8978L377.021 15.9153L376.984 15.9326L376.947 15.9499L376.911 15.9669L376.874 15.9837L376.837 16.0003L376.8 16.0168L376.764 16.0331L376.727 16.0491L376.69 16.065L376.653 16.0807L376.617 16.0962L376.58 16.1115L376.543 16.1266L376.507 16.1415L376.47 16.1562L376.433 16.1707L376.396 16.1849L376.36 16.199L376.323 16.2128L376.286 16.2265L376.249 16.24L376.213 16.2532L376.176 16.2663L376.139 16.2791L376.103 16.2917L376.066 16.3041L376.029 16.3163L375.992 16.3283L375.956 16.3401L375.919 16.3517L375.882 16.363L375.845 16.3741L375.809 16.3851L375.772 16.3958L375.735 16.4064L375.699 16.4166L375.662 16.4267L375.625 16.4366L375.588 16.4463L375.552 16.4558L375.515 16.465L375.478 16.4741L375.441 16.4829L375.405 16.4916L375.368 16.5L375.331 16.5082L375.295 16.5162L375.258 16.524L375.221 16.5316L375.184 16.539L375.148 16.5463L375.111 16.5532L375.074 16.56L375.037 16.5666L375.001 16.573L374.964 16.5791L374.927 16.5851L374.891 16.5909L374.854 16.5964L374.817 16.6018L374.78 16.607L374.744 16.612L374.707 16.6167L374.67 16.6213L374.633 16.6257L374.597 16.6299L374.56 16.6339L374.523 16.6377L374.487 16.6412L374.45 16.6447L374.413 16.6479L374.376 16.6509L374.354 16.6527L374.34 16.6537L374.303 16.6562L374.266 16.6586L374.229 16.6606L374.193 16.6625L374.156 16.6642L374.119 16.6654L374.083 16.6666L374.046 16.6674L374.009 16.6679L373.972 16.6684C373.96 16.6684 373.948 16.6683 373.936 16.6683L373.899 16.6681L373.862 16.6676L373.825 16.6668L373.789 16.6658C373.776 16.6654 373.764 16.6648 373.752 16.6643C373.74 16.6638 373.727 16.6634 373.715 16.6628L373.679 16.6608L373.642 16.6586L373.605 16.656L373.568 16.6531C373.556 16.6521 373.544 16.6512 373.532 16.6501C373.519 16.649 373.507 16.6476 373.495 16.6464L373.458 16.6427L373.421 16.6384L373.385 16.6339L373.348 16.629L373.311 16.6238C373.299 16.622 373.287 16.6203 373.274 16.6183C373.262 16.6164 373.25 16.6143 373.238 16.6122C373.226 16.6102 373.213 16.6083 373.201 16.6061C373.189 16.6039 373.177 16.6015 373.164 16.5992C373.152 16.5969 373.14 16.5947 373.128 16.5923C373.115 16.5898 373.103 16.5871 373.091 16.5846C373.079 16.582 373.066 16.5795 373.054 16.5768C373.042 16.5741 373.03 16.5712 373.017 16.5683L372.981 16.5597C372.968 16.5567 372.956 16.5535 372.944 16.5504C372.932 16.5472 372.919 16.5441 372.907 16.5408C372.895 16.5375 372.883 16.534 372.87 16.5306C372.858 16.5271 372.846 16.5237 372.834 16.5201C372.821 16.5164 372.809 16.5127 372.797 16.5089C372.785 16.5051 372.772 16.5013 372.76 16.4974C372.748 16.4934 372.736 16.4893 372.724 16.4852C372.711 16.481 372.699 16.4769 372.687 16.4727C372.674 16.4683 372.662 16.4638 372.65 16.4594C372.638 16.4549 372.626 16.4504 372.613 16.4458C372.601 16.4411 372.589 16.4362 372.577 16.4313C372.564 16.4264 372.552 16.4216 372.54 16.4166C372.528 16.4115 372.515 16.4062 372.503 16.4009C372.491 16.3956 372.479 16.3903 372.466 16.3849C372.454 16.3794 372.442 16.3736 372.43 16.3679C372.417 16.3621 372.405 16.3564 372.393 16.3505C372.381 16.3445 372.368 16.3384 372.356 16.3322C372.344 16.326 372.332 16.3197 372.32 16.3133C372.307 16.3068 372.295 16.3004 372.283 16.2937C372.27 16.287 372.258 16.28 372.246 16.273C372.234 16.266 372.221 16.259 372.209 16.2518C372.197 16.2445 372.185 16.237 372.173 16.2296C372.16 16.222 372.148 16.2142 372.136 16.2064C372.124 16.1985 372.111 16.1907 372.099 16.1826C372.087 16.1744 372.075 16.1658 372.062 16.1573C372.05 16.1488 372.038 16.1401 372.026 16.1313C372.013 16.1224 372.001 16.1135 371.989 16.1043C371.977 16.095 371.964 16.0854 371.952 16.0758C371.94 16.066 371.928 16.0562 371.916 16.0463C371.903 16.0361 371.891 16.0261 371.879 16.0157C371.866 16.005 371.854 15.9942 371.842 15.9832C371.83 15.9721 371.817 15.9609 371.805 15.9495C371.793 15.9379 371.781 15.9262 371.769 15.9143C371.756 15.9022 371.744 15.89 371.732 15.8776C371.719 15.8648 371.707 15.8518 371.695 15.8386C371.683 15.8252 371.671 15.8116 371.658 15.7978C371.646 15.7837 371.634 15.7694 371.622 15.7549C371.609 15.74 371.597 15.725 371.585 15.7098C371.573 15.694 371.56 15.6781 371.548 15.662C371.536 15.6453 371.524 15.6285 371.512 15.6114C371.499 15.5937 371.487 15.5758 371.475 15.5576C371.462 15.5387 371.45 15.5195 371.438 15.5001C371.426 15.4798 371.413 15.4591 371.401 15.4383C371.389 15.4164 371.377 15.3942 371.365 15.3718C371.352 15.348 371.34 15.3238 371.328 15.2994C371.315 15.2735 371.303 15.2471 371.291 15.2205C371.278 15.1919 371.266 15.1629 371.254 15.1335C371.241 15.101 371.229 15.0679 371.218 15.0345C371.205 14.9974 371.192 14.9598 371.181 14.9216C371.168 14.8773 371.155 14.8322 371.144 14.7864C371.13 14.7294 371.118 14.6712 371.108 14.6119C371.092 14.524 371.079 14.4336 371.071 14.3408C371.061 14.2336 371.056 14.1232 371.056 14.0096C371.056 13.8959 371.061 13.7854 371.071 13.6782C371.079 13.5853 371.092 13.4949 371.108 13.407C371.118 13.3477 371.13 13.2894 371.144 13.2323C371.155 13.1865 371.168 13.1414 371.181 13.0971C371.192 13.0589 371.205 13.0213 371.218 12.9841C371.229 12.9507 371.241 12.9175 371.254 12.885C371.266 12.8556 371.278 12.8267 371.291 12.798C371.303 12.7713 371.315 12.745 371.328 12.7191C371.34 12.6946 371.352 12.6705 371.365 12.6467C371.377 12.6242 371.389 12.602 371.401 12.5801C371.413 12.5592 371.426 12.5386 371.438 12.5183C371.45 12.4989 371.462 12.4797 371.475 12.4607C371.487 12.4426 371.499 12.4246 371.512 12.4069C371.524 12.3898 371.536 12.373 371.548 12.3563C371.56 12.3402 371.573 12.3243 371.585 12.3085C371.597 12.2933 371.609 12.2783 371.622 12.2634C371.634 12.2489 371.646 12.2346 371.658 12.2204C371.671 12.2067 371.683 12.193 371.695 12.1795C371.707 12.1665 371.719 12.1534 371.732 12.1406C371.744 12.1281 371.756 12.116 371.769 12.1039C371.781 12.092 371.793 12.0803 371.805 12.0687C371.817 12.0573 371.83 12.046 371.842 12.0349C371.854 12.024 371.866 12.0131 371.879 12.0024C371.891 11.9921 371.903 11.982 371.916 11.9718C371.928 11.9619 371.94 11.9521 371.952 11.9423C371.964 11.9327 371.977 11.9231 371.989 11.9137C372.001 11.9046 372.013 11.8957 372.026 11.8868C372.038 11.878 372.05 11.8693 372.062 11.8607C372.075 11.8522 372.087 11.8437 372.099 11.8354C372.111 11.8273 372.124 11.8195 372.136 11.8116C372.148 11.8038 372.16 11.7961 372.173 11.7885C372.185 11.781 372.197 11.7735 372.209 11.7662C372.221 11.759 372.234 11.752 372.246 11.745C372.258 11.738 372.27 11.7311 372.283 11.7243C372.295 11.7176 372.307 11.7112 372.32 11.7048C372.332 11.6984 372.344 11.692 372.356 11.6858C372.368 11.6796 372.381 11.6735 372.393 11.6675C372.405 11.6616 372.417 11.6558 372.43 11.6501C372.442 11.6444 372.454 11.6386 372.466 11.6331C372.479 11.6276 372.491 11.6224 372.503 11.6171C372.515 11.6118 372.528 11.6065 372.54 11.6013C372.552 11.5963 372.564 11.5915 372.577 11.5866C372.589 11.5818 372.601 11.5769 372.613 11.5722C372.626 11.5675 372.638 11.5631 372.65 11.5586C372.662 11.5541 372.674 11.5496 372.687 11.5453C372.699 11.541 372.711 11.5369 372.724 11.5327C372.736 11.5286 372.748 11.5245 372.76 11.5205C372.772 11.5166 372.785 11.5128 372.797 11.509C372.809 11.5053 372.821 11.5015 372.834 11.4979L372.87 11.4873C372.883 11.4839 372.895 11.4804 372.907 11.4771C372.919 11.4738 372.932 11.4707 372.944 11.4676C372.956 11.4644 372.968 11.4612 372.981 11.4582L373.017 11.4496C373.03 11.4467 373.042 11.4438 373.054 11.4411C373.066 11.4384 373.079 11.4359 373.091 11.4333C373.103 11.4307 373.115 11.428 373.128 11.4256C373.14 11.4232 373.152 11.421 373.164 11.4187C373.177 11.4164 373.189 11.414 373.201 11.4118C373.213 11.4096 373.226 11.4077 373.238 11.4057C373.25 11.4036 373.262 11.4015 373.274 11.3996L373.311 11.3941L373.348 11.3888L373.385 11.3839L373.421 11.3795L373.458 11.3752L373.495 11.3715C373.507 11.3702 373.519 11.3689 373.532 11.3678C373.544 11.3666 373.556 11.3658 373.568 11.3648L373.605 11.3618L373.642 11.3593L373.679 11.3571L373.715 11.355C373.727 11.3544 373.74 11.354 373.752 11.3535C373.764 11.353 373.776 11.3524 373.789 11.352L373.825 11.3511L373.862 11.3503L373.899 11.3497L373.936 11.3496C373.948 11.3496 373.96 11.3494 373.972 11.3495L374.009 11.3499L374.046 11.3505L374.083 11.3513L374.119 11.3525L374.156 11.3537L374.193 11.3554L374.229 11.3573L374.266 11.3592L374.303 11.3617L374.34 11.3642L374.354 11.3652L374.376 11.3669L374.413 11.3699L374.45 11.3731L374.487 11.3764L374.523 11.38L374.56 11.3837L374.597 11.3877L374.633 11.3918L374.67 11.3961L374.707 11.4006L374.744 11.4053L374.78 11.4102L374.817 11.4154L374.854 11.4206L374.891 11.4261L374.927 11.4318L374.964 11.4378L375.001 11.4438L375.037 11.4502L375.074 11.4567L375.111 11.4634L375.148 11.4703L375.184 11.4774L375.221 11.4847L375.258 11.4923L375.295 11.5L375.331 11.508L375.368 11.5162L375.405 11.5245L375.441 11.5331L375.478 11.5419L375.515 11.5509L375.552 11.5601L375.588 11.5695L375.625 11.5792L375.662 11.589L375.699 11.5991L375.735 11.6094L375.772 11.6198L375.809 11.6306L375.845 11.6415L375.882 11.6527L375.919 11.664L375.956 11.6755L375.992 11.6873L376.029 11.6993L376.066 11.7116L376.103 11.724L376.139 11.7366L376.176 11.7494L376.213 11.7626L376.249 11.7758L376.286 11.7893L376.323 11.803L376.36 11.817L376.396 11.8311L376.433 11.8455L376.47 11.86L376.507 11.8748L376.543 11.8898L376.58 11.905L376.617 11.9204L376.653 11.9359L376.69 11.9518L376.727 11.9677L376.764 11.9839L376.8 12.0003L376.837 12.0169L376.874 12.0337L376.911 12.0507L376.947 12.0678L376.984 12.0852L377.021 12.1027L377.058 12.1204L377.094 12.1383L377.131 12.1564L377.168 12.1746L377.204 12.193L377.241 12.2114V10.5906L377.204 10.5816L377.168 10.5727L377.131 10.5639L377.094 10.5552L377.058 10.5467L377.021 10.5383L376.984 10.5299L376.947 10.5216L376.911 10.5135L376.874 10.5054L376.837 10.4974L376.8 10.4895L376.764 10.4816L376.727 10.4738L376.69 10.4661L376.653 10.4585L376.617 10.451L376.58 10.4435L376.543 10.4361L376.507 10.4287L376.47 10.4215L376.433 10.4143L376.396 10.4072L376.36 10.4001L376.323 10.3932L376.286 10.3863L376.249 10.3795L376.213 10.3727L376.176 10.366L376.139 10.3594L376.103 10.3529L376.066 10.3464L376.029 10.34L375.992 10.3338L375.956 10.3275L375.919 10.3214L375.882 10.3153L375.845 10.3093L375.809 10.3033L375.772 10.2975L375.735 10.2917L375.699 10.286L375.662 10.2804L375.625 10.2748L375.588 10.2693L375.552 10.264L375.515 10.2587L375.478 10.2535L375.441 10.2484L375.405 10.2433L375.368 10.2384L375.331 10.2335L375.295 10.2287L375.258 10.224L375.221 10.2194L375.184 10.2148L375.148 10.2104L375.111 10.2061L375.074 10.2018L375.037 10.1977L375.001 10.1936L374.964 10.1897L374.927 10.1858L374.891 10.1821L374.854 10.1784L374.817 10.1749L374.78 10.1714L374.744 10.1681L374.707 10.1649L374.67 10.1617L374.633 10.1587L374.597 10.1558L374.56 10.1531L374.523 10.1504L374.487 10.1479L374.45 10.1454L374.413 10.1432L374.376 10.141L374.34 10.139L374.303 10.137L374.266 10.1353L374.247 10.1344L374.229 10.1336L374.193 10.1321L374.156 10.1305L374.119 10.129L374.083 10.1277L374.046 10.1265L374.009 10.1252L373.972 10.1241L373.936 10.123L373.899 10.122L373.862 10.1211L373.825 10.1203L373.789 10.1196L373.752 10.1188L373.715 10.1183L373.679 10.1178L373.642 10.1173L373.605 10.117L373.568 10.1168L373.532 10.1166L373.495 10.1165L373.458 10.1166L373.421 10.1167L373.385 10.1168L373.348 10.1171L373.311 10.1175L373.274 10.1179L373.238 10.1185L373.201 10.1191L373.164 10.1198L373.128 10.1207L373.091 10.1216L373.054 10.1225L373.017 10.1237L372.981 10.1249L372.944 10.1262L372.907 10.1277L372.87 10.1292L372.834 10.1307L372.797 10.1325L372.76 10.1343L372.724 10.1361L372.687 10.1383L372.65 10.1404L372.613 10.1425L372.577 10.145L372.54 10.1475L372.503 10.15L372.466 10.1528L372.43 10.1556L372.393 10.1584L372.356 10.1616L372.32 10.1647L372.283 10.1679L372.246 10.1714L372.209 10.1749L372.173 10.1785L372.136 10.1824L372.099 10.1862L372.062 10.1903L372.026 10.1944L371.989 10.1987L371.952 10.2032L371.916 10.2077L371.879 10.2124L371.842 10.2173L371.805 10.2222L371.769 10.2274L371.732 10.2326L371.695 10.238L371.658 10.2437L371.622 10.2493L371.585 10.2552L371.548 10.2612L371.512 10.2674L371.475 10.2738L371.438 10.2802L371.401 10.2869L371.365 10.2937L371.328 10.3007L371.291 10.3079L371.254 10.3151L371.218 10.3228L371.181 10.3304L371.144 10.3383L371.108 10.3464L371.071 10.3546L371.034 10.363L370.997 10.3716L370.961 10.3805L370.924 10.3894L370.887 10.3987L370.85 10.4081L370.814 10.4178L370.777 10.4277L370.74 10.4377L370.704 10.448L370.667 10.4585L370.63 10.4693L370.593 10.4802L370.557 10.4915L370.52 10.5029L370.483 10.5147C370.471 10.5186 370.459 10.5225 370.446 10.5265L370.41 10.5389C370.397 10.543 370.385 10.547 370.373 10.5512L370.336 10.5641L370.299 10.5769C370.287 10.5813 370.275 10.5859 370.263 10.5904C370.25 10.5949 370.238 10.5993 370.226 10.6038L370.189 10.6178C370.177 10.6225 370.165 10.6271 370.153 10.6319L370.116 10.6464L370.079 10.6611L370.042 10.6763L370.006 10.6917L369.969 10.7074L369.932 10.7235L369.896 10.7399L369.859 10.7568L369.822 10.7738C369.81 10.7796 369.798 10.7856 369.785 10.7914L369.749 10.8093L369.712 10.8276L369.675 10.8464C369.663 10.8527 369.651 10.859 369.638 10.8654C369.626 10.8719 369.614 10.8785 369.602 10.8851L369.565 10.9051L369.528 10.9255C369.516 10.9325 369.504 10.9395 369.491 10.9465C369.479 10.9536 369.467 10.9606 369.455 10.9678C369.442 10.9751 369.43 10.9824 369.418 10.9898C369.406 10.9972 369.393 11.0047 369.381 11.0122C369.369 11.0198 369.357 11.0274 369.345 11.0351C369.332 11.0429 369.32 11.0508 369.308 11.0587L369.271 11.0828C369.259 11.091 369.247 11.0991 369.234 11.1074L369.198 11.1327C369.185 11.1413 369.173 11.1499 369.161 11.1586C369.149 11.1674 369.136 11.1762 369.124 11.1852C369.112 11.1942 369.1 11.2031 369.087 11.2122C369.075 11.2215 369.063 11.2309 369.051 11.2403C369.038 11.2498 369.026 11.2594 369.014 11.269C369.002 11.2788 368.989 11.2886 368.977 11.2984V11.2984Z" fill="url(#paint4_linear)"/>
<g clip-path="url(#clip0)">
<path d="M432.134 24.6557C438.723 24.6879 444.743 19.4877 444.743 13.16C444.743 6.24332 438.728 1.46191 432.134 1.46191H426.458C419.788 1.46191 414.299 6.24332 414.299 13.16C414.299 19.4877 419.788 24.6879 426.458 24.6557H432.134Z" fill="#0079BE"/>
<path d="M426.487 2.41943C420.39 2.42404 415.452 7.17322 415.447 13.0407C415.447 18.9035 420.386 23.6527 426.482 23.6573C432.579 23.6573 437.522 18.9035 437.522 13.0407C437.522 7.17322 432.583 2.42404 426.487 2.41943ZM419.491 13.0407C419.496 10.1737 421.357 7.73006 423.979 6.75905V19.3177C421.357 18.3467 419.496 15.9031 419.491 13.0407ZM428.99 19.3223V6.75905C431.617 7.73006 433.478 10.1737 433.483 13.0407C433.478 15.9077 431.612 18.3513 428.99 19.3223Z" fill="white"/>
<path d="M432.134 24.6557C438.723 24.6879 444.743 19.4877 444.743 13.16C444.743 6.24332 438.728 1.46191 432.134 1.46191H426.458C419.788 1.46191 414.299 6.24332 414.299 13.16C414.299 19.4877 419.788 24.6879 426.458 24.6557H432.134Z" fill="#0079BE"/>
<path d="M426.487 2.41943C420.39 2.42404 415.452 7.17322 415.447 13.0407C415.447 18.9035 420.386 23.6527 426.482 23.6573C432.579 23.6573 437.522 18.9035 437.522 13.0407C437.522 7.17322 432.583 2.42404 426.487 2.41943ZM419.491 13.0407C419.496 10.1737 421.357 7.73006 423.979 6.75905V19.3177C421.357 18.3467 419.496 15.9031 419.491 13.0407ZM428.99 19.3223V6.75905C431.617 7.73006 433.478 10.1737 433.483 13.0407C433.478 15.9077 431.612 18.3513 428.99 19.3223Z" fill="white"/>
</g>
<path d="M111.484 25.0277H99.7158V2.99756H111.484V25.0277Z" fill="#FF5F00"/>
<path d="M100.469 14.0108C100.469 9.54189 102.478 5.56111 105.606 2.99574C103.319 1.11981 100.432 0.0001297 97.2942 0.0001297C89.8666 0.0001297 83.8457 6.27282 83.8457 14.0108C83.8457 21.7488 89.8666 28.0215 97.2942 28.0215C100.432 28.0215 103.319 26.9018 105.606 25.0259C102.478 22.4605 100.469 18.4797 100.469 14.0108Z" fill="#EB001B"/>
<path d="M127.354 14.0108C127.354 21.7488 121.334 28.0215 113.906 28.0215C110.768 28.0215 107.882 26.9018 105.593 25.0259C108.722 22.4605 110.731 18.4797 110.731 14.0108C110.731 9.54189 108.722 5.56111 105.593 2.99574C107.882 1.11981 110.768 0.0001297 113.906 0.0001297C121.334 0.0001297 127.354 6.27282 127.354 14.0108Z" fill="#F79E1B"/>
<path d="M93.9662 14.0993C93.9662 13.4873 94.3512 12.9845 94.9803 12.9845C95.5814 12.9845 95.9872 13.4656 95.9872 14.0993C95.9872 14.733 95.5814 15.214 94.9803 15.214C94.3512 15.214 93.9662 14.7113 93.9662 14.0993ZM96.6724 14.0993V12.3584H95.9456V12.7811C95.7151 12.4676 95.3653 12.2708 94.8899 12.2708C93.9526 12.2708 93.2178 13.0362 93.2178 14.0993C93.2178 15.1632 93.9526 15.9277 94.8899 15.9277C95.3653 15.9277 95.7151 15.731 95.9456 15.4175V15.8402H96.6724V14.0993ZM121.232 14.0993C121.232 13.4873 121.617 12.9845 122.246 12.9845C122.848 12.9845 123.253 13.4656 123.253 14.0993C123.253 14.733 122.848 15.214 122.246 15.214C121.617 15.214 121.232 14.7113 121.232 14.0993ZM123.939 14.0993V10.9602H123.212V12.7811C122.981 12.4676 122.631 12.2708 122.156 12.2708C121.219 12.2708 120.484 13.0362 120.484 14.0993C120.484 15.1632 121.219 15.9277 122.156 15.9277C122.631 15.9277 122.981 15.731 123.212 15.4175V15.8402H123.939V14.0993ZM105.694 12.9487C106.162 12.9487 106.463 13.2547 106.54 13.7933H104.805C104.883 13.2905 105.176 12.9487 105.694 12.9487ZM105.708 12.2708C104.729 12.2708 104.043 13.0137 104.043 14.0993C104.043 15.2065 104.757 15.9277 105.757 15.9277C106.261 15.9277 106.722 15.7968 107.127 15.44L106.771 14.8789C106.491 15.1115 106.134 15.2432 105.799 15.2432C105.33 15.2432 104.904 15.0173 104.799 14.3903H107.281C107.288 14.2961 107.295 14.201 107.295 14.0993C107.288 13.0137 106.645 12.2708 105.708 12.2708ZM114.484 14.0993C114.484 13.4873 114.869 12.9845 115.498 12.9845C116.099 12.9845 116.505 13.4656 116.505 14.0993C116.505 14.733 116.099 15.214 115.498 15.214C114.869 15.214 114.484 14.7113 114.484 14.0993ZM117.19 14.0993V12.3584H116.463V12.7811C116.232 12.4676 115.883 12.2708 115.408 12.2708C114.47 12.2708 113.736 13.0362 113.736 14.0993C113.736 15.1632 114.47 15.9277 115.408 15.9277C115.883 15.9277 116.232 15.731 116.463 15.4175V15.8402H117.19V14.0993ZM110.379 14.0993C110.379 15.1557 111.085 15.9277 112.163 15.9277C112.666 15.9277 113.002 15.811 113.365 15.5125L113.016 14.9005C112.743 15.1048 112.457 15.214 112.141 15.214C111.561 15.2065 111.134 14.7696 111.134 14.0993C111.134 13.4289 111.561 12.9921 112.141 12.9845C112.457 12.9845 112.743 13.0938 113.016 13.298L113.365 12.6861C113.002 12.3876 112.666 12.2708 112.163 12.2708C111.085 12.2708 110.379 13.0429 110.379 14.0993ZM119.75 12.2708C119.33 12.2708 119.058 12.4751 118.869 12.7811V12.3584H118.148V15.8402H118.876V13.8883C118.876 13.3122 119.114 12.9921 119.589 12.9921C119.736 12.9921 119.89 13.0137 120.044 13.0796L120.268 12.3659C120.107 12.3 119.897 12.2708 119.75 12.2708ZM100.267 12.6352C99.9172 12.3951 99.4354 12.2708 98.9039 12.2708C98.0571 12.2708 97.512 12.6936 97.512 13.3856C97.512 13.9534 97.9178 14.3036 98.6654 14.4128L99.0088 14.4636C99.4074 14.522 99.5955 14.6312 99.5955 14.828C99.5955 15.0973 99.3297 15.2507 98.8335 15.2507C98.33 15.2507 97.9666 15.0831 97.7217 14.8864L97.3791 15.4758C97.7777 15.7818 98.2812 15.9277 98.8263 15.9277C99.7916 15.9277 100.351 15.4542 100.351 14.7913C100.351 14.1793 99.9108 13.8592 99.1833 13.7499L98.8407 13.6983C98.5261 13.6549 98.274 13.5899 98.274 13.3564C98.274 13.1013 98.5117 12.9487 98.9103 12.9487C99.3369 12.9487 99.75 13.1163 99.9525 13.2472L100.267 12.6352ZM109.645 12.2708C109.225 12.2708 108.952 12.4751 108.764 12.7811V12.3584H108.044V15.8402H108.771V13.8883C108.771 13.3122 109.008 12.9921 109.484 12.9921C109.631 12.9921 109.785 13.0137 109.938 13.0796L110.163 12.3659C110.002 12.3 109.792 12.2708 109.645 12.2708ZM103.442 12.3584H102.254V11.302H101.519V12.3584H100.841V13.0504H101.519V14.6387C101.519 15.4467 101.82 15.9277 102.679 15.9277C102.995 15.9277 103.358 15.826 103.589 15.6584L103.379 15.0098C103.162 15.1407 102.924 15.2065 102.736 15.2065C102.372 15.2065 102.254 14.9731 102.254 14.6237V13.0504H103.442V12.3584ZM92.5751 15.8402V13.6549C92.5751 12.832 92.0716 12.2784 91.26 12.2708C90.8334 12.2633 90.3931 12.4017 90.085 12.8903C89.8545 12.5043 89.4911 12.2708 88.9804 12.2708C88.6234 12.2708 88.2744 12.3801 88.0015 12.7878V12.3584H87.2739V15.8402H88.0079V13.91C88.0079 13.3055 88.3297 12.9845 88.8267 12.9845C89.3094 12.9845 89.5535 13.3122 89.5535 13.9025V15.8402H90.2883V13.91C90.2883 13.3055 90.6237 12.9845 91.1063 12.9845C91.6026 12.9845 91.8403 13.3122 91.8403 13.9025V15.8402H92.5751Z" fill="white"/>
<defs>
<linearGradient id="paint0_linear" x1="294.106" y1="19.374" x2="288.996" y2="11.2459" gradientUnits="userSpaceOnUse">
<stop stop-color="#F89F21"/>
<stop offset="0.2502" stop-color="#F79A23"/>
<stop offset="0.5331" stop-color="#F78E22"/>
<stop offset="0.6196" stop-color="#F68721"/>
<stop offset="0.7232" stop-color="#F48220"/>
<stop offset="1" stop-color="#F27623"/>
</linearGradient>
<linearGradient id="paint1_linear" x1="293.281" y1="19.2645" x2="285.831" y2="4.47272" gradientUnits="userSpaceOnUse">
<stop stop-color="#F68721" stop-opacity="0"/>
<stop offset="0.3587" stop-color="#E27027" stop-opacity="0.2704"/>
<stop offset="0.703" stop-color="#D4612C" stop-opacity="0.5299"/>
<stop offset="0.9816" stop-color="#D15D2D" stop-opacity="0.74"/>
</linearGradient>
<linearGradient id="paint2_linear" x1="379.444" y1="14.009" x2="388.847" y2="14.009" gradientUnits="userSpaceOnUse">
<stop stop-color="#007B40"/>
<stop offset="1" stop-color="#55B330"/>
</linearGradient>
<linearGradient id="paint3_linear" x1="358.354" y1="14.009" x2="367.755" y2="14.009" gradientUnits="userSpaceOnUse">
<stop stop-color="#1D2970"/>
<stop offset="1" stop-color="#006DBA"/>
</linearGradient>
<linearGradient id="paint4_linear" x1="368.898" y1="14.009" x2="378.301" y2="14.009" gradientUnits="userSpaceOnUse">
<stop stop-color="#6E2B2F"/>
<stop offset="1" stop-color="#E30138"/>
</linearGradient>
<clipPath id="clip0">
<rect width="31.8559" height="24.7768" fill="white" transform="translate(414.145 1.03027)"/>
</clipPath>
</defs>
</svg>
