<svg width="273" height="34" viewBox="0 0 273 34" fill="none" xmlns="http://www.w3.org/2000/svg">
    <rect x="1" y="1" width="48" height="32" rx="4" fill="white" stroke="#E0E0E0" />
    <path fill-rule="evenodd" clip-rule="evenodd"
        d="M31.35 18.67C31.3561 17.1453 30.0986 16.4867 29.1227 15.9756C28.5049 15.6521 28 15.3877 28 15C28 14.67 28.32 14.32 29 14.23C29.8093 14.1499 30.6251 14.2917 31.36 14.64L31.78 12.64C31.0636 12.3714 30.3051 12.2325 29.54 12.23C27.18 12.23 25.54 13.49 25.54 15.29C25.54 16.62 26.73 17.36 27.63 17.8C28.53 18.24 28.88 18.55 28.87 18.95C28.87 19.57 28.13 19.85 27.44 19.86C26.5889 19.871 25.749 19.6644 25 19.26L24.57 21.26C25.4175 21.5909 26.3203 21.7572 27.23 21.75C29.74 21.75 31.39 20.51 31.4 18.59L31.35 18.67ZM24.86 12.39L22.86 21.64H20.46L22.46 12.39H24.86ZM34.92 18.39L36.18 14.92L36.91 18.39H34.92ZM39.81 21.67H37.59L37.3 20.29H34.29L33.8 21.67H31.28L34.87 13.1C35.0355 12.6923 35.43 12.424 35.87 12.42H37.87L39.81 21.67ZM17.61 21.61L21.49 12.36H18.89L16.4 18.65L15.4 13.3C15.3115 12.7564 14.8408 12.3578 14.29 12.36H10.22L10.16 12.63C10.9763 12.7897 11.7693 13.0518 12.52 13.41C12.8398 13.5603 13.0564 13.8683 13.09 14.22L15 21.61H17.61Z"
        fill="#142688" />
    <path
        d="M217 5V29C217 31.2091 215.209 33 213 33H173C172.536 33.0035 172.075 32.9222 171.64 32.76C170.056 32.1874 169.001 30.6841 169 29V5C169 2.79086 170.791 1 173 1H213C215.209 1 217 2.79086 217 5Z"
        fill="white" stroke="#E0E0E0" />
    <path
        d="M217 17V28.9646C217 31.1932 215.184 32.9999 212.944 32.9999H172.379C171.908 33.0034 171.441 32.9214 171 32.7578C174.407 32.2735 177.693 31.6682 180.918 30.9822C181.77 30.8208 182.601 30.6191 183.433 30.4375C196.84 27.3908 208.441 22.9117 214.972 18.5132C215.702 18.0088 216.392 17.5044 217 17Z"
        fill="#EE7623" />
    <path fill-rule="evenodd" clip-rule="evenodd"
        d="M173 11.64H174.82V11.6C176.213 11.4992 177.513 12.3083 178.037 13.603C178.561 14.8978 178.191 16.383 177.12 17.28C176.467 17.7919 175.649 18.0479 174.82 18H173V11.64ZM174.58 17C175.206 17.0549 175.827 16.8527 176.3 16.44C176.75 16.0305 177.005 15.4486 177 14.84C177.009 14.2306 176.753 13.6472 176.3 13.24C175.819 12.8447 175.2 12.6575 174.58 12.72H174.26V17H174.58Z"
        fill="#231F20" />
    <rect x="178.85" y="11.63" width="1.25" height="6.42" fill="#231F20" />
    <path
        d="M183.17 14.09C182.42 13.82 182.17 13.63 182.17 13.28C182.17 12.93 182.56 12.57 183.1 12.57C183.494 12.5865 183.86 12.777 184.1 13.09L184.75 12.24C184.237 11.771 183.565 11.5137 182.87 11.52C182.358 11.4871 181.854 11.6651 181.477 12.0126C181.099 12.3601 180.88 12.8469 180.87 13.36C180.87 14.25 181.27 14.7 182.44 15.12C182.741 15.2163 183.032 15.3402 183.31 15.49C183.546 15.6261 183.691 15.8778 183.69 16.15C183.688 16.4068 183.579 16.6511 183.389 16.8239C183.199 16.9967 182.946 17.0823 182.69 17.06C182.107 17.0663 181.574 16.7296 181.33 16.2L180.52 16.98C180.993 17.7803 181.872 18.2508 182.8 18.2C183.377 18.2394 183.944 18.0344 184.363 17.6349C184.781 17.2354 185.013 16.6784 185 16.1C185 15.08 184.59 14.61 183.17 14.09Z"
        fill="#231F20" />
    <path
        d="M185.41 14.84C185.402 15.738 185.757 16.601 186.396 17.2322C187.035 17.8634 187.902 18.209 188.8 18.19C189.345 18.1932 189.884 18.0664 190.37 17.82V16.35C189.992 16.7916 189.441 17.0471 188.86 17.05C188.272 17.0647 187.705 16.8335 187.295 16.4121C186.885 15.9906 186.669 15.4172 186.7 14.83C186.681 14.2582 186.893 13.7029 187.288 13.2891C187.683 12.8753 188.228 12.6377 188.8 12.63C189.403 12.6324 189.975 12.8949 190.37 13.35V11.88C189.899 11.6187 189.369 11.4811 188.83 11.48C187.93 11.4693 187.063 11.818 186.421 12.4487C185.779 13.0794 185.415 13.9401 185.41 14.84Z"
        fill="#231F20" />
    <path d="M200.3 15.94L198.58 11.63H197.22L199.94 18.21H200.61L203.39 11.63H202.03L200.3 15.94Z" fill="#231F20" />
    <path d="M203.95 18.05H207.51V16.96H205.2V15.23H207.42V14.14H205.2V12.72H207.51V11.63H203.95V18.05Z"
        fill="#231F20" />
    <path fill-rule="evenodd" clip-rule="evenodd"
        d="M212.46 13.52C212.528 14.4203 211.892 15.2216 211 15.36L213 18H211.48L209.74 15.46H209.6V18H208.34V11.64H210.18C211.64 11.64 212.46 12.32 212.46 13.52ZM209.6 14.58H210C210.74 14.58 211.18 14.32 211.18 13.64C211.18 12.96 210.76 12.64 210 12.64H209.6V14.58Z"
        fill="#231F20" />
    <path
        d="M197.59 14.84C197.59 16.7233 196.063 18.25 194.18 18.25C192.297 18.25 190.77 16.7233 190.77 14.84C190.77 12.9567 192.297 11.43 194.18 11.43C196.061 11.4355 197.585 12.959 197.59 14.84Z"
        fill="#EE7623" />
    <path fill-rule="evenodd" clip-rule="evenodd"
        d="M213.12 11.76C213.117 11.8286 213.067 11.8863 213 11.9L213.18 12.16H213.02L212.84 11.92V12.16H212.7V11.58H212.9C213.04 11.58 213.12 11.64 213.12 11.76ZM212.98 11.76C212.98 11.7 212.94 11.7 212.88 11.7V11.82H212.9C212.953 11.82 212.972 11.82 212.979 11.8109C212.984 11.803 212.98 11.7881 212.98 11.76Z"
        fill="#231F20" />
    <path fill-rule="evenodd" clip-rule="evenodd"
        d="M212.46 11.86C212.46 11.5915 212.672 11.3707 212.94 11.36C213.076 11.3545 213.208 11.4048 213.307 11.4992C213.405 11.5935 213.46 11.7238 213.46 11.86C213.46 12.1361 213.236 12.36 212.96 12.36C212.684 12.36 212.46 12.1361 212.46 11.86ZM212.94 12.28C213.041 12.2832 213.137 12.2387 213.2 12.16C213.275 12.0778 213.318 11.9712 213.32 11.86C213.32 11.6501 213.15 11.48 212.94 11.48C212.73 11.48 212.56 11.6501 212.56 11.86C212.552 11.9668 212.588 12.0723 212.66 12.1517C212.732 12.2312 212.833 12.2776 212.94 12.28Z"
        fill="#231F20" />
    <rect x="113" y="1" width="48" height="32" rx="4" fill="#3086C8" stroke="#3086C8" />
    <path
        d="M123.848 13L120 21H124.59L125.155 19.7386H126.461L127.026 21H132.075V20.0373L132.534 21H135.146L135.605 20.0041V21H146.127L147.398 19.7718L148.598 21H154L150.152 17.0166L154 13H148.704L147.468 14.2282L146.303 13H134.864L133.875 15.0581L132.887 13H128.297V13.9295L127.803 13C127.767 13 123.848 13 123.848 13ZM124.731 14.1618H126.955L129.497 19.5726V14.1618H131.969L133.946 18.0456L135.747 14.1618H138.183V19.9046H136.7V15.4232L134.546 19.8714H133.205L131.016 15.39V19.8714H127.944L127.379 18.5768H124.237L123.672 19.8714H122.048L124.731 14.1618ZM139.56 14.1618H145.597L147.433 16.0539L149.34 14.1618H151.175L148.351 17.0498L151.175 19.9046H149.234L147.398 18.0124L145.491 19.9046H139.56V14.1618ZM125.826 15.1245L124.802 17.4149H126.849L125.826 15.1245ZM141.043 15.3237V16.3859H144.326V17.5477H141.043V18.6763H144.75L146.48 16.9834L144.82 15.3237H141.043Z"
        fill="white" />
    <rect x="225" y="1" width="48" height="32" rx="4" fill="#006FCF" />
    <path d="M228.65 11.54L229.19 12.86H227.38L227.93 11.54L228.29 10.66L228.65 11.54Z" fill="white" />
    <path fill-rule="evenodd" clip-rule="evenodd"
        d="M266.69 9.9V8.24H270.28V16.4H266.9L265.9 14.82V16.4H261L260.51 15.18H259.39L258.93 16.4H256.06C255.195 16.4217 254.345 16.1621 253.64 15.66V16.4H248.83L247.67 14.94V16.4H229.33L228.87 15.18H227.75L227.28 16.4H225V15.18H226.52L227 14H229.63L230.11 15.14H231.65L229.23 9.5H227.45L225 15.18V12L226.6 8.2H229.86L230.8 10.3V8.2H234.8L235.4 10L236 8.24H253.64V9.06C254.352 8.50384 255.237 8.21382 256.14 8.24H261.48L262.48 10.34V8.24H265.62L266.69 9.9ZM237.59 15.14H238.91V9.5H236.7L235.58 12.76L235.4 13.38L235.22 12.76L234.12 9.5H231.91V15.14H233.22V11.44V10.58L233.5 11.44L234.78 15.14H236L237.33 11.44L237.59 10.58V11.44V15.14ZM244.5 10.7H241.33V11.7H244.42V12.9H241.33V13.9H244.5V15.1H240V9.5H244.5V10.7ZM247.41 13.14L249.09 15.14H250.83L248.95 13.06C249.845 12.9521 250.512 12.1815 250.49 11.28C250.497 10.7661 250.281 10.2745 249.897 9.93278C249.513 9.59111 249 9.43316 248.49 9.5H245.4V15.14H246.79V13.14H247.41ZM252.48 15.14H251.11V9.5H252.48V15.14ZM255.9 15.14H255.98L256.53 13.94H256.1C255.685 13.9613 255.282 13.7972 255 13.492C254.718 13.1868 254.586 12.772 254.64 12.36V12.28C254.592 11.8712 254.727 11.4621 255.008 11.1616C255.29 10.8611 255.689 10.6996 256.1 10.72H257.59V9.5H256C255.253 9.44684 254.52 9.72484 253.996 10.2602C253.473 10.7956 253.211 11.5342 253.28 12.28V12.36C253.196 13.0915 253.44 13.8226 253.945 14.3583C254.449 14.8941 255.165 15.1801 255.9 15.14ZM261.76 15.14L261.28 14H258.61L258.13 15.18H256.67L259.09 9.5H260.89L263.3 15.14H261.76ZM267.35 15.14H268.95L269 9.46H267.6V12.46V13.14L267.22 12.5L265.22 9.5H263.56V15.18H264.9V12.04V11.38L265.26 12L267.35 15.14ZM260.9 12.86L260.36 11.54L260 10.66L259.64 11.54L259.12 12.86H260.9ZM246.79 10.7H248.37C248.547 10.6802 248.724 10.7363 248.858 10.8545C248.991 10.9726 249.068 11.1418 249.07 11.32C249.075 11.5004 249 11.6737 248.865 11.7933C248.73 11.913 248.548 11.9667 248.37 11.94H246.79V10.7Z"
        fill="white" />
    <path fill-rule="evenodd" clip-rule="evenodd"
        d="M273 20.16H270.07C269.568 20.1017 269.065 20.2646 268.693 20.6063C268.32 20.948 268.115 21.4348 268.13 21.94C268.1 22.4069 268.279 22.863 268.619 23.1841C268.96 23.5051 269.426 23.6576 269.89 23.6H271.18C271.382 23.5593 271.59 23.6447 271.704 23.8164C271.819 23.988 271.819 24.212 271.704 24.3836C271.59 24.5553 271.382 24.6407 271.18 24.6H268.29V25.8H271.16C271.954 25.8735 272.699 25.4067 272.98 24.66V26.56C272.434 26.8976 271.802 27.0712 271.16 27.06H255.54L254.38 25.6V27.06H250.95V25C250.464 25.1502 249.958 25.2244 249.45 25.22H248.89V27.06H243.84L243 25.84L242.14 27.06H233.88V18.9H242.16L243 20.1L243.86 18.9H273V20.16ZM272.46 21.36H270C269.798 21.3193 269.59 21.4047 269.476 21.5764C269.361 21.748 269.361 21.972 269.476 22.1436C269.59 22.3153 269.798 22.4007 270 22.36H271.31C272.002 22.2889 272.662 22.6671 272.95 23.3V20.2L272.46 21.36ZM239.71 21.36H236.54V22.36H239.65V23.54H236.54V24.54H239.71V25.74H235.18V20.16H239.71V21.36ZM243 24L244.36 25.8L246.08 25.84L243.8 23L246.04 20.16H244.38L243 21.94L241.63 20.18H239.93L242.2 23L240 25.8H241.59L243 24ZM249.36 23.94H247.66V25.8H246.32V20.16H249.43C249.954 20.1041 250.477 20.2798 250.861 20.641C251.246 21.0022 251.453 21.5131 251.43 22.04C251.447 22.574 251.233 23.0895 250.842 23.4537C250.451 23.8178 249.921 23.9952 249.39 23.94H249.36ZM254.07 23.8L255.75 25.8H257.49L255.6 23.72C256.236 23.645 256.784 23.2364 257.037 22.6481C257.29 22.0599 257.209 21.3813 256.827 20.8681C256.444 20.3549 255.816 20.085 255.18 20.16H252.12V25.8H253.45V23.8H254.07ZM262.33 21.36H259.19V22.36H262.28V23.54H259.19V24.54H262.36V25.74H257.81V20.16H262.36L262.33 21.36ZM263.08 25.8H266C266.497 25.8401 266.987 25.6666 267.348 25.3229C267.709 24.9793 267.906 24.4981 267.89 24C267.915 23.5378 267.733 23.0885 267.392 22.7749C267.051 22.4614 266.589 22.3166 266.13 22.38H264.82C264.618 22.4207 264.41 22.3353 264.296 22.1636C264.181 21.992 264.181 21.768 264.296 21.5964C264.41 21.4247 264.618 21.3393 264.82 21.38H267.25L267.79 20.18H264.86C264.361 20.1222 263.862 20.2825 263.491 20.6197C263.119 20.9569 262.911 21.4382 262.92 21.94C262.89 22.4069 263.069 22.863 263.409 23.1841C263.75 23.5051 264.216 23.6576 264.68 23.6H266C266.202 23.5593 266.41 23.6447 266.524 23.8164C266.639 23.988 266.639 24.212 266.524 24.3836C266.41 24.5553 266.202 24.6407 266 24.6H263.08V25.8ZM255.06 21.36H253.48V22.6H255.06C255.238 22.6267 255.42 22.573 255.555 22.4533C255.69 22.3337 255.765 22.1604 255.76 21.98C255.762 21.8007 255.685 21.6296 255.551 21.5107C255.417 21.3918 255.238 21.3369 255.06 21.36ZM247.69 21.36H249.31C249.691 21.36 250 21.6689 250 22.05C250 22.4311 249.691 22.74 249.31 22.74H247.69V21.36Z"
        fill="white" />
    <rect x="57" y="1" width="48" height="32" rx="4" fill="white" stroke="#E0E0E0" />
    <path
        d="M69.9992 28.8808V27.2922C69.9992 26.6833 69.603 26.2862 68.9239 26.2862C68.5843 26.2862 68.2164 26.3921 67.9617 26.7363C67.7636 26.445 67.4807 26.2862 67.0562 26.2862C66.7732 26.2862 66.4902 26.3656 66.2638 26.6568V26.3391H65.6696V28.8808H66.2638V27.4776C66.2638 27.0275 66.5185 26.8157 66.9147 26.8157C67.3109 26.8157 67.509 27.054 67.509 27.4776V28.8808H68.1032V27.4776C68.1032 27.0275 68.3862 26.8157 68.7541 26.8157C69.1503 26.8157 69.3483 27.054 69.3483 27.4776V28.8808H69.9992ZM78.7999 26.3391H77.8378V25.5713H77.2435V26.3391H76.7058V26.8422H77.2435V28.0071C77.2435 28.5895 77.4982 28.9337 78.1774 28.9337C78.432 28.9337 78.715 28.8543 78.9131 28.7484L78.7433 28.2718C78.5735 28.3777 78.3754 28.4042 78.2339 28.4042C77.951 28.4042 77.8378 28.2454 77.8378 27.9806V26.8422H78.7999V26.3391ZM83.837 26.2862C83.4974 26.2862 83.271 26.445 83.1295 26.6568V26.3391H82.5353V28.8808H83.1295V27.4511C83.1295 27.0275 83.3276 26.7892 83.6955 26.7892C83.8087 26.7892 83.9502 26.8157 84.0634 26.8422L84.2331 26.3127C84.12 26.2862 83.9502 26.2862 83.837 26.2862ZM76.2248 26.5509C75.9418 26.3656 75.5456 26.2862 75.1212 26.2862C74.442 26.2862 73.9892 26.6039 73.9892 27.1069C73.9892 27.5305 74.3288 27.7688 74.9231 27.8482L75.206 27.8747C75.5173 27.9277 75.6871 28.0071 75.6871 28.1395C75.6871 28.3248 75.4607 28.4572 75.0646 28.4572C74.6684 28.4572 74.3571 28.3248 74.159 28.1924L73.876 28.616C74.1873 28.8278 74.6118 28.9337 75.0363 28.9337C75.8286 28.9337 76.2814 28.5895 76.2814 28.113C76.2814 27.6629 75.9135 27.4246 75.3475 27.3452L75.0646 27.3187C74.8099 27.2922 74.6118 27.2393 74.6118 27.0804C74.6118 26.8951 74.8099 26.7892 75.1212 26.7892C75.4607 26.7892 75.8003 26.9216 75.9701 27.001L76.2248 26.5509ZM92.0151 26.2862C91.6755 26.2862 91.4492 26.445 91.3077 26.6568V26.3391H90.7134V28.8808H91.3077V27.4511C91.3077 27.0275 91.5058 26.7892 91.8736 26.7892C91.9868 26.7892 92.1283 26.8157 92.2415 26.8422L92.4113 26.3127C92.2981 26.2862 92.1283 26.2862 92.0151 26.2862ZM84.4312 27.6099C84.4312 28.3777 84.9972 28.9337 85.8744 28.9337C86.2706 28.9337 86.5536 28.8543 86.8366 28.6425L86.5536 28.1924C86.3272 28.3513 86.1008 28.4307 85.8461 28.4307C85.3651 28.4307 85.0255 28.113 85.0255 27.6099C85.0255 27.1334 85.3651 26.8157 85.8461 26.7892C86.1008 26.7892 86.3272 26.8686 86.5536 27.0275L86.8366 26.5774C86.5536 26.3656 86.2706 26.2862 85.8744 26.2862C84.9972 26.2862 84.4312 26.8422 84.4312 27.6099ZM89.9211 27.6099V26.3391H89.3268V26.6568C89.1287 26.4186 88.8457 26.2862 88.4779 26.2862C87.7138 26.2862 87.1196 26.8422 87.1196 27.6099C87.1196 28.3777 87.7138 28.9337 88.4779 28.9337C88.874 28.9337 89.157 28.8013 89.3268 28.5631V28.8808H89.9211V27.6099ZM87.7421 27.6099C87.7421 27.1599 88.0534 26.7892 88.5628 26.7892C89.0438 26.7892 89.3834 27.1334 89.3834 27.6099C89.3834 28.06 89.0438 28.4307 88.5628 28.4307C88.0534 28.4042 87.7421 28.06 87.7421 27.6099ZM80.6393 26.2862C79.8469 26.2862 79.281 26.8157 79.281 27.6099C79.281 28.4042 79.8469 28.9337 80.6676 28.9337C81.0638 28.9337 81.4599 28.8278 81.7712 28.5895L81.4882 28.1924C81.2618 28.3513 80.9789 28.4572 80.6959 28.4572C80.328 28.4572 79.9601 28.2983 79.8752 27.8482H81.8844V27.6364C81.9127 26.8157 81.4033 26.2862 80.6393 26.2862ZM80.6393 26.7627C81.0072 26.7627 81.2618 26.9745 81.3184 27.3717H79.9035C79.9601 27.0275 80.2148 26.7627 80.6393 26.7627ZM95.3826 27.6099V25.3331H94.7883V26.6568C94.5903 26.4186 94.3073 26.2862 93.9394 26.2862C93.1754 26.2862 92.5811 26.8422 92.5811 27.6099C92.5811 28.3777 93.1754 28.9337 93.9394 28.9337C94.3356 28.9337 94.6186 28.8013 94.7883 28.5631V28.8808H95.3826V27.6099ZM93.2036 27.6099C93.2036 27.1599 93.5149 26.7892 94.0243 26.7892C94.5054 26.7892 94.8449 27.1334 94.8449 27.6099C94.8449 28.06 94.5054 28.4307 94.0243 28.4307C93.5149 28.4042 93.2036 28.06 93.2036 27.6099ZM73.3384 27.6099V26.3391H72.7441V26.6568C72.546 26.4186 72.263 26.2862 71.8952 26.2862C71.1311 26.2862 70.5369 26.8422 70.5369 27.6099C70.5369 28.3777 71.1311 28.9337 71.8952 28.9337C72.2913 28.9337 72.5743 28.8013 72.7441 28.5631V28.8808H73.3384V27.6099ZM71.1311 27.6099C71.1311 27.1599 71.4424 26.7892 71.9518 26.7892C72.4328 26.7892 72.7724 27.1334 72.7724 27.6099C72.7724 28.06 72.4328 28.4307 71.9518 28.4307C71.4424 28.4042 71.1311 28.06 71.1311 27.6099Z"
        fill="black" />
    <path d="M84.9406 7.0386H76.0267V22.0236H84.9406V7.0386Z" fill="#FF5F00" />
    <path
        d="M76.5927 14.5311C76.5927 11.4864 78.1208 8.78595 80.4695 7.03858C78.7433 5.76776 76.5644 4.99998 74.1873 4.99998C68.556 4.99998 64 9.26251 64 14.5311C64 19.7997 68.556 24.0622 74.1873 24.0622C76.5644 24.0622 78.7433 23.2945 80.4695 22.0236C78.1208 20.3027 76.5927 17.5758 76.5927 14.5311Z"
        fill="#EB001B" />
    <path
        d="M96.9673 14.5311C96.9673 19.7997 92.4113 24.0623 86.78 24.0623C84.4029 24.0623 82.224 23.2945 80.4978 22.0237C82.8748 20.2763 84.3746 17.5758 84.3746 14.5311C84.3746 11.4865 82.8465 8.78598 80.4978 7.0386C82.224 5.76779 84.4029 5 86.78 5C92.4113 5 96.9673 9.28901 96.9673 14.5311Z"
        fill="#F79E1B" />
</svg>