<svg width="19" height="18" viewBox="0 0 19 18" fill="none" xmlns="http://www.w3.org/2000/svg">
<path d="M8.95314 0.0488199C8.68802 0.132763 8.48366 0.272668 7.29616 1.21283L6.21913 2.05786H2.09879V5.29805L1.33658 5.89685C0.922334 6.22702 0.568846 6.50683 0.557799 6.51802C0.502567 6.56279 1.16536 7.18397 1.90547 7.79396L2.67873 8.43192L2.6953 5.57786L2.70634 2.7294H16.2383V5.47154C16.2383 7.48057 16.2549 8.21367 16.2991 8.21367C16.4648 8.21367 18.2819 6.60197 18.2819 6.45647C18.2819 6.42289 17.9726 6.15427 17.5915 5.86327L16.9066 5.33163L16.9011 3.69194V2.05786H12.7642L11.6209 1.16246C10.9967 0.664402 10.3781 0.21111 10.2511 0.143955C9.99151 0.00405036 9.26244 -0.0463154 8.95314 0.0488199Z" fill="#FA9F00"/>
<path d="M8.90899 4.91733C8.13021 5.01247 7.42876 5.34824 7.08079 5.79034C6.32411 6.75848 6.47323 8.66679 7.36248 9.34952C8.17992 9.98189 9.69329 10.1218 11.052 9.69089C11.7148 9.47824 11.991 9.2376 11.8197 9.02494C11.7203 8.90742 11.6043 8.91862 11.2011 9.10329C10.6046 9.3831 10.2014 9.46704 9.49998 9.46704C7.843 9.46704 7.10841 8.75073 7.19678 7.22297C7.2741 5.92465 7.9866 5.35943 9.55521 5.35943C10.7924 5.35943 11.516 5.73997 11.7369 6.50106C11.8474 6.87041 11.8474 7.77139 11.7369 7.98965C11.6319 8.19671 11.3558 8.29744 11.1128 8.2079C10.82 8.10717 10.7703 7.93368 10.7703 7.01031V6.19886L10.6322 6.13171C10.4831 6.06455 10.218 6.1429 10.218 6.25482C10.218 6.2884 10.1131 6.25482 9.98602 6.18767C9.6491 6.01419 9.07468 6.01978 8.70463 6.19886C7.96451 6.56262 7.77672 7.72103 8.36218 8.37019C8.76538 8.82348 9.66015 8.89063 10.2346 8.51569C10.4445 8.37578 10.4445 8.37578 10.5936 8.48771C11.1349 8.87385 12.0131 8.71715 12.2561 8.19111C12.3942 7.89451 12.4439 7.20618 12.3721 6.71931C12.2671 6.02538 11.9302 5.53292 11.3779 5.24751C10.8311 4.9677 9.71538 4.8166 8.90899 4.91733ZM9.80375 6.61298C10.091 6.7361 10.1904 6.93756 10.1904 7.40205C10.1904 7.88332 10.0744 8.11276 9.76509 8.24148C9.0305 8.53807 8.44503 8.00084 8.58864 7.15581C8.63282 6.89839 8.87032 6.61298 9.07468 6.57381C9.33428 6.52344 9.62149 6.54023 9.80375 6.61298Z" fill="#FA9F00"/>
<path d="M18.5305 7.32387C17.818 8.05697 15.6529 9.73583 13.0459 11.5714C12.5875 11.896 12.2174 12.1814 12.2285 12.2149C12.2451 12.2765 18.8951 17.6097 18.9613 17.6097C18.9834 17.6153 19 15.2089 19 12.2709C19 9.3329 18.9834 6.92653 18.9558 6.92653C18.9337 6.92653 18.7404 7.10561 18.5305 7.32387Z" fill="#FA9F00"/>
<path d="M0 12.2655C0 16.401 0.0165697 17.4475 0.0718022 17.414C0.132558 17.3748 1.76192 16.0765 5.37964 13.1944C6.01482 12.6852 6.534 12.2431 6.534 12.2151C6.534 12.1815 5.69999 11.5547 4.67819 10.816C2.33633 9.12039 1.15988 8.20821 0.513662 7.57584L0 7.08337V12.2655Z" fill="#FA9F00"/>
<path d="M3.89386 15.3376L0.585429 17.979L4.98746 17.9958C7.40664 18.0014 11.3668 18.0014 13.7915 17.9958L18.188 17.979L14.9624 15.4104C13.1895 13.9945 11.6927 12.8025 11.6375 12.7522C11.5712 12.6962 11.5104 12.685 11.4607 12.7186C10.2235 13.5916 9.94734 13.7147 9.31216 13.6867C8.78193 13.6643 8.3953 13.5021 7.7049 12.9984C7.47292 12.8305 7.26856 12.6906 7.24647 12.6906C7.22437 12.6906 5.71653 13.8826 3.89386 15.3376Z" fill="#FA9F00"/>
</svg>
