<svg height="512" fill="#0055AA"  viewBox="0 0 56 55" width="512" xmlns="http://www.w3.org/2000/svg"><g id="Page-1" fill="#0055AA" fill-rule="evenodd"><g id="021---Lightweight-Fabric" fill="rgb(0,0,0)" fill-rule="nonzero"><path fill="#0055AA" id="Shape" d="m3.117 52.426-2.979 2.384c.45053279-4.642387 1.72443108-9.1674011 3.762-13.363 3.47-6.947 17.628-23.354 30.346-29.302-6.931 4.945-19.8 15.732-28.141 32.408-1.23872295 2.525678-2.23905943 5.1614374-2.988 7.873zm48.083-42.026c-1.456 1.936-2.836 3.66-4.145 5.2-2.9365784.894113-5.9855145 1.3655111-9.055 1.4-.5522847 0-1 .4477153-1 1s.4477153 1 1 1c2.2423727-.0148042 4.4772238-.2611103 6.669-.735-1.3120104 1.4271877-2.7398835 2.7433463-4.269 3.935-3.567 2.677-11.082.848-11.158.83-.4105224-.1022754-.8409853.0648563-1.0749369.4173553-.2339515.352499-.2207618.8140803.0329369 1.1526447 1.9105444 2.2909716 4.6112508 3.7815703 7.568 4.177-3.5476596 3.323092-7.2906592 6.4312945-11.209 9.308-6.282 1.732-9.814-.78-9.959-.885-.3322431-.2493388-.7840357-.2673148-1.1350386-.045161-.3510029.2221537-.5281161.6381713-.4449614 1.045161.292674 1.8741517 1.3047091 3.5602788 2.821 4.7-2.2872472.6726513-4.6703679.9605723-7.052.852 6.5014684-11.8708426 15.6010194-22.1193321 26.619-29.98.8541908-.5878656 1.1023249-1.739541.566-2.627-.5145453-.9116756-1.6500947-1.26491866-2.591-.806-12.2 5.708-24.805 19.818-29.816 27.685-1.106-9.46 1.957-14.216 3.763-16.124.63316419 1.5866476 1.71579001 2.9539189 3.115 3.934.3071573.2049327.7022489.2239265 1.0276483.0494036s.528146-.514158.5273517-.8834036c0-3.453 1.585-10.171 1.912-11.52.8786959-.9708573 1.8058775-1.896704 2.778-2.774-.4454341 1.7298472-.6771618 3.5077699-.69 5.294 0 .5522847.4477153 1 1 1s1-.4477153 1-1c.043048-2.6118469.5579981-5.1943894 1.52-7.623 2.5939096-1.95566903 5.399949-3.61279213 8.365-4.94-.3626327.74361701-.6494146 1.52188126-.856 2.323-.1325483.53626848.1947315 1.07845162.731 1.21099996.5362685.13254833 1.0784516-.19473149 1.211-.73099996.4082391-1.43476001 1.0541973-2.79090029 1.911-4.012 3.8825534-1.42889674 7.981106-2.1824514 12.118-2.228 7.277 0 11.268 1.642 12.737 2.412-1.2260277 2.81540198-2.7468465 5.49300845-4.537 7.988z"/></g></g></svg>