<svg fill="#0055AA" id="bold" enable-background="new 0 0 24 24" height="512" viewBox="0 0 24 24" width="512" xmlns="http://www.w3.org/2000/svg"><path d="m12.318 6.343c.53.165 1.088-.132 1.251-.659s-.132-1.088-.659-1.251c-.927-.287-1.906-.433-2.91-.433-5.514 0-10 4.486-10 10s4.486 10 10 10 10-4.486 10-10c0-1.005-.146-1.984-.434-2.911-.163-.527-.723-.823-1.252-.659-.527.164-.822.724-.658 1.251.072.232.113.476.163.716l-4.414-.368-2.81-2.408.702-3.51c.348.058.69.13 1.021.232zm-.494 6.966-.554 1.525-1.394.174c-.548.068-.937.568-.868 1.116.069.553.575.937 1.116.868l1.263-.158.699 1.572c.226.507.82.732 1.32.507.505-.224.731-.815.508-1.32l-.836-1.882.601-1.652 4.301.358c-.221 4.218-3.71 7.583-7.98 7.583-4.411 0-8-3.589-8-8 0-4.166 3.202-7.594 7.273-7.963l-.593 2.963h-1.68c-.431 0-.812.275-.948.684l-1 3c-.175.524.108 1.09.632 1.265.529.176 1.092-.114 1.265-.632l.772-2.317h1.41z"/><path d="m19.507.138c-.477-.281-1.089-.12-1.369.355l-2.5 4.25c-.034.057-.041.12-.062.181-.355.431-.576.976-.576 1.576 0 1.378 1.121 2.5 2.5 2.5.601 0 1.145-.222 1.577-.576.06-.021.123-.029.18-.062l4.25-2.5c.477-.28.635-.893.355-1.369s-.893-.635-1.369-.355l-2.639 1.552c-.25-.725-.819-1.294-1.544-1.544l1.553-2.639c.279-.476.12-1.089-.356-1.369z"/><path d="m22.293.293-2 2c-.391.391-.391 1.023 0 1.414s1.023.391 1.414 0l2-2c.391-.391.391-1.023 0-1.414s-1.023-.391-1.414 0z"/></svg>