<svg id="Icons" height="512" viewBox="0 0 24 24" width="512" xmlns="http://www.w3.org/2000/svg"><path d="m3.615 6.256 8 3.333a.989.989 0 0 0 .77 0l8-3.333a1 1 0 0 0 0-1.845l-8-3.334a1.007 1.007 0 0 0 -.77 0l-8 3.334a1 1 0 0 0 0 1.845zm8.385-3.173 5.4 2.25-5.4 2.25-5.4-2.25z"/><path d="m20.923 9.393a1 1 0 0 0 -1.308-.538l-7.615 3.173-7.615-3.173a1 1 0 1 0 -.77 1.846l8 3.333a1 1 0 0 0 .77 0l8-3.333a1 1 0 0 0 .538-1.308z"/><path d="m19.615 13.3-7.615 3.172-7.615-3.172a1 1 0 1 0 -.77 1.846l8 3.334a1 1 0 0 0 .77 0l8-3.334a1 1 0 1 0 -.77-1.846z"/><path d="m3.615 19.589 8 3.334a1 1 0 0 0 .77 0l8-3.334a1 1 0 1 0 -.77-1.845l-7.615 3.173-7.615-3.173a1 1 0 1 0 -.77 1.845z"/></svg>