<?xml version="1.0" encoding="utf-8"?>
<!-- Generator: Adobe Illustrator 22.1.0, SVG Export Plug-In . SVG Version: 6.00 Build 0)  -->
<svg version="1.1" id="Layer_1" xmlns="http://www.w3.org/2000/svg" xmlns:xlink="http://www.w3.org/1999/xlink" x="0px" y="0px"
	 viewBox="0 0 309 32.1" style="enable-background:new 0 0 309 32.1;" xml:space="preserve">
<style type="text/css">
	.st0{fill:#1F9FFF;}
	.st1{fill:#0055AA;}
</style>
<path class="st0" d="M35.7,3.5c-0.1-0.3,0-0.4,0.3-0.4h3.6c0.1,0,0.3,0.1,0.4,0.2l8.6,21.1l8.6-21.1c0-0.1,0.2-0.2,0.4-0.2h3.6
	c0.3,0,0.4,0.1,0.3,0.4L51.1,28.8c-0.1,0.2-0.3,0.3-0.6,0.3h-3.9c-0.2,0-0.4-0.1-0.6-0.3L35.7,3.5z"/>
<path class="st0" d="M70.3,28.7c0,0.2-0.1,0.3-0.4,0.3h-3.4c-0.2,0-0.3-0.1-0.3-0.3V3.3c0-0.2,0.1-0.3,0.3-0.3h3.4
	c0.2,0,0.4,0.1,0.4,0.3V28.7z"/>
<path class="st0" d="M76.1,25.7l1.7-2.8c0.1-0.1,0.2-0.2,0.3-0.2s0.1,0,0.3,0.1c1,0.8,4,2.6,7.9,2.6c3.2,0,5.4-1.4,5.4-3.6
	c0-1.8-1.5-3-6.2-3.9c-6.4-1.2-9.1-3.6-9.3-7.8c-0.1-4.4,3.9-7.7,9.8-7.6c4.7,0,7.6,1.9,8.4,2.5c0.1,0.1,0.2,0.3,0.1,0.6l-1.3,2.9
	c-0.1,0.1-0.1,0.2-0.3,0.2c-0.1,0-0.1,0-0.3-0.1c-0.9-0.7-3.3-2.1-6.7-2.1c-3.2,0-5.5,1.5-5.5,3.5c0,2,1.4,3,6.4,4.1
	c6.2,1.4,9,3.4,9.1,7.5c0.1,4.6-3.5,7.8-9.9,7.8c-5.5,0-8.9-2.3-9.8-3.2C76.1,26.1,76,25.9,76.1,25.7z"/>
<path class="st0" d="M105.9,28.7c0,0.2-0.1,0.3-0.4,0.3H102c-0.2,0-0.3-0.1-0.3-0.3V3.3c0-0.2,0.1-0.3,0.3-0.3h3.4
	c0.2,0,0.4,0.1,0.4,0.3V28.7z"/>
<path class="st0" d="M126.1,2.7c8.6,0,14.3,5.4,14.3,13.3c0,8-5.7,13.3-14.3,13.3S111.6,24,111.6,16C111.6,8.1,117.4,2.7,126.1,2.7z
	 M126.1,25.6c6.1,0,10.1-3.9,10.1-9.5s-4.1-9.5-10.1-9.5c-6.2,0-10.3,3.7-10.3,9.5S119.9,25.6,126.1,25.6z"/>
<path class="st0" d="M168.4,3c0.2,0,0.4,0.1,0.4,0.3v25.2c0,0.2-0.1,0.3-0.3,0.3h-4c-0.1,0-0.3-0.1-0.4-0.2L150.4,9.1v19.4
	c0,0.2-0.1,0.3-0.4,0.3h-3.4c-0.2,0-0.4-0.1-0.4-0.3v-25c0-0.2,0.1-0.3,0.4-0.3c1.1,0,3,0,4,0c0.3,0,0.4,0.1,0.4,0.2l13.6,19.5V3.4
	c0-0.2,0.1-0.3,0.4-0.3h3.4V3z"/>
<path class="st1" d="M181.7,28.6c0,0.3-0.1,0.4-0.4,0.4h-5.4c-0.2,0-0.4-0.1-0.4-0.3V3.4c0-0.2,0.1-0.3,0.4-0.3h16.3
	c0.2,0,0.4,0.1,0.4,0.3v4.9c0,0.2-0.1,0.3-0.4,0.3h-10.6v4.5h8.6c0.2,0,0.4,0.1,0.4,0.3v4.6c0,0.2-0.1,0.3-0.4,0.3h-8.6v10.1H181.7z
	"/>
<path class="st1" d="M210.3,2.7c8.6,0,14.4,5.4,14.4,13.3c0,8-5.7,13.3-14.4,13.3c-8.6,0-14.4-5.3-14.4-13.3
	C196,8.1,201.7,2.7,210.3,2.7z M210.3,23.6c4.9,0,8.2-3.1,8.2-7.6s-3.3-7.6-8.2-7.6c-5,0-8.3,3.1-8.3,7.6S205.3,23.6,210.3,23.6z"/>
<path class="st1" d="M242.6,29.5c-8.6,0-14.3-5.4-14.3-13.3c0-8.9,7.2-13.3,14.3-13.3c3.7,0,7.3,1.1,10,3.5c0.1,0.1,0.1,0.3,0,0.4
	l-3,4c0,0.1-0.1,0.1-0.2,0.1s-0.2,0-0.3-0.1c-1.5-1.3-3.6-2.2-6.5-2.2c-4.9,0-8.2,3.1-8.2,7.7c0,4.5,3.2,7.6,8.2,7.6
	c2.6,0,4.9-1,6.5-2.2c0.1-0.1,0.2-0.1,0.3-0.1c0.1,0,0.2,0,0.3,0.1l3.1,4c0.1,0.2,0.2,0.3,0,0.6C250,28.3,246.3,29.5,242.6,29.5z"/>
<path class="st1" d="M257.5,3.4c0-0.2,0.1-0.3,0.4-0.3h5.4c0.2,0,0.3,0.1,0.3,0.3v15.4c0,2.9,2,4.7,5.1,4.7c3,0,5-1.9,5-4.7V3.4
	c0-0.2,0.1-0.3,0.4-0.3h5.4c0.2,0,0.4,0.1,0.4,0.3v15.4c0,6.9-5.4,10.5-11.2,10.5c-5.8,0-11.2-3.5-11.2-10.5V3.4z"/>
<path class="st1" d="M285,25.8l2.6-4.4c0.1-0.1,0.2-0.2,0.3-0.2s0.2,0,0.3,0.1c1,0.8,4.3,2.4,7.6,2.4c2.1,0,4.1-0.7,4.1-2.1
	c0-0.9-0.7-2.1-4.9-2.8c-6.5-1-9.9-3.2-10-7.8c-0.1-4.9,4-8.4,10.6-8.4c4.7,0,8.2,1.9,8.9,2.5c0.1,0.1,0.2,0.3,0.1,0.6l-2.1,4.5
	c-0.1,0.1-0.1,0.2-0.2,0.2c-0.1,0-0.2,0-0.3-0.1c-1.1-0.7-3.3-2-6.6-2c-2.5,0-4.2,1-4.2,2.1c0,1.3,1.4,1.8,5,2.5
	c6.4,1.3,9.8,3.4,10,8.4c0.1,4.6-4.2,8-10.8,8c-5.2,0-9.4-2.3-10.3-3.2C284.9,26.1,284.8,26,285,25.8z"/>
<g>
	<path class="st0" d="M25.6,16c0,3.4-2.2,6.4-5.6,7.5c-3.2,1-6.7-0.2-8.6-3c-1.2-1.7-1.6-3.7-1.3-5.8c0-0.3,0.1-0.4,0.5-0.4
		c2.2,0.1,3.6-2,2.7-4c-0.2-0.4-0.1-0.5,0.2-0.8c3.4-2.4,8.5-1.4,10.8,2.1C25.2,13.1,25.6,14.4,25.6,16z"/>
</g>
<path class="st1" d="M17.9,2.8C10.5,2.8,4.6,8.7,4.6,16s5.9,13.3,13.3,13.3c7.2,0.1,13.2-5.9,13.2-13C31.1,8.8,25.3,2.8,17.9,2.8z
	 M17.8,26c-5.5,0-9.9-4.4-9.9-9.9c0-5.5,4.4-9.9,9.9-9.9c5.5,0,9.9,4.4,9.9,9.9C27.7,21.5,23.3,26,17.8,26z"/>
</svg>
