<svg xmlns="http://www.w3.org/2000/svg" width="1868.909" height="1064" viewBox="0 0 1868.909 1064">
  <metadata><?xpacket begin="﻿" id="W5M0MpCehiHzreSzNTczkc9d"?>
<x:xmpmeta xmlns:x="adobe:ns:meta/" x:xmptk="Adobe XMP Core 5.6-c142 79.160924, 2017/07/13-01:06:39        ">
   <rdf:RDF xmlns:rdf="http://www.w3.org/1999/02/22-rdf-syntax-ns#">
      <rdf:Description rdf:about=""/>
   </rdf:RDF>
</x:xmpmeta>
                                                                                                    
                                                                                                    
                                                                                                    
                                                                                                    
                                                                                                    
                                                                                                    
                                                                                                    
                                                                                                    
                                                                                                    
                                                                                                    
                                                                                                    
                                                                                                    
                                                                                                    
                                                                                                    
                                                                                                    
                                                                                                    
                                                                                                    
                                                                                                    
                                                                                                    
                                                                                                    
                           
<?xpacket end="w"?></metadata>
<defs>
    <style>
      .cls-1 {
        fill: #fff;
        fill-rule: evenodd;
        opacity: 0.12;
      }
    </style>
  </defs>
  <path class="cls-1" d="M1717.83,335.831q-3.57,1.788-7.17,3.471c0.88-.593,1.77-1.183,2.64-1.8,1.51-.545,3.02-1.113,4.53-1.672m-12.73,4.6c-2.67,1.714-5.39,3.38-8.13,4.992-4.57,1.927-9.18,3.766-13.81,5.556q3.465-2.617,6.82-5.406,7.575-2.516,15.12-5.142m-20.97,7.083q-4.26,3.317-8.66,6.38-9.015,3.358-18.07,6.522,3.54-3.1,6.96-6.409c3.4-1.123,6.82-2.253,10.2-3.354q4.77-1.563,9.57-3.139m-3.47,6.746c-2.14,1.067-4.28,2.134-6.45,3.159,0.77-.525,1.53-1.076,2.29-1.609,1.38-.517,2.77-1.028,4.16-1.55m-21.07,1.317c-2.54,2.341-5.12,4.614-7.75,6.791q-3.39,1.175-6.78,2.356c-4.9,1.7-9.85,3.425-14.81,5.173,1.98-2,3.93-4.047,5.82-6.161q11.73-4.252,23.52-8.159m-28.02,9.836q-3.045,3.214-6.2,6.241c-8.37,2.994-16.72,6.116-24.98,9.425l0.91-1c1.03-1.175,2.01-2.376,3.01-3.565,0.79-.352,1.59-0.763,2.38-1.112,8.1-3.607,16.45-6.863,24.88-9.993m36.29-6.439q-3.915,2.5-7.92,4.853-6.75,2.886-13.57,5.579,3.3-2.49,6.53-5.131,7.47-2.606,14.96-5.3m-21.15,7.452q-4.11,3.168-8.35,6.113-9.165,3.525-18.32,6.891c2.21-1.9,4.37-3.885,6.51-5.917,6.43-2.3,12.86-4.55,19.22-6.758l0.94-.329m-4.16,6.806c-1.63.814-3.27,1.6-4.9,2.386,0.57-.388,1.15-0.769,1.72-1.16,1.06-.409,2.12-0.812,3.18-1.226m-42.9,5.471c-1.26,1.434-2.55,2.807-3.84,4.184-5.25,2.165-10.44,4.412-15.54,6.785q-6.855,3.214-13.8,6.749c0.34-.4.67-0.809,1.01-1.212q16.23-9.067,32.17-16.506m21.64-3.278q-3.6,3.245-7.33,6.267c-7.35,2.718-14.76,5.5-22.16,8.369,1.79-1.743,3.55-3.528,5.28-5.375,7.97-3.278,16.08-6.309,24.21-9.261m8.84,2.543c-2.36,1.49-4.75,2.94-7.15,4.357q-6.9,3-13.84,5.851c1.99-1.49,3.97-3.028,5.92-4.6,0.64-.238,1.29-0.483,1.93-0.724q6.555-2.423,13.14-4.887M1562,398.241l-0.92,1.027c-2.54,1.331-5.08,2.656-7.64,4.047,2.85-1.7,5.71-3.44,8.56-5.074m29.86-11.278q-2.64,2.634-5.36,5.148-13.35,5.279-26.3,11.289c0.75-.789,1.49-1.6,2.22-2.407,6.29-3.3,12.56-6.47,18.77-9.373,3.5-1.629,7.09-3.133,10.67-4.657m16.48-.889q-3.78,2.849-7.67,5.534-6.42,2.575-12.81,5.094c-1.99.792-4.02,1.6-6.02,2.393q2.955-2.495,5.82-5.128c6.89-2.725,13.8-5.336,20.68-7.893m-4.27,6.493c-1.11.559-2.24,1.1-3.36,1.644l1.01-.7c0.79-.315,1.57-0.622,2.35-0.94m-47.58,11.568c-0.57.582-1.13,1.178-1.7,1.751l-0.05.017c-5.65,2.778-11.3,5.747-16.95,8.8,6.26-3.706,12.49-7.208,18.7-10.568m25.21-7.742q-3.18,2.742-6.47,5.333-11.55,4.626-23.05,9.64c1.3-1.215,2.6-2.429,3.87-3.695,8.34-4.05,16.96-7.745,25.65-11.278m10.06,1.087q-3.315,2.068-6.68,4.05-7.05,3.158-14.13,6.192c1.81-1.339,3.59-2.71,5.37-4.106,4.12-1.655,8.24-3.29,12.33-4.9,1.03-.415,2.07-0.823,3.11-1.232M1562.88,413.5l-0.34.17,0.09-.065,0.25-.105m-13.51-2.435c-1.13,1.044-2.29,2.043-3.44,3.051-5.65,2.565-11.25,5.2-16.73,8.023-1.56.809-3.13,1.685-4.7,2.514q12.375-7.233,24.87-13.588m19.26-4.325q-3.5,2.555-7.06,4.975c-0.81.343-1.63,0.69-2.44,1.036-5.52,2.338-11.09,4.719-16.67,7.137,1.57-1.282,3.11-2.6,4.65-3.939,7.11-3.215,14.31-6.26,21.52-9.209m-17.79,11.882q-2.79,1.7-5.59,3.355-6.735,3.129-13.45,6.178c1.34-.979,2.66-1.967,3.98-2.971q7.545-3.351,15.06-6.562m-11.31.892c-1.61,1.294-3.22,2.559-4.86,3.805q-12.33,5.491-24.34,11.63c6.62-3.817,13.25-7.5,19.85-10.9,3.07-1.575,6.22-3.042,9.35-4.537m-13.57,10.168c-1.69,1.178-3.38,2.344-5.09,3.479q-10.095,4.637-20.17,9.567l0.89-.721c1.03-.57,2.06-1.18,3.09-1.737,6.93-3.754,14.08-7.225,21.28-10.588m-20.33,13c-0.53.313-1.05,0.628-1.58,0.94-0.81.4-1.63,0.809-2.45,1.209q-5.445,2.682-10.95,5.423l0.17-.128q7.335-3.836,14.81-7.444M1347.89,59.526c39.57-10.6,83.6-14.768,122.45-10.506,24.35,9.774,38.73,29.254,46.51,43.886,9.21,17.309,14.16,35.44,18.74,57.344,1.61,7.631,3.05,15.54,4.45,23.189l0.58,3.2c26.19,142.95-14.33,212.871-47.08,253.022-22.46,27.542-50.82,45.714-78.26,63.292-13.09,8.389-26.62,17.062-39.36,26.645-12.15,9.15-23.66,18.529-34.21,27.895-34.07,30.235-62.67,65.539-80.53,99.382-32.99,62.1-50.51,126.858-65.97,184q-2.7,10.026-5.39,19.837c-13.66,49.795-52.07,107-119.69,125.117q-6.9,1.856-14.21,3.144c-16.51,2.909-31.79,4.615-45.84,6.025-57.793,5.713-115.281-2.25-170.871-9.947-36.617-5.071-74.487-10.316-112.561-11.743-21.444-.812-43.895-0.429-65.6-0.054-56.989.973-115.916,1.975-168.7-17.5C401.1,912.175,359.466,834.867,321.5,751.837c-16.976-37.129-34.52-85.323-19.332-128.76,14.38-41.185,49.874-72.172,96.072-84.551q5.367-1.438,10.922-2.537c81.959-16.157,167.219-15.26,224.3-11.653l10.56,0.673q12.513,0.8,24.7,1.555c58.469,3.576,111.374-.917,157.749-13.344q16.157-4.329,31.242-9.939c58.674-21.824,112.245-59.8,168.6-119.491,34.48-36.525,63.12-78.41,90.82-118.921,44.3-64.785,90.11-131.763,159.96-175.868,19.63-12.328,44.21-22.354,70.79-29.475m29.69,461.532c-4.48,3.508-8.89,7.038-13.16,10.62-37.42,31.4-68.39,67.937-87.21,102.9-40.45,74.7-55.39,154.551-67.4,218.709-9.98,53.316-48.48,119.818-124.41,140.166q-7.185,1.925-14.81,3.283c-17.79,3.159-34.23,4.976-49.35,6.466-61.5,5.98-122.567-3.1-181.618-11.883-40.081-5.963-81.534-12.127-123.278-13.7-23.445-.88-48.041-0.329-71.829.213-60.983,1.373-124.039,2.795-180.236-18.733-98.266-37.555-141.158-126.692-176.66-214.767-16.192-40.172-30.819-86.958-16.529-129.425,14.548-43.267,50.777-76.034,97.744-88.623q3.151-.843,6.37-1.564c84.823-19.113,173.22-18.552,232.444-14.717q12.06,0.783,23.851,1.606l12.718,0.86c62.806,4.259,119.765-.375,169.726-13.759q13.73-3.681,26.739-8.238c62.7-21.949,120.7-61.4,177.318-120.6,38.1-39.848,68.86-86.285,98.6-131.19,45.33-68.431,92.2-139.2,165.25-185.666,20.19-12.785,45.29-23.089,72.46-30.369,43.05-11.531,91.31-15.484,133.66-9.717,20.82,7.963,38.07,23.03,51.25,44.791,11.68,19.247,18.36,40.126,23.83,59.812,2.39,8.6,4.6,17.519,6.74,26.16l0.4,1.59c17.9,72.256,33.1,178.586-41.26,267.385-2.64,3.144-5.37,6.144-8.16,9.042-6.72,4.643-13.29,9.365-19.65,14.178q-5.91,4.155-11.61,8.415c-4.7,3.235-9.29,6.544-13.82,9.881q-6.45,4.415-12.71,8.982c-2.19,1.482-4.38,2.949-6.56,4.47,13.86-10.486,27.1-22.275,38.79-36.6,29.78-36.516,47.33-77.83,53.66-126.3,4.94-37.842,2.99-78.666-6.13-128.477l-0.59-3.2c-1.4-7.663-2.85-15.583-4.45-23.243-4.63-22.079-9.62-40.381-18.95-57.917-7.96-14.973-22.71-34.927-47.76-44.925l-0.28-.071c-39.12-4.311-83.5-.122-123.4,10.566-26.79,7.177-51.56,17.289-71.35,29.716-70.24,44.339-116.17,111.517-160.59,176.475-27.66,40.438-56.25,82.261-90.61,118.654-56.124,59.453-109.441,97.251-167.791,118.958q-14.991,5.582-31.065,9.885c-46.149,12.368-98.816,16.826-157.049,13.267-8.107-.491-16.353-1.021-24.694-1.555l-10.559-.678c-57.216-3.6-142.672-4.5-224.854,11.7q-5.723,1.115-11.254,2.605c-46.787,12.532-82.758,44.062-97.353,85.876C284.7,666.531,302.4,715.23,319.55,752.731c38.16,83.461,80.033,161.184,172.054,195.043,53.16,19.616,112.3,18.608,169.478,17.635,21.683-.369,44.1-0.755,65.489.048,37.967,1.428,75.781,6.667,112.346,11.73,55.715,7.716,113.329,15.69,171.373,9.961,14.1-1.419,29.43-3.133,46.01-6.057,4.93-.862,9.74-1.929,14.4-3.181,68.46-18.339,107.37-76.227,121.2-126.623q2.685-9.808,5.39-19.843c15.43-57.031,32.91-121.668,65.79-183.561,17.74-33.627,46.18-68.709,80.06-98.777,10.51-9.326,21.97-18.671,34.07-27.787l0.37-.261m-1.1,3.587c-35.88,30.412-65.19,64.7-83.23,97.626-42.75,77.58-55.16,161.243-63.44,233.576-7.27,63.587-49.98,134.005-129.36,155.273q-7.38,1.98-15.19,3.37c-19.05,3.4-36.66,5.33-52.85,6.91-65.284,6.25-129.992-3.95-192.566-13.82-43.488-6.85-88.455-13.942-133.809-15.647-25.4-.957-52.1-0.227-77.923.479-65.019,1.777-132.243,3.613-191.9-19.976C329.832,930.463,287.736,833.025,253.736,736.819,238.6,694,226.461,648.6,240.014,606.736c14.132-43.705,50.107-76.843,101.294-93.306,5.345-1.72,10.775-3.315,16.25-4.782,73.448-19.679,157.714-17.4,224.273-12.978,12.229,0.82,24.263,1.7,35.987,2.565l1.887,0.139c67.26,4.978,128.387.2,182.117-14.192q11.128-2.984,21.83-6.513c66.554-21.977,129.139-62.934,186.008-121.731,41.65-43.043,74.38-93.919,106.04-143.117,46.46-72.206,94.51-146.875,170.89-195.787,21.27-13.554,46.47-23.705,72.89-30.783,50.55-13.546,105.59-15.87,146.26-9.365,22.06,8.1,40.85,23.453,55.86,45.626,13.68,20.212,22.29,42.83,28.91,62.293,3.3,9.709,6.32,19.576,9.24,29.117,36.64,119.659,25.94,208.589-33.67,279.594-6.65,3.724-13.33,7.569-20.02,11.676-6.02,3.7-11.89,7.517-17.69,11.385,0.73-.848,1.48-1.665,2.2-2.531,75-89.546,59.72-196.57,41.7-269.281l-0.39-1.595c-2.14-8.644-4.36-17.587-6.76-26.211-5.51-19.84-12.24-40.886-24.06-60.36-13.44-22.178-31.05-37.549-52.56-45.742-42.78-5.849-91.45-1.873-134.82,9.746-27.37,7.333-52.64,17.715-72.98,30.593-73.44,46.721-120.44,117.678-165.89,186.288-29.69,44.829-60.39,91.181-98.37,130.9-56.372,58.952-114.1,98.221-176.466,120.065q-12.932,4.533-26.571,8.181c-49.758,13.33-106.455,17.945-169.038,13.7l-12.721-.865q-11.778-.805-23.857-1.6c-59.363-3.845-147.985-4.407-233.06,14.766-2.122.474-4.232,1-6.315,1.558-47.649,12.765-84.562,46.046-99.358,90.039-14.516,43.129.231,90.386,16.573,130.915,35.682,88.524,78.807,178.115,177.888,215.979,56.589,21.676,119.861,20.248,181.046,18.875,23.76-.537,48.325-1.093,71.706-0.216,41.628,1.567,83.016,7.722,123.043,13.673,59.178,8.808,120.373,17.908,182.14,11.9,15.16-1.49,31.65-3.32,49.52-6.486q7.725-1.371,14.99-3.329c76.92-20.606,115.87-87.888,125.97-141.84h0c11.97-64.013,26.88-143.679,67.17-218.085,18.7-34.728,49.48-71.048,86.7-102.276,3.48-2.915,7.06-5.807,10.68-8.679m7.73-3.632c-32.22,28.277-58.33,59.145-74.93,88.958-45.06,80.541-55.35,170.779-59.46,248.428-4.36,82.107-59.04,150.181-135,170.531q-7.32,1.965-14.9,3.32c-20.36,3.66-39.12,5.69-56.35,7.34-69.114,6.54-137.518-4.79-203.673-15.74-46.834-7.75-95.262-15.77-144.165-17.61-27.326-1.02-56.108-.12-83.943.76-69.075,2.18-140.5,4.43-203.649-21.22-50.958-20.669-91.461-55.207-123.823-105.591-30.6-47.652-49.766-103.009-64.469-150.882-13.31-43.327-23.842-89.149-10.912-130.739,13.938-44.868,48.885-79.11,98.407-96.41,7.836-2.739,15.856-5.194,24-7.371,75.982-20.356,163.278-17.615,224.67-13.446,13.955,0.951,27.544,2.015,39.181,2.935,71.808,5.738,137.264.808,194.876-14.627q8.389-2.249,16.546-4.791c71.224-22.209,136.738-63.538,194.716-122.848,45.12-46.14,79.74-101.375,113.21-154.8,47.68-76.08,96.98-154.747,176.8-206.162,21.93-14.073,47.81-24.56,74.97-31.842,54.18-14.51,113.52-16.278,157.19-8.361,23.34,8.25,43.68,23.884,60.46,46.469,15.7,21.094,26,44.576,34.01,64.759,3.85,9.72,7.42,19.548,11.34,30.477,44.18,122.979,35.55,218.626-26.34,292.217-10.44,4.748-21.05,10.077-31.73,15.9,57.03-70.912,66.72-159.322,30.57-277.378-2.93-9.561-5.96-19.443-9.27-29.177-6.66-19.6-15.33-42.39-29.16-62.807-15.27-22.556-34.41-38.182-57.11-46.494-41.04-6.578-96.49-4.251-147.39,9.388-0.01,0-.01,0-0.03.006-26.61,7.132-52,17.354-73.41,31.007-76.78,49.165-124.96,124.032-171.55,196.436-31.6,49.114-64.27,99.9-105.77,142.78C951.489,412.986,889.2,453.756,822.972,475.62q-10.686,3.533-21.817,6.519c-53.465,14.323-114.313,19.045-181.295,14.087l-1.89-.136c-11.722-.866-23.763-1.748-36-2.563-66.737-4.432-151.215-6.717-225.021,13.06q-8.25,2.207-16.3,4.794c-51.858,16.687-88.322,50.308-102.678,94.691-13.746,42.469-1.516,88.285,13.744,131.464,34.168,96.672,76.5,194.6,183.714,236.9,60.065,23.754,127.512,21.907,192.745,20.127,25.791-.706,52.459-1.439,77.789-0.485,45.223,1.7,90.128,8.779,133.551,15.629,62.709,9.88,127.554,20.11,193.1,13.83,16.24-1.58,33.91-3.51,53.02-6.93q7.935-1.41,15.45-3.43c80.33-21.511,123.51-92.775,130.87-157.086,8.25-72.129,20.63-155.544,63.18-232.782,18.97-34.62,50.5-70.781,89.08-102.3m9.97-5.707c-29.5,26.5-53.32,54.846-68.87,82.362-49.12,86.6-55.46,186.181-55.48,263.268-0.04,88.013-58.04,163.714-140,185.674-4.99,1.33-10.08,2.48-15.25,3.41-21.67,3.9-41.57,6.04-59.84,7.76-72.983,6.83-145.126-5.62-214.9-17.66-50.145-8.65-102-17.6-154.416-19.56-29.232-1.1-60.068-.02-89.888,1.04-73.16,2.57-148.811,5.24-215.47-22.485C312.9,971.224,237.307,916.457,185.96,721.8c-10.737-40.713-21.105-87.8-8.1-131.4,13.753-46.139,47.675-81.48,95.516-99.507q15.51-5.849,32.488-10.395c58.517-15.68,130.927-19.951,224.328-13.478,12.014,0.84,24.879,1.842,40.492,3.173,76.492,6.522,146.457,1.411,208.1-15.1q5.448-1.461,10.8-3.037c75.855-22.36,144.3-64.066,203.423-123.958,48.536-49.162,84.966-108.711,120.186-166.307,48.95-80.013,99.56-162.759,182.89-216.713,22.16-14.3,48.51-24.971,76.29-32.418,58.4-15.646,123.16-17.031,168.9-7.839,24.65,8.415,46.54,24.324,65.06,47.289,17.55,21.75,29.61,46.193,39.09,67.237,4.85,10.85,9.33,21.71,13.46,31.836,53.53,131.3,45.74,232.858-23.81,310.487l-0.22.236c-9.27,3.366-18.45,6.93-27.37,10.847,59.86-73.761,67.64-169.048,23.86-290.915-3.94-10.943-7.51-20.794-11.38-30.548-8.05-20.314-18.43-43.951-34.27-65.25-17.05-22.931-37.73-38.814-61.64-47.254-44.05-8-103.81-6.227-158.36,8.389-27.36,7.331-53.42,17.9-75.51,32.069-80.23,51.682-129.66,130.557-177.46,206.835-33.42,53.323-67.97,108.461-112.92,154.438C942.069,399.554,876.857,440.7,805.976,462.8q-8.187,2.559-16.608,4.813c-57.362,15.37-122.494,20.226-194.006,14.519-11.648-.92-25.242-1.987-39.206-2.937-61.547-4.181-149.049-6.936-225.356,13.511q-12.3,3.3-24.168,7.421c-50.179,17.53-85.6,52.264-99.745,97.8-13.107,42.143-2.5,88.353,10.906,132.018C250.778,837.3,296.566,942.853,407.337,987.769c63.568,25.821,135.225,23.571,204.521,21.381,27.8-.88,56.546-1.78,83.8-0.76,48.769,1.84,97.127,9.84,143.9,17.58,66.286,10.98,134.832,22.33,204.229,15.76,17.28-1.65,36.09-3.69,56.52-7.36,5.11-.91,10.16-2.04,15.11-3.36,76.82-20.58,132.15-89.457,136.55-172.5,4.1-77.4,14.35-167.336,59.2-247.485,17.92-32.2,47.03-65.662,83.02-95.721m12.83-8.33c-28.01,25.485-50.91,52.627-65.66,78.4-52.65,91.637-55.19,196.76-51.52,278.1a201.821,201.821,0,0,1-40.7,130.821,192.988,192.988,0,0,1-104.03,69.939q-7.815,2.085-15.85,3.55c-22.99,4.15-44.03,6.39-63.35,8.2-76.879,7.12-152.785-6.46-226.192-19.58-53.431-9.56-108.679-19.43-164.583-21.54-31.12-1.16-64,.1-95.792,1.33-77.259,2.98-157.15,6.06-227.338-23.73C221.31,957.043,176.5,824,152.072,714.282c-9.118-40.928-17.8-88.271-5.288-132.06,13.569-47.528,46.462-83.967,92.62-102.612a337.469,337.469,0,0,1,39.083-12.969c59.368-15.907,133.787-20.47,225.889-13.96,12.713,0.9,25.994,1.983,41.8,3.405,81.177,7.345,155.687,2.115,221.493-15.515,1.636-.437,3.259-0.882,4.883-1.331C853,416.792,924.377,374.705,984.682,314.166c51.918-52.133,90.1-115.947,127.018-177.66,50.26-84.018,102.23-170.893,189.13-227.422,22.89-14.848,50-25.893,78.62-33.556,61.97-16.6,131-17.382,179.59-6.76,25.99,8.591,49.43,24.773,69.66,48.115,19.71,22.732,33.97,49.2,44.19,69.706,4.7,9.53,9.65,20.073,15.56,33.2,27.36,60.224,41.57,115.641,42.23,164.706,0.83,61.5-19.43,115.377-60.23,160.162-2.35,2.586-4.77,5.049-7.22,7.456-8.05,2.644-16.13,5.352-24.17,8.212,67.9-77.947,75.05-179.369,21.81-309.968-3.94-9.652-8.61-21-13.48-31.907-9.54-21.174-21.68-45.77-39.38-67.707-18.79-23.283-41.01-39.422-66.18-48.009-46.11-9.269-111.31-7.878-170.09,7.87-27.98,7.5-54.51,18.251-76.82,32.65-83.74,54.222-134.49,137.183-183.56,217.4-35.16,57.483-71.52,116.924-119.882,165.912-58.871,59.637-127,101.156-202.5,123.414q-5.354,1.575-10.794,3.031C716.73,469.481,647.1,474.541,570.864,468.04c-15.625-1.328-28.5-2.339-40.525-3.176-93.656-6.49-166.307-2.182-225.076,13.56Q288.184,483,272.618,488.87c-48.484,18.271-82.868,54.106-96.818,100.909-13.162,44.139-2.727,91.575,8.082,132.572,28.949,109.743,74.8,228.687,195.365,278.749,67.089,27.9,142.98,25.23,216.369,22.65,29.783-1.05,60.58-2.14,89.736-1.05,52.27,1.97,104.05,10.9,154.131,19.54,69.905,12.06,142.19,24.54,215.457,17.69,18.32-1.73,38.27-3.88,60.03-7.8q7.86-1.41,15.47-3.45c82.84-22.19,141.5-98.755,141.53-187.741,0.03-76.823,6.34-176.055,55.21-262.2,17.4-30.792,45.22-62.642,79.83-91.76m10.74-6.635c-25.61,23.83-46.52,48.83-60.37,72.734-56,96.354-54.82,207.155-47.53,292.927a207.873,207.873,0,0,1-39.58,140.688,200.437,200.437,0,0,1-109.99,75.17q-8.07,2.175-16.36,3.67c-24.3,4.41-46.49,6.76-66.85,8.64-80.795,7.42-160.488-7.28-237.557-21.5-56.7-10.45-115.325-21.27-174.7-23.49-33-1.24-67.9.21-101.658,1.61-81.368,3.38-165.512,6.87-239.235-25C214.871,978.7,149.5,877.328,118.176,706.776c-5.443-29.634-15.57-84.786-2.466-132.725,13.385-49.023,45.253-86.568,89.729-105.716a338.522,338.522,0,0,1,46.3-15.907c60.046-16.088,134.823-20.688,226.815-14.076,13.422,0.965,27.519,2.16,43.11,3.641,85.36,8.131,164.038,2.9,233.857-15.566,0.551-.148,1.094-0.289,1.646-0.437,84.334-22.6,158.073-64.9,219.184-125.755,55.279-55.048,95.169-123.1,133.749-188.913,51.6-88.047,104.96-179.091,195.48-238.223,22.91-14.933,50.57-26.2,80.06-34.106,65.09-17.442,139.15-18.475,191.16-6.264,27.77,8.9,52.07,24.9,74.27,48.935,17.01,18.412,32.21,40.671,49.27,72.18,5.35,9.921,10.96,20.9,17.67,34.563,69.73,140.973,65.63,255.115-12.18,339.254a174.7,174.7,0,0,1-16.93,16q-7.515,2.5-15.01,4.944c-2.04.664-4.11,1.354-6.15,2.026,1.44-1.49,2.89-2.971,4.3-4.518,41.17-45.2,61.62-99.58,60.79-161.638-0.67-49.365-14.94-105.074-42.42-165.565-5.92-13.145-10.88-23.717-15.6-33.275-10.28-20.626-24.62-47.243-44.49-70.162-20.48-23.629-44.24-40.032-70.72-48.773-48.95-10.711-118.41-9.925-180.77,6.788-28.81,7.716-56.12,18.841-79.17,33.789-87.32,56.8-139.42,143.9-189.8,228.122C1073,197,1034.89,260.7,983.161,312.64c-60.041,60.28-131.1,102.177-211.19,124.523-1.509.423-3.036,0.84-4.556,1.252-65.592,17.566-139.992,22.859-221.048,15.529-15.822-1.428-29.116-2.506-41.845-3.409-92.343-6.521-167-1.932-226.622,14.04a339.991,339.991,0,0,0-39.3,13.043c-46.786,18.889-80.128,55.831-93.879,104.008-12.659,44.274-3.925,91.932,5.251,133.125,24.545,110.22,69.6,243.892,201.188,299.689,70.625,29.98,150.762,26.89,228.259,23.9,31.754-1.22,64.59-2.49,95.631-1.32,55.75,2.09,110.924,11.96,164.281,21.5,73.548,13.15,149.6,26.74,226.768,19.6,19.37-1.81,40.46-4.05,63.53-8.23q8.13-1.455,16.03-3.59a195.135,195.135,0,0,0,105.19-70.707,204,204,0,0,0,41.13-132.217c-3.66-81.045-1.14-185.771,51.23-276.929,16.25-28.379,42.46-58.459,74.54-86.106m12.79-8.627c-24.12,22.723-43.82,46.341-57.14,69.061-28.67,48.836-64.39,133.872-43.54,307.747,12.7,105.946-54.33,204.158-154.59,231.028q-8.2,2.19-16.69,3.74c-25.62,4.67-48.95,7.12-70.35,9.08-84.73,7.7-168.224-8.12-248.97-23.42-59.943-11.36-121.93-23.1-184.745-25.46-34.869-1.31-71.786.32-107.492,1.9-85.491,3.78-173.894,7.69-251.172-26.26-63.36-27.81-113.766-75.023-149.822-140.333-29.8-53.981-49.994-119.253-61.747-199.539-6.429-43.94-10.835-90.5.348-133.377,13.389-51.344,43.418-88.973,86.839-108.818a338.765,338.765,0,0,1,53.206-18.887c60.69-16.258,135.941-20.9,228.063-14.156,14.008,1.028,28.536,2.3,44.42,3.88,87.524,8.738,168.722,3.933,241.333-14.283q4.353-1.1,8.676-2.254c85.871-23,160.144-65.057,220.859-125.051,58.624-57.934,100.184-130.2,140.374-200.084,52.98-92.114,107.76-187.363,201.92-249.108,23.68-15.5,52.16-27.162,82.54-35.3,68.57-18.369,146.87-18.826,201.7-5.125,29.22,9.093,55.02,25.366,78.87,49.749,18.66,19.071,35.43,42.093,54.37,74.647,6.01,10.367,12.29,21.784,19.77,35.928,78.09,146.869,75.95,265.856-6.36,353.639a183.455,183.455,0,0,1-28.9,24.92q-8.91,3.231-17.88,6.235a175.433,175.433,0,0,0,12.97-12.691c78.49-84.855,82.7-199.809,12.53-341.663-6.72-13.682-12.34-24.687-17.7-34.637-17.15-31.674-32.45-54.069-49.59-72.618-22.46-24.309-47.05-40.508-75.27-49.547-52.36-12.3-126.86-11.261-192.35,6.289-29.69,7.952-57.54,19.309-80.62,34.356-90.94,59.4-144.43,150.666-196.16,238.938-38.5,65.689-78.32,133.624-133.4,188.473-60.848,60.587-134.26,102.7-218.233,125.2-0.541.147-1.092,0.292-1.635,0.437-69.572,18.4-148,23.614-233.108,15.5-15.6-1.481-29.719-2.676-43.153-3.646-92.211-6.63-167.234-2.01-227.513,14.141a339.732,339.732,0,0,0-46.609,16.017C159.5,485.771,127.2,523.814,113.637,573.489c-13.232,48.407-3.049,103.869,2.426,133.667,19.794,107.811,62.794,258.333,207.01,320.614,74.175,32.06,158.568,28.56,240.18,25.17,33.71-1.4,68.57-2.85,101.488-1.61,59.215,2.22,117.764,13.02,174.387,23.46,77.211,14.24,157.051,28.96,238.142,21.53,20.41-1.89,42.66-4.24,67.03-8.67q8.415-1.53,16.59-3.72A202.46,202.46,0,0,0,1272,1007.97a210,210,0,0,0,39.99-142.15c-7.26-85.456-8.45-195.829,47.25-291.667,15.74-27.165,40.66-55.762,71.3-82.439m14.23-10.015c-23.34,22.065-42.34,44.842-55.33,66.777-26.92,45.41-42.52,96.907-47.68,157.437-4.07,47.913-1.42,101.928,8.12,165.123a221.781,221.781,0,0,1-37.31,160.374,215.724,215.724,0,0,1-121.78,85.7q-8.655,2.325-17.55,3.94c-26.92,4.92-51.4,7.48-73.84,9.51-88.68,8.01-175.989-8.94-260.426-25.33-63.179-12.26-128.512-24.95-194.764-27.43-36.729-1.38-75.662.44-113.308,2.2-89.621,4.17-182.292,8.49-263.124-27.53-66.778-29.74-119.505-79.9-156.714-149.076C79.941,845.537,59.527,774.328,50.389,691.743c-4.6-41.5-7.814-89.88,3.165-134.033,13.188-53.052,42.215-91.753,83.948-111.923a338.725,338.725,0,0,1,59.752-21.88c61.337-16.429,137.158-21.083,229.667-14.215,14.661,1.087,29.615,2.435,45.729,4.109,89.673,9.345,173.385,4.966,248.816-13,5.395-1.283,10.764-2.642,16.068-4.067,87.35-23.4,162.038-65.19,222.161-124.358C1021.82,211.6,1065.07,135.019,1106.91,60.957c54.29-96.121,110.44-195.518,208.16-259.825,24.45-16.074,53.78-28.13,85.07-36.513,72.05-19.307,154.55-19.165,212.19-3.968,30.68,9.292,57.98,25.831,83.46,50.564,20.04,19.454,38.93,43.957,59.47,77.118,6.65,10.77,13.6,22.621,21.87,37.288,86.48,152.772,86.29,276.594-.55,368.041a193.883,193.883,0,0,1-43.09,33.681q-6.87,2.86-13.84,5.517a182.692,182.692,0,0,0,23.13-20.728c83.01-88.533,85.26-208.351,6.69-356.125-7.49-14.167-13.79-25.6-19.82-36-19.03-32.713-35.9-55.865-54.69-75.069-24.1-24.645-50.19-41.1-79.82-50.322-55.17-13.784-133.91-13.324-202.9,5.159-30.58,8.193-59.25,19.94-83.09,35.54-94.6,62.029-149.51,157.505-202.61,249.841-40.12,69.765-81.61,141.9-140.028,199.615-60.5,59.8-134.6,101.655-220.178,124.58-2.783.749-5.56,1.47-8.368,2.177-72.371,18.157-153.317,22.942-240.6,14.226-15.9-1.583-30.447-2.852-44.474-3.885-92.361-6.745-167.86-2.091-228.788,14.232a341.148,341.148,0,0,0-53.525,19.006c-44.034,20.118-74.471,58.232-88.025,110.226-11.283,43.247-6.859,90.073-.4,134.237,11.788,80.55,32.066,146.055,61.992,200.268,36.29,65.733,87.036,113.262,150.84,141.272,77.736,34.14,166.392,30.22,252.128,26.43,35.663-1.57,72.54-3.21,107.321-1.9,62.655,2.35,124.559,14.08,184.424,25.42,80.892,15.34,164.538,31.18,249.568,23.45,21.45-1.95,44.84-4.42,70.53-9.1q8.6-1.56,16.9-3.79c101.34-27.15,168.97-126.343,156.13-233.351-9.94-82.964-16.28-204.993,43.27-306.4,15.49-26.433,39.67-54.128,69.51-80.166m12.47-8.466c-21.65,20.828-39.38,42.212-51.77,62.946-28.19,47.129-43.96,100.744-48.21,163.9-3.37,50.238.76,106.982,12.63,173.47,21.03,117.777-51.82,231.152-164.27,261.282q-8.7,2.325-17.71,3.99c-28.26,5.17-53.88,7.83-77.35,9.94-92.63,8.3-183.772-9.78-271.912-27.25-66.4-13.17-135.065-26.79-204.746-29.4-38.579-1.45-79.513.56-119.1,2.49-93.753,4.57-190.7,9.31-275.1-28.79C169.47,1034.11,114.375,981,75.957,907.949c-32.886-62.531-52.9-137.8-59.466-223.72-2.946-38.466-4.926-88.536,5.984-134.689C35.627,493.905,62.9,455.2,103.53,434.512a332.769,332.769,0,0,1,64.894-24.369c62.5-16.741,140.4-21.725,232.68-14.783,15.151,1.135,30.535,2.56,47.034,4.345,91.8,9.941,178.031,6,256.3-11.712q11.952-2.708,23.609-5.829c88.371-23.674,163.414-65.219,223.33-123.712,65.337-63.6,110.2-144.3,153.577-222.333,55.74-100.281,113.38-203.98,214.87-270.967,23.62-15.586,53.59-28.32,87.44-37.387a452.162,452.162,0,0,1,63.81-12.106c56.36-6.664,114.33-3.4,159.02,8.95,32.18,9.5,60.99,26.308,88.06,51.384,21.68,20.081,42.2,45.37,64.56,79.582,7.23,11.068,14.85,23.348,23.99,38.647,41.85,70.006,65.73,135.361,70.97,194.246,6.47,72.762-15.63,136.079-65.7,188.2-18.92,19.715-41.32,33.729-65.21,44.857a188.026,188.026,0,0,0,31.39-26.379c87.56-92.211,87.85-216.89.85-370.579-8.29-14.7-15.25-26.566-21.92-37.364-20.63-33.32-39.63-57.951-59.79-77.527-25.74-24.982-53.33-41.687-84.38-51.1-57.97-15.28-140.92-15.416-213.39,4-31.49,8.438-61.01,20.573-85.63,36.763-98.16,64.6-154.43,164.215-208.85,260.557-41.76,73.932-84.95,150.377-146.85,210.947C898.342,329.73,823.993,371.351,737,394.653q-7.953,2.137-16.04,4.059c-75.192,17.9-158.661,22.266-248.095,12.952-16.132-1.68-31.11-3.034-45.793-4.118-92.73-6.888-168.8-2.219-230.37,14.272a339.661,339.661,0,0,0-60.139,22.034c-42.328,20.45-71.753,59.642-85.1,113.336-11.061,44.482-7.831,93.1-3.216,134.788,9.17,82.862,29.665,154.333,60.915,212.437C146.614,974.019,199.684,1024.5,266.9,1054.44c81.3,36.22,174.225,31.89,264.1,27.7,37.606-1.75,76.49-3.56,113.13-2.19,66.086,2.48,131.332,15.15,194.432,27.39,84.585,16.42,172.054,33.39,261.024,25.37,22.49-2.04,47.03-4.6,74.04-9.54q8.985-1.635,17.73-3.98a217.858,217.858,0,0,0,122.97-86.54A223.9,223.9,0,0,0,1352,870.715c-13.16-87.212-23.41-215.391,39.29-321.138,14.87-25.119,37.71-51.353,65.95-76.344M1206.26,1136.89c113.48-30.4,186.97-144.855,165.74-263.714-16.34-91.532-30.46-225.932,35.32-335.888,14.12-23.628,35.21-48.111,61.21-71.649,1.77-.957,3.56-1.924,5.32-2.866,10.4-5.563,20.91-11.188,31.25-17.261,13.77-6.8,27.67-13.744,41.16-21.628,13.45-6.26,26.88-12.85,39.81-20.442a389.513,389.513,0,0,0,37.89-19.2,350.807,350.807,0,0,0,37-18.512,326.925,326.925,0,0,0,36.97-18.378,311.007,311.007,0,0,0,36.56-18.089c28.99-12.1,56.42-27.557,79.02-51.106,50.52-52.584,72.83-116.475,66.3-189.878-5.27-59.211-29.25-124.87-71.27-195.154-9.15-15.331-16.79-27.636-24.03-38.724-22.47-34.368-43.08-59.781-64.9-79.99-27.32-25.3-56.41-42.269-88.93-51.872-60.75-16.787-147.87-17.525-223.81,2.818-32.43,8.687-62.82,21.231-88.24,37.994-101.92,67.285-159.69,171.213-215.56,271.719-43.3,77.907-88.08,158.457-153.195,221.842-59.639,58.212-134.343,99.586-222.34,123.161q-11.643,3.12-23.577,5.821c-78.035,17.657-164.025,21.585-255.595,11.672-16.519-1.788-31.925-3.21-47.1-4.351-92.5-6.958-170.646-1.972-233.385,14.843a334.188,334.188,0,0,0-65.316,24.54C61.337,453.58,33.69,492.758,20.387,549.043c-10.982,46.446-9,96.726-6.043,135.347,6.6,86.211,26.688,161.763,59.712,224.558,38.645,73.483,94.082,126.922,164.768,158.822,84.866,38.32,182.072,33.57,276.086,28.98,39.537-1.93,80.426-3.93,118.916-2.49,69.507,2.61,138.086,16.21,204.41,29.36,88.288,17.51,179.584,35.61,272.524,27.28,23.52-2.11,49.19-4.78,77.53-9.97q9.135-1.665,17.97-4.04M1342.28,95.909c35.66-9.552,74.8-13.693,110.31-10.835,22.89,9.638,35.41,28.706,41.89,43.015,8.29,18.3,11.4,37.909,13.66,54.86,0.91,6.866,1.7,13.955,2.46,20.808l0.47,4.226c7.8,70.148,8.85,160.679-52.92,238.688-20.79,26.271-46.65,44.59-71.65,62.31-12.01,8.5-24.42,17.3-36.13,26.875-11.48,9.382-21.74,18.367-31.37,27.46-30.67,28.97-56.9,63.017-73.85,95.863-24.76,47.638-41.32,94.33-57.34,139.5-6.09,17.173-11.85,33.4-17.96,49.46-21.37,56.072-63.94,96.379-115.37,110.166q-6.51,1.737-13.22,2.912c-15.25,2.67-29.36,4.268-42.347,5.6-54.191,5.455-108.215-1.388-160.461-8.009-33.041-4.183-67.209-8.513-101.5-9.8-19.384-.732-39.625-0.514-59.2-0.309-53.056.573-107.92,1.158-157.346-16.276C435.157,902.438,393.7,833.439,355.377,759.34c-17.305-33.465-38.428-83.151-22.134-128.093,14.157-39.093,48.7-68.383,93.968-80.515q7.758-2.073,15.915-3.468c61.673-10.509,136.423-13.481,216.162-8.6,11.477,0.7,22.83,1.4,33.955,1.989,54.207,2.926,103.164-1.4,146.074-12.9a323.228,323.228,0,0,0,35.436-11.667c54.459-21.557,103.773-58.067,159.9-118.373,30.71-32.988,57.04-70.177,82.51-106.139,43.42-61.323,88.33-124.739,155.19-166.591,19.58-12.18,43.83-22.081,69.93-29.074m-287.22,864.46c52.07-13.952,95.18-54.75,116.79-111.472,6.13-16.079,11.89-32.315,17.99-49.5,15.99-45.089,32.52-91.717,57.22-139.224,16.84-32.639,42.91-66.484,73.41-95.286,9.6-9.059,19.82-18.01,31.26-27.361,11.65-9.527,24.03-18.3,36.02-26.793,25.12-17.8,51.1-36.209,72.09-62.724,62.25-78.623,61.21-169.7,53.36-240.26l-0.47-4.229c-0.76-6.865-1.54-13.968-2.46-20.853-2.28-17.107-5.42-36.9-13.83-55.471-6.66-14.689-19.55-34.288-43.19-44.178l-0.32-.077c-35.78-2.9-75.25,1.266-111.22,10.9-26.31,7.049-50.75,17.03-70.5,29.31-67.23,42.084-112.26,105.677-155.81,167.175-25.43,35.905-51.71,73.031-82.32,105.915-55.9,60.062-104.971,96.407-159.115,117.842a321.612,321.612,0,0,1-35.184,11.582c-42.708,11.44-91.432,15.756-145.425,12.842-11.118-.593-22.462-1.289-33.94-2-79.9-4.893-154.82-1.91-216.651,8.624q-8.245,1.4-16.106,3.516c-45.957,12.311-81.031,42.087-95.437,81.855-16.582,45.739,4.755,96,22.249,129.822,36.993,71.533,80.3,143.9,166.228,174.119,49.784,17.556,104.838,16.965,158.081,16.395,19.549-.207,39.761-0.423,59.1.3,34.2,1.286,68.315,5.605,101.311,9.786,52.363,6.64,106.51,13.5,160.943,8.014,13.021-1.331,27.181-2.932,42.5-5.616q6.8-1.183,13.43-2.963m281.93-828.18c31.66-8.483,65.93-12.569,97.85-11.071,22.59,10.044,33.04,30.7,37.26,42.144,6.42,17.334,7.76,35.38,8.6,52.377,0.3,6.209.48,12.478,0.67,18.776l0.14,4.9c2.17,70.154-3.12,151.674-58.73,224.365-19.14,25-42.5,43.469-65.08,61.322-10.92,8.636-22.22,17.556-32.89,27.111-10.62,9.5-19.94,18.344-28.52,27.026-27.22,27.565-51.08,60.36-67.17,92.346-15.9,31.345-28.88,61.72-41.43,91.09-12.41,29.015-24.12,56.421-37.8,82.964-12.21,23.68-46.33,77.944-109.91,94.98q-6.48,1.741-13.38,2.938c-14.01,2.423-27.5,3.967-38.855,5.159-50.754,5.225-101.487-.508-150.547-6.05-29.3-3.315-59.6-6.735-89.943-7.876-17.226-.65-35.153-0.59-52.492-0.536-49.221.165-100.121,0.326-146.288-15.078-80.4-26.748-122.747-89.866-159.224-152.224-29.832-51.007-37.987-92.691-24.932-127.433,17.167-45.716,60.379-67.307,98.343-77.478,4.944-1.323,9.794-2.458,14.491-3.42,67.338-13.846,145.307-9.232,207.952-5.526,9.056,0.54,20.955,1.232,32.652,1.763,50.082,2.31,95.255-1.893,134.846-12.5A301.5,301.5,0,0,0,891.8,528.894c62.9-26.558,111.724-74.173,151.184-117.258,26.71-29.152,50.42-61.382,73.36-92.554,42.8-58.175,87.06-118.334,151.26-158.116,19.62-12.073,43.64-21.881,69.39-28.777m-296.5,810.42c64.33-17.238,98.95-72.126,111.3-96.081,13.72-26.615,25.45-54.049,37.87-83.1,12.54-29.344,25.51-59.688,41.37-90.97,16-31.791,39.72-64.4,66.78-91.8,8.55-8.65,17.85-17.462,28.43-26.935,10.63-9.507,21.89-18.412,32.79-27.023,22.69-17.938,46.16-36.487,65.45-61.7,25.05-32.736,41.69-69.41,50.89-112.133,7.04-32.7,9.67-68.8,8.29-113.6l-0.14-4.9c-0.19-6.308-.38-12.592-0.68-18.812-0.84-17.167-2.2-35.4-8.72-53.019-4.35-11.792-15.15-33.119-38.6-43.454l-0.38-.086c-32.19-1.535-66.77,2.577-98.72,11.137-25.94,6.95-50.16,16.84-69.95,29.02-64.56,40.007-108.94,100.333-151.87,158.67-22.9,31.121-46.57,63.308-73.2,92.375-39.31,42.91-87.92,90.34-150.442,116.727a297.517,297.517,0,0,1-38.926,13.276c-39.37,10.546-84.314,14.721-134.183,12.428-11.683-.534-23.569-1.224-32.616-1.769-62.777-3.709-140.9-8.332-208.516,5.566q-7.771,1.6-14.9,3.516c-63.8,17.1-89.368,51.716-99.51,78.736-13.3,35.386-5.089,77.671,25.089,129.274,36.687,62.718,79.289,126.2,160.4,153.178,46.5,15.523,97.58,15.361,146.978,15.194,17.318-.06,35.22-0.116,52.4.531,30.259,1.138,60.518,4.555,89.781,7.867,49.175,5.553,100.022,11.3,151.008,6.053,11.389-1.195,24.933-2.744,38.993-5.177,4.65-.8,9.16-1.807,13.53-2.971M1332.2,168.262a321.541,321.541,0,0,1,84.89-11.088c15.45,7.283,27.34,22.3,32.65,41.253,4.61,16.417,4.29,32.974,3.51,49.894-0.25,5.375-.58,10.789-0.91,16.227l-0.37,6.087c-3.94,65.818-14.69,142.238-64.59,210.051-17.46,23.747-38.33,42.347-58.51,60.337-9.82,8.761-19.98,17.817-29.62,27.352-9.73,9.627-18.13,18.325-25.68,26.6a383.131,383.131,0,0,0-60.49,88.819c-7.46,15.146-14.41,29.934-21.14,44.24-19.09,40.611-37.12,78.977-61.99,114.9-20.62,29.779-54.95,66.53-104.54,79.817q-6.555,1.758-13.47,2.949c-12.792,2.188-25.058,3.618-35.362,4.725-47.613,5.026-95.362.4-141.538-4.078-25.267-2.455-51.388-4.986-77.479-5.965-14.889-.562-30.322-0.65-45.251-0.73-45.568-.247-92.689-0.5-135.78-13.92C503.25,883,459.491,829.154,423.123,774.347c-22.159-33.38-44.954-82.473-27.734-126.759,8.1-20.831,30.925-56.132,94.025-73.037,6.763-1.811,13.976-3.412,21.7-4.757,60.108-10.523,125.892-6.728,189.509-3.062l10.306,0.588c11.838,0.686,22.091,1.186,31.348,1.532,46.02,1.742,87.509-2.31,123.89-12.056a278.521,278.521,0,0,0,42.672-15.1c58.992-26.617,104.475-73.912,142.475-116.137,22.33-24.813,42.93-51.671,62.84-77.638,42.58-55.53,86.62-112.953,148.71-150.973,19.81-12.055,43.78-21.841,69.34-28.686M1025.95,924.829c50.22-13.454,84.94-50.577,105.76-80.668,24.97-36.07,43.04-74.516,62.17-115.218,6.73-14.292,13.67-29.069,21.13-44.2a380.865,380.865,0,0,1,60.15-88.319c7.52-8.242,15.9-16.914,25.6-26.507,9.6-9.5,19.74-18.537,29.55-27.281,20.26-18.063,41.2-36.743,58.81-60.667,50.22-68.266,61.03-145.072,64.99-211.2l0.37-6.087c0.34-5.444.67-10.867,0.92-16.248,0.79-17.11,1.1-33.853-3.59-50.586-5.5-19.636-17.9-35.205-34.03-42.72l-0.44-.1a323.722,323.722,0,0,0-85.68,11.162c-25.77,6.9-49.94,16.772-69.93,28.927-62.42,38.23-106.58,95.815-149.28,151.5-19.89,25.933-40.46,52.754-62.73,77.51-37.86,42.072-83.155,89.171-141.769,115.62A276.922,276.922,0,0,1,865.6,554.716c-36.174,9.692-77.437,13.716-123.257,11.982-9.238-.343-19.48-0.84-31.3-1.524l-10.3-.593c-63.742-3.678-129.649-7.478-190,3.087-7.781,1.36-15.072,2.977-21.894,4.8-64.058,17.164-87.21,53.112-95.455,74.332-17.556,45.151,5.5,94.929,27.938,128.737,36.593,55.133,80.645,109.321,154.565,132.24,43.4,13.511,90.678,13.77,136.4,14.019,14.912,0.082,30.329.162,45.186,0.724,26.024,0.982,52.118,3.513,77.352,5.96,46.282,4.486,94.138,9.126,141.971,4.075,10.339-1.11,22.646-2.546,35.492-4.745,4.66-.792,9.22-1.8,13.65-2.986m302.38-720.851a319.047,319.047,0,0,1,71.01-10.751c14.41,7.254,24.62,21.944,28.03,40.345,2.9,15.572,1.01,30.689-1.55,47.416-0.73,4.8-1.53,9.632-2.33,14.476l-1.06,6.482c-10.51,64.572-26.31,132.975-70.43,195.75-15.8,22.488-34.18,41.218-51.95,59.333-8.73,8.894-17.76,18.1-26.36,27.616-9,9.961-16.25,18.274-22.84,26.16-20.59,24.656-38.69,53.348-53.81,85.289l-5.01,10.557c-23.87,50.28-44.48,93.7-81.99,133.676-32.06,34.16-64.43,55.374-98.53,64.509q-7.065,1.9-14.24,3.1c-11.634,1.964-22.636,3.269-31.86,4.288-45.055,4.91-90.416,1.359-134.286-2.074-20.65-1.615-42.006-3.287-63.259-4.084-12.193-.466-24.783-0.658-36.956-0.851-42.26-.665-85.959-1.351-126.322-12.828-72.037-20.394-116.72-69.785-147.6-110.538-47.9-63.2-37.3-109.232-30.514-126.095,8-19.9,29.969-52.857,89.519-68.812a249.491,249.491,0,0,1,29.086-5.886c53.059-7.611,110.177-4.206,165.415-.919q13.186,0.783,26.256,1.518c11.034,0.607,20.862,1.027,30.039,1.294,42.468,1.22,79.76-2.514,112.751-11.352a261.2,261.2,0,0,0,46.345-17.1c52.169-25.232,91.441-67.02,133.761-115.021,17.23-19.545,33.78-40.206,49.78-60.187,43.11-53.853,87.7-109.536,148.68-146.359,20.32-12.189,44.56-22.076,70.23-28.955M1012.09,906.919c34.48-9.243,67.18-30.661,99.51-65.119,37.74-40.22,58.43-83.779,82.37-134.224l5.02-10.554c15.03-31.782,33.04-60.323,53.5-84.829,6.58-7.872,13.82-16.165,22.79-26.1,8.58-9.5,17.59-18.674,26.3-27.557,17.83-18.174,36.27-36.97,52.18-59.594C1398.12,435.8,1414,367.12,1424.55,302.29l1.06-6.477c0.8-4.85,1.6-9.688,2.34-14.493,2.58-16.931,4.49-32.236,1.53-48.14-3.55-19.179-14.28-34.487-29.43-42l-0.51-.113a320.706,320.706,0,0,0-71.75,10.832c-25.87,6.931-50.31,16.9-70.79,29.189-61.32,37.023-106.03,92.857-149.26,146.854-15.99,19.965-32.51,40.6-49.71,60.114-42.16,47.819-81.275,89.449-133.088,114.505a259.3,259.3,0,0,1-45.963,16.96c-32.79,8.783-69.876,12.49-112.138,11.272-9.159-.261-18.965-0.681-29.98-1.291-8.706-.471-17.463-1-26.245-1.513-55.348-3.3-112.577-6.709-165.852.937a251.491,251.491,0,0,0-29.357,5.934c-60.415,16.19-82.779,49.8-90.936,70.088-6.915,17.2-17.76,64.121,30.8,128.2C486.357,824.17,531.356,873.888,604,894.455c40.632,11.553,84.474,12.243,126.875,12.913,12.16,0.187,24.736.385,36.91,0.845,21.206,0.8,42.54,2.469,63.172,4.081,43.967,3.44,89.43,7,134.685,2.069,9.258-1.022,20.3-2.336,31.985-4.305,4.85-.815,9.68-1.865,14.46-3.139m313.86-667.825a320.562,320.562,0,0,1,55.64-9.81c13.2,7.148,21.95,21.866,23.42,39.427,1.26,14.786-2.09,28.519-6.6,44.939-1.15,4.192-2.34,8.406-3.54,12.617l-1.96,6.982c-15.69,55.907-35.81,120.649-76.3,181.464-14.14,21.227-30.04,40.086-45.41,58.311-7.62,9.044-15.51,18.387-23.07,27.9-5.52,6.939-12.78,16.131-20,25.718-17.07,22.652-32.04,48.637-47.12,81.761-21.73,47.453-42.26,92.276-90.85,129.317-24.98,19.045-54.88,39.209-90.867,48.846-5.424,1.453-10.982,2.668-16.685,3.6-10.576,1.753-20.715,2.982-28.365,3.862-43.915,4.958-88.37,2.426-131.358-.023-14.619-.828-29.734-1.694-44.716-2.256-8.621-.323-17.306-0.567-26.026-0.806-39.824-1.1-81-2.23-119.51-11.911-54.56-13.647-100.944-42.986-141.8-89.693-28-32.006-51.438-81.761-33.29-125.414,15.717-37.839,52.589-56.106,85.478-64.921a245.567,245.567,0,0,1,36.007-6.686c46.476-5.163,95.6-1.933,143.107,1.189,13.283,0.871,27.015,1.774,40.429,2.472,10.422,0.545,19.817.891,28.731,1.058,38.607,0.727,72.579-2.866,102.61-10.912A240.832,240.832,0,0,0,942.922,567.3c48.9-25.411,85.868-68.369,121.618-109.908l3.44-3.99c10.49-12.181,20.96-24.767,31.09-36.936,45.29-54.392,92.11-110.643,154.29-147.542,21.35-12.609,46.37-22.806,72.59-29.83M999.8,888.66c36.344-9.74,66.494-30.037,91.664-49.224,49.02-37.37,69.65-82.426,91.5-130.131,15.02-32.989,29.92-58.839,46.88-81.361,7.21-9.57,14.46-18.748,19.97-25.672,7.54-9.493,15.42-18.827,23.03-27.858,15.42-18.273,31.36-37.171,45.56-58.5,40.66-61.078,60.85-126.016,76.57-182.08l1.97-6.972c1.2-4.226,2.39-8.435,3.54-12.638,4.57-16.63,7.96-30.55,6.68-45.694-1.55-18.415-10.84-33.853-24.84-41.3l-0.28-.148-0.31.029a322.375,322.375,0,0,0-56.33,9.9c-26.41,7.077-51.62,17.353-73.14,30.059-62.49,37.1-109.43,93.485-154.84,148.016-10.12,12.166-20.59,24.741-31.07,36.907l-3.44,3.993c-35.61,41.389-72.444,84.179-120.979,109.406a238.939,238.939,0,0,1-48.586,18.668c-29.841,8-63.6,11.556-102.009,10.832-8.892-.17-18.264-0.511-28.66-1.053-13.4-.7-27.126-1.6-40.4-2.472-47.6-3.133-96.822-6.362-143.488-1.18a246.5,246.5,0,0,0-36.3,6.743c-33.373,8.939-70.871,27.545-86.926,66.172-18.524,44.567,5.241,95.168,33.659,127.662,41.158,47.045,87.9,76.605,142.9,90.369,38.734,9.731,80.032,10.869,119.971,11.962,8.715,0.241,17.392.482,26.007,0.811,14.954,0.562,30.062,1.425,44.673,2.254,43.076,2.457,87.622,4.992,131.72.008,7.676-.877,17.851-2.111,28.473-3.871,5.754-.945,11.368-2.174,16.837-3.635M1326.1,273.1a321.706,321.706,0,0,1,37.75-7.759c14.36,8.457,19.12,25.979,18.82,38.494-0.36,15.081-6.11,29.007-11.66,42.467q-3.78,9.093-7.61,18.234c-21.33,51.458-47.03,111.051-82.18,167.2-12.44,20.011-25.89,38.974-38.9,57.3-6.51,9.181-13.24,18.668-19.76,28.172-5.51,8.04-11.4,16.656-17.16,25.286-16.97,25.443-28.81,51.518-40.43,78.217-21.71,49.712-41.22,87.023-94.66,114.417-24.14,12.377-50.09,24.543-78.459,32.146a236.756,236.756,0,0,1-23.9,5.134c-7.476,1.209-15.38,2.29-24.87,3.422-48.19,5.7-97.351,3.806-144.894,1.975l-13.81-.528c-41.009-1.538-83.413-3.13-123.7-11.592-55.212-11.54-100.966-34.709-135.995-68.858-31.442-30.652-54.783-81.108-36.059-124.736,15.34-35.749,50.852-53.007,81.933-61.336A237.518,237.518,0,0,1,612.98,603.6c40.481-3.147,82.438.071,123.014,3.178,17.193,1.317,34.969,2.682,52.392,3.536,9.724,0.486,18.694.755,27.427,0.823,34.851,0.281,65.6-3.161,92.786-10.443a221.932,221.932,0,0,0,51.37-20.592c42.491-23.813,74.421-62.293,105.291-99.51q5.52-6.657,11.05-13.273c47.68-56.906,101.73-121.41,172.29-162.407a323.06,323.06,0,0,1,77.5-31.805M992.4,869.359c28.545-7.648,54.635-19.877,78.895-32.31,54.08-27.721,73.75-65.341,95.65-115.47,11.58-26.609,23.37-52.59,40.25-77.885,5.75-8.616,11.63-17.235,17.14-25.26,6.51-9.488,13.24-18.969,19.74-28.144,13.03-18.359,26.5-37.35,38.97-57.412,35.24-56.282,60.98-115.975,82.34-167.5q3.825-9.131,7.62-18.239c5.37-13.015,11.45-27.758,11.82-43.245,0.41-17.368-7.52-33.309-20.22-40.6l-0.32-.185-0.37.057a330.737,330.737,0,0,0-116.39,39.884c-70.88,41.187-125.06,105.839-172.86,162.887q-5.535,6.619-11.05,13.279c-30.75,37.063-62.55,75.392-104.693,99.01a219.642,219.642,0,0,1-50.867,20.393c-27.006,7.229-57.56,10.648-92.222,10.367-8.7-.073-17.647-0.334-27.34-0.817-17.393-.857-35.155-2.219-52.331-3.539-40.657-3.11-82.7-6.334-123.343-3.178a239.912,239.912,0,0,0-42.791,7.231c-31.555,8.457-67.7,26.035-83.38,62.568-19.127,44.57,4.567,95.962,36.535,127.126,35.324,34.438,81.436,57.794,137.058,69.43C700.7,876.3,743.2,877.89,784.293,879.436l13.808,0.525c47.627,1.834,96.872,3.729,145.231-1.989,9.519-1.138,17.452-2.228,24.958-3.434a240.217,240.217,0,0,0,24.105-5.179M1329.16,305.485q8.445-2.272,16.94-4.072c12.34,8.006,16.05,24.568,14.24,37.546-2.04,14.547-9.83,28.07-16.7,40l-52.31,90.809Q1237,564.066,1182.68,658.358c-12.08,20.947-20.38,41.567-28.4,61.5-19.96,49.587-37.2,92.409-103.8,112.714q-11.22,3.423-22.59,6.471c-103.832,27.817-217.836,32.287-339.189,13.3-43.547-6.808-93.064-17.845-130.2-48.029-45.253-36.78-53.778-90.249-38.808-124.049,6.4-14.471,25.549-44.295,77.528-58.218a230.334,230.334,0,0,1,49.716-7.194c35.161-1.51,70.875,1.8,105.416,5.012,20.255,1.876,41.2,3.82,61.855,4.773,42.643,1.978,78.516-1,109.316-9.252A203.777,203.777,0,0,0,977.018,592.9c37.192-22.556,64.852-57.619,91.592-91.527,5.33-6.754,10.66-13.5,16.04-20.138,75.85-93.524,158.02-152.579,244.51-175.748m-300.51,535.58q11.31-3.036,22.46-6.425c67.58-20.607,85-63.871,105.16-113.969,8-19.872,16.27-40.416,28.27-61.24q54.33-94.278,108.65-188.584l52.31-90.809c6.97-12.1,14.87-25.811,16.97-40.781,1.92-13.8-2.15-31.476-15.59-39.9l-0.37-.23-0.42.088q-8.76,1.852-17.46,4.181c-86.93,23.3-169.49,82.587-245.65,176.483-5.39,6.641-10.72,13.395-16.05,20.158-26.63,33.757-54.17,68.664-91.022,91.021a202.162,202.162,0,0,1-52.952,22.264c-30.585,8.2-66.226,11.144-108.652,9.175-20.6-.954-41.523-2.895-61.756-4.771-34.607-3.212-70.395-6.533-105.709-5.014a232.08,232.08,0,0,0-50.159,7.262c-52.873,14.164-72.41,44.643-78.951,59.421-9.115,20.58-9.567,44.252-1.3,68.448a130.308,130.308,0,0,0,40.724,58.152c37.529,30.5,87.391,41.622,131.216,48.481,121.73,19.045,236.09,14.507,340.283-13.409" transform="translate(-12.031 -89)"/>
</svg>
