<svg width="109" height="17" viewBox="0 0 109 17" fill="none" xmlns="http://www.w3.org/2000/svg">
                                    <path fill-rule="evenodd" clip-rule="evenodd" d="M16.5278 6.14651L11.153 5.36785L8.75028 0.511558C8.68188 0.395566 8.55701 0.324341 8.42207 0.324341C8.28712 0.324341 8.16226 0.395566 8.09386 0.511558L5.69003 5.36676L0.313811 6.14651C0.175902 6.16636 0.0612491 6.26255 0.0180498 6.39464C-0.0251494 6.52673 0.0105956 6.67182 0.110258 6.76892L4.00046 10.5494L3.08228 15.8872C3.05885 16.024 3.11528 16.1623 3.2279 16.2439C3.34052 16.3256 3.48982 16.3364 3.61313 16.272L8.42078 13.752L13.2284 16.2709C13.3518 16.3353 13.5011 16.3245 13.6137 16.2428C13.7263 16.1612 13.7827 16.023 13.7593 15.8861L12.8411 10.5494L16.7313 6.76892C16.831 6.67187 16.8667 6.52685 16.8236 6.39478C16.7805 6.2627 16.666 6.16647 16.5281 6.14651H16.5278Z" fill="#FFC700"></path>
                                    <path fill-rule="evenodd" clip-rule="evenodd" d="M39.3715 6.14642L33.9968 5.36776L31.594 0.511466C31.5256 0.395474 31.4008 0.324249 31.2658 0.324249C31.1309 0.324249 31.006 0.395474 30.9376 0.511466L28.5338 5.36666L23.1576 6.14642C23.0197 6.16627 22.905 6.26245 22.8618 6.39455C22.8186 6.52664 22.8543 6.67173 22.954 6.76883L26.8442 10.5493L25.926 15.8871C25.9026 16.024 25.959 16.1622 26.0717 16.2438C26.1843 16.3255 26.3336 16.3363 26.4569 16.2719L31.2645 13.7519L36.0722 16.2708C36.1955 16.3352 36.3448 16.3244 36.4574 16.2427C36.57 16.1611 36.6265 16.0229 36.603 15.886L35.6849 10.5493L39.5751 6.76883C39.6747 6.67178 39.7105 6.52676 39.6674 6.39468C39.6243 6.26261 39.5097 6.16638 39.3719 6.14642H39.3715Z" fill="#FFC700"></path>
                                    <path fill-rule="evenodd" clip-rule="evenodd" d="M62.2153 6.14642L56.8405 5.36776L54.4378 0.511466C54.3694 0.395474 54.2445 0.324249 54.1096 0.324249C53.9746 0.324249 53.8498 0.395474 53.7814 0.511466L51.3775 5.36666L46.0013 6.14642C45.8634 6.16627 45.7487 6.26245 45.7055 6.39455C45.6624 6.52664 45.6981 6.67173 45.7978 6.76883L49.688 10.5493L48.7698 15.8871C48.7463 16.024 48.8028 16.1622 48.9154 16.2438C49.028 16.3255 49.1773 16.3363 49.3006 16.2719L54.1083 13.7519L58.9159 16.2708C59.0393 16.3352 59.1886 16.3244 59.3012 16.2427C59.4138 16.1611 59.4702 16.0229 59.4468 15.886L58.5286 10.5493L62.4188 6.76883C62.5185 6.67178 62.5542 6.52676 62.5111 6.39468C62.468 6.26261 62.3535 6.16638 62.2156 6.14642H62.2153Z" fill="#FFC700"></path>
                                    <path fill-rule="evenodd" clip-rule="evenodd" d="M85.0629 6.14642L79.6882 5.36776L77.2854 0.511466C77.217 0.395474 77.0922 0.324249 76.9572 0.324249C76.8223 0.324249 76.6974 0.395474 76.629 0.511466L74.2252 5.36666L68.849 6.14642C68.7111 6.16627 68.5964 6.26245 68.5532 6.39455C68.51 6.52664 68.5458 6.67173 68.6454 6.76883L72.5356 10.5493L71.6174 15.8871C71.594 16.024 71.6504 16.1622 71.7631 16.2438C71.8757 16.3255 72.025 16.3363 72.1483 16.2719L76.9559 13.7519L81.7636 16.2708C81.8869 16.3352 82.0362 16.3244 82.1488 16.2427C82.2614 16.1611 82.3179 16.0229 82.2944 15.886L81.3763 10.5493L85.2665 6.76883C85.3661 6.67178 85.4019 6.52676 85.3588 6.39468C85.3157 6.26261 85.2011 6.16638 85.0633 6.14642H85.0629Z" fill="#FFC700"></path>
                                    <path fill-rule="evenodd" clip-rule="evenodd" d="M107.907 6.14642L102.532 5.36776L100.129 0.511466C100.061 0.395474 99.9359 0.324249 99.801 0.324249C99.666 0.324249 99.5412 0.395474 99.4728 0.511466L97.0689 5.36666L91.6927 6.14642C91.5548 6.16627 91.4402 6.26245 91.397 6.39455C91.3538 6.52664 91.3895 6.67173 91.4892 6.76883L95.3794 10.5493L94.4612 15.8871C94.4378 16.024 94.4942 16.1622 94.6068 16.2438C94.7194 16.3255 94.8687 16.3363 94.992 16.2719L99.7997 13.7519L104.607 16.2708C104.731 16.3352 104.88 16.3244 104.993 16.2427C105.105 16.1611 105.162 16.0229 105.138 15.886L104.22 10.5493L108.11 6.76883C108.21 6.67178 108.246 6.52676 108.203 6.39468C108.159 6.26261 108.045 6.16638 107.907 6.14642H107.907Z" fill="#FFC700"></path>
                                </svg>