<svg width="19" height="11" viewBox="0 0 19 11" fill="none" xmlns="http://www.w3.org/2000/svg">
<g clip-path="url(#clip0_26_155)">
<path d="M9.52035 11C9.94547 10.9971 10.3529 10.8314 10.6568 10.5377L18.5176 2.77095C18.8261 2.46787 19.0001 2.05613 19.0013 1.62632C19.0025 1.19651 18.8308 0.783827 18.5241 0.479061C18.2173 0.174296 17.8006 0.00241203 17.3656 0.00121996C16.9306 2.78852e-05 16.5129 0.169626 16.2044 0.472706L9.49988 7.09582L2.79651 0.472707C2.64393 0.322675 2.46294 0.203804 2.26386 0.122884C2.06478 0.0419625 1.85153 0.000576894 1.63626 0.00108712C1.421 0.00159639 1.20794 0.043992 1.00926 0.125855C0.810582 0.207718 0.630166 0.327444 0.478316 0.478196C0.326466 0.628949 0.206156 0.807776 0.124255 1.00447C0.0423538 1.20116 0.000464889 1.41187 0.000980862 1.62455C0.00149683 1.83724 0.0444072 2.04774 0.127262 2.24405C0.210117 2.44035 0.331293 2.6186 0.483873 2.76864L8.34473 10.5354C8.5 10.6858 8.68403 10.8041 8.88607 10.8835C9.08811 10.9628 9.30413 11.0017 9.52152 10.9977L9.52035 11Z" fill="black"/>
</g>
<defs>
<clipPath id="clip0_26_155">
<rect y="11" width="11" height="19" rx="5.5" transform="rotate(-90 0 11)" fill="white"/>
</clipPath>
</defs>
</svg>
