<svg width="276" height="275" viewBox="0 0 276 275" fill="none" xmlns="http://www.w3.org/2000/svg">
<path d="M137.507 208.752C70.5827 208.752 17.6727 144.688 15.4627 141.984C14.5167 140.824 14 139.373 14 137.876C14 136.379 14.5167 134.928 15.4627 133.768C17.6727 131.038 70.5827 67 137.507 67C204.431 67 257.341 131.038 259.551 133.768C260.497 134.928 261.013 136.379 261.013 137.876C261.013 139.373 260.497 140.824 259.551 141.984C257.341 144.688 204.431 208.752 137.507 208.752ZM24.2633 137.876C36.8993 151.708 86.1047 200.653 137.507 200.653C188.909 200.653 238.14 151.708 250.75 137.876C238.114 124.044 188.935 75.0986 137.507 75.0986C86.0787 75.0986 36.8993 124.044 24.2633 137.876Z" fill="black"/>
<path d="M175.746 141.558C175.081 148.758 172.378 155.619 167.956 161.339C163.533 167.059 157.573 171.401 150.773 173.858C143.973 176.314 136.613 176.783 129.556 175.209C122.499 173.636 116.036 170.085 110.924 164.972C105.811 159.86 102.26 153.397 100.687 146.34C99.1133 139.283 99.5821 131.923 102.038 125.123C104.495 118.323 108.837 112.363 114.557 107.94C120.277 103.518 127.138 100.815 134.338 100.15C130.123 105.853 128.094 112.879 128.622 119.951C129.149 127.022 132.197 133.67 137.212 138.684C142.226 143.699 148.874 146.747 155.945 147.274C163.017 147.802 170.043 145.773 175.746 141.558Z" stroke="black" stroke-width="8.57742" stroke-linecap="round" stroke-linejoin="round"/>
</svg>
