<svg width="275" height="275" viewBox="0 0 275 275" fill="none" xmlns="http://www.w3.org/2000/svg">
<path d="M217.965 60H56.3009C50.6536 60.0063 45.2394 62.2524 41.2461 66.2456C37.2528 70.2388 35.0065 75.653 35 81.3003V194.296C35.0065 199.943 37.2527 205.357 41.246 209.351C45.2393 213.344 50.6534 215.59 56.3008 215.596H217.965C223.613 215.59 229.027 213.344 233.02 209.351C237.013 205.357 239.26 199.943 239.266 194.296V81.3003C239.26 75.653 237.013 70.2389 233.02 66.2457C229.027 62.2525 223.613 60.0064 217.965 60V60ZM56.3009 68.5938H217.965C221.334 68.5975 224.564 69.9374 226.946 72.3195C229.329 74.7016 230.669 77.9314 230.672 81.3003V151.433H43.5938V81.3003C43.5976 77.9314 44.9377 74.7016 47.3199 72.3195C49.7021 69.9374 52.9319 68.5975 56.3008 68.5938H56.3009ZM217.965 207.003H56.3009C52.9319 206.999 49.7021 205.659 47.3198 203.277C44.9376 200.895 43.5976 197.665 43.5938 194.296V160.027H230.672V194.296C230.669 197.665 229.329 200.894 226.946 203.277C224.564 205.659 221.334 206.999 217.965 207.003V207.003Z" fill="black"/>
<path d="M129.967 168.06C128.827 168.06 127.734 168.513 126.928 169.319C126.123 170.125 125.67 171.217 125.67 172.357V179.218H116.894V172.357C116.894 171.217 116.441 170.125 115.635 169.319C114.829 168.513 113.736 168.06 112.597 168.06C111.457 168.06 110.364 168.513 109.558 169.319C108.753 170.125 108.3 171.217 108.3 172.357V194.673C108.3 195.812 108.753 196.905 109.558 197.711C110.364 198.517 111.457 198.97 112.597 198.97C113.736 198.97 114.829 198.517 115.635 197.711C116.441 196.905 116.894 195.812 116.894 194.673V187.812H125.67V194.673C125.67 195.812 126.123 196.905 126.928 197.711C127.734 198.517 128.827 198.97 129.967 198.97C131.106 198.97 132.199 198.517 133.005 197.711C133.811 196.905 134.264 195.812 134.264 194.673V172.357C134.264 171.217 133.811 170.125 133.005 169.319C132.199 168.513 131.106 168.06 129.967 168.06Z" fill="black"/>
<path d="M150.512 168.06H145.587C144.447 168.06 143.354 168.513 142.549 169.319C141.743 170.125 141.29 171.217 141.29 172.357V194.673C141.29 195.812 141.743 196.905 142.549 197.711C143.354 198.517 144.447 198.97 145.587 198.97H150.512C154.61 198.97 158.541 197.341 161.44 194.443C164.338 191.545 165.966 187.614 165.966 183.515C165.966 179.416 164.338 175.485 161.44 172.587C158.541 169.688 154.61 168.06 150.512 168.06V168.06ZM150.512 190.376H149.884V176.654H150.512C152.331 176.654 154.076 177.377 155.363 178.663C156.65 179.95 157.373 181.695 157.373 183.515C157.373 185.335 156.65 187.08 155.363 188.366C154.076 189.653 152.331 190.376 150.512 190.376V190.376Z" fill="black"/>
<path d="M79.0616 99.5908L81.0212 97.6852V130.991C81.0212 132.131 81.4739 133.224 82.2798 134.03C83.0856 134.836 84.1785 135.288 85.3181 135.288C86.4577 135.288 87.5506 134.836 88.3565 134.03C89.1623 133.224 89.615 132.131 89.615 130.991V87.5132C89.615 86.6685 89.366 85.8425 88.8991 85.1385C88.4323 84.4345 87.7683 83.8838 86.9902 83.5551C86.212 83.2264 85.3543 83.1343 84.5241 83.2904C83.6939 83.4465 82.9282 83.8438 82.3226 84.4327L73.0705 93.4298C72.664 93.8227 72.339 94.292 72.1141 94.8107C71.8893 95.3295 71.7691 95.8875 71.7603 96.4528C71.7515 97.0181 71.8544 97.5796 72.063 98.1051C72.2717 98.6306 72.582 99.1097 72.9761 99.515C73.3703 99.9204 73.8405 100.244 74.36 100.467C74.8794 100.69 75.4378 100.809 76.0032 100.816C76.5685 100.823 77.1297 100.718 77.6545 100.508C78.1793 100.298 78.6575 99.9862 79.0616 99.5908Z" fill="black"/>
<path d="M113.008 135.288C117.239 135.283 121.295 133.601 124.287 130.609C127.279 127.617 128.961 123.561 128.966 119.33V99.1744C128.966 94.942 127.285 90.8829 124.292 87.8901C121.3 84.8974 117.24 83.2161 113.008 83.2161C108.776 83.2161 104.717 84.8974 101.724 87.8901C98.7311 90.8829 97.0498 94.942 97.0498 99.1744V119.33C97.0546 123.561 98.7374 127.617 101.729 130.609C104.721 133.601 108.777 135.283 113.008 135.288V135.288ZM105.644 99.1744C105.644 97.2212 106.419 95.348 107.801 93.9669C109.182 92.5857 111.055 91.8098 113.008 91.8098C114.961 91.8098 116.834 92.5857 118.216 93.9669C119.597 95.348 120.373 97.2212 120.373 99.1744V119.33C120.373 121.283 119.597 123.156 118.216 124.538C116.834 125.919 114.961 126.695 113.008 126.695C111.055 126.695 109.182 125.919 107.801 124.538C106.419 123.156 105.644 121.283 105.644 119.33V99.1744Z" fill="black"/>
<path d="M186.539 135.288C190.77 135.283 194.826 133.601 197.818 130.609C200.81 127.617 202.492 123.561 202.497 119.33V99.1744C202.501 97.0763 202.091 94.998 201.291 93.0585C200.491 91.119 199.316 89.3563 197.834 87.8714C196.351 86.3865 194.591 85.2084 192.653 84.4046C190.715 83.6008 188.637 83.187 186.539 83.187C184.441 83.187 182.363 83.6008 180.425 84.4046C178.487 85.2084 176.727 86.3865 175.245 87.8714C173.763 89.3563 172.588 91.119 171.787 93.0585C170.987 94.998 170.577 97.0763 170.581 99.1744V119.33C170.586 123.561 172.269 127.617 175.26 130.609C178.252 133.601 182.308 135.283 186.539 135.288V135.288ZM179.175 99.1744C179.172 98.2056 179.361 97.2458 179.73 96.3501C180.099 95.4543 180.641 94.6401 181.325 93.9542C182.009 93.2682 182.822 92.724 183.716 92.3527C184.611 91.9813 185.57 91.7902 186.539 91.7902C187.508 91.7902 188.467 91.9813 189.362 92.3527C190.257 92.724 191.069 93.2682 191.753 93.9542C192.438 94.6401 192.98 95.4543 193.349 96.3501C193.717 97.2458 193.906 98.2056 193.903 99.1744V119.33C193.906 120.299 193.717 121.259 193.349 122.154C192.98 123.05 192.438 123.864 191.753 124.55C191.069 125.236 190.257 125.78 189.362 126.152C188.467 126.523 187.508 126.714 186.539 126.714C185.57 126.714 184.611 126.523 183.716 126.152C182.822 125.78 182.009 125.236 181.325 124.55C180.641 123.864 180.099 123.05 179.73 122.154C179.361 121.259 179.172 120.299 179.175 119.33V99.1744Z" fill="black"/>
<path d="M133.984 121.768C133.989 125.822 135.602 129.708 138.468 132.575C141.335 135.441 145.221 137.053 149.275 137.058H150.329C153.473 137.059 156.541 136.091 159.115 134.285C161.688 132.479 163.642 129.923 164.71 126.966C165.778 124.008 165.908 120.794 165.082 117.76C164.256 114.726 162.514 112.021 160.095 110.014C162.514 108.006 164.256 105.301 165.082 102.267C165.908 99.2334 165.778 96.0188 164.71 93.0616C163.642 90.1044 161.688 87.5485 159.115 85.7425C156.541 83.9364 153.473 82.9681 150.329 82.9696H149.275C146.131 82.968 143.062 83.9362 140.489 85.7422C137.915 87.5482 135.961 90.1041 134.893 93.0614C133.825 96.0186 133.695 99.2333 134.521 102.267C135.347 105.301 137.089 108.006 139.508 110.014C137.78 111.446 136.389 113.242 135.434 115.274C134.479 117.306 133.984 119.523 133.984 121.768V121.768ZM150.329 128.464H149.275C147.499 128.464 145.796 127.759 144.54 126.503C143.284 125.247 142.578 123.544 142.578 121.768C142.578 119.992 143.284 118.289 144.54 117.033C145.796 115.777 147.499 115.072 149.275 115.072H150.329C152.105 115.072 153.808 115.777 155.064 117.033C156.32 118.289 157.025 119.992 157.025 121.768C157.025 123.544 156.32 125.247 155.064 126.503C153.808 127.759 152.105 128.464 150.329 128.464V128.464ZM149.275 91.563H150.329C152.105 91.563 153.808 92.2685 155.064 93.5243C156.32 94.78 157.025 96.4832 157.025 98.2591C157.025 100.035 156.32 101.738 155.064 102.994C153.808 104.25 152.105 104.955 150.329 104.955H149.275C147.499 104.955 145.796 104.25 144.54 102.994C143.284 101.738 142.579 100.035 142.579 98.2591C142.579 96.4832 143.284 94.78 144.54 93.5243C145.796 92.2685 147.499 91.563 149.275 91.563Z" fill="black"/>
</svg>
