<svg width="275" height="275" viewBox="0 0 275 275" fill="none" xmlns="http://www.w3.org/2000/svg">
<path d="M137.226 41C130.267 41 123.592 43.7645 118.672 48.6853C113.751 53.6061 110.986 60.2802 110.986 67.2393V137.211C110.986 144.17 113.751 150.844 118.672 155.765C123.592 160.686 130.267 163.45 137.226 163.45C144.185 163.45 150.859 160.686 155.78 155.765C160.7 150.844 163.465 144.17 163.465 137.211V67.2393C163.465 60.2802 160.7 53.6061 155.78 48.6853C150.859 43.7645 144.185 41 137.226 41V41Z" stroke="black" stroke-width="9.576" stroke-linecap="round" stroke-linejoin="round"/>
<path d="M198.45 119.718V137.211C198.45 153.449 192 169.022 180.518 180.503C169.036 191.985 153.463 198.436 137.225 198.436C120.987 198.436 105.414 191.985 93.9324 180.503C82.4505 169.022 76 153.449 76 137.211V119.718" stroke="black" stroke-width="9.576" stroke-linecap="round" stroke-linejoin="round"/>
<path d="M137.227 198.436V233.422" stroke="black" stroke-width="9.576" stroke-linecap="round" stroke-linejoin="round"/>
<path d="M102.24 233.422H172.212" stroke="black" stroke-width="9.576" stroke-linecap="round" stroke-linejoin="round"/>
</svg>
