<svg width="275" height="275" viewBox="0 0 275 275" fill="none" xmlns="http://www.w3.org/2000/svg">
<g clip-path="url(#clip0_9_165)">
<path d="M235.691 132.853C235.41 130.747 233.473 129.268 231.369 129.548C229.262 129.829 227.783 131.765 228.063 133.871C228.223 135.071 228.305 136.292 228.305 137.5C228.305 150.446 219.15 162.785 202.526 172.246C185.219 182.095 162.126 187.52 137.5 187.52C121.939 187.52 106.992 185.351 93.7283 181.272C89.6486 168.008 87.4805 153.061 87.4805 137.5C87.4805 112.874 92.9049 89.7806 102.754 72.4738C112.215 55.85 124.554 46.6953 137.5 46.6953C148.363 46.6953 157.014 52.9601 163.242 59.8478H159.302C157.177 59.8478 155.454 61.5704 155.454 63.6954C155.454 65.8205 157.177 67.5431 159.302 67.5431H171.239C173.364 67.5431 175.087 65.8205 175.087 63.6954V51.7577C175.087 49.6326 173.364 47.91 171.239 47.91C169.114 47.91 167.391 49.6326 167.391 51.7577V53.0539C158.468 43.9242 148.114 39 137.5 39C121.668 39 106.954 49.536 96.0657 68.6674C85.567 87.1157 79.7852 111.561 79.7852 137.5C79.7852 151.752 81.5343 165.551 84.8487 178.154C80.4685 176.411 76.3269 174.439 72.4738 172.245C55.8504 162.785 46.6953 150.446 46.6953 137.5C46.6953 126.572 53.0339 117.883 59.9697 111.646V115.566C59.9697 117.691 61.6927 119.414 63.8174 119.414C65.9421 119.414 67.665 117.691 67.665 115.566V103.629C67.665 101.504 65.9421 99.781 63.8174 99.781H51.88C49.7554 99.781 48.0324 101.504 48.0324 103.629C48.0324 105.754 49.7554 107.476 51.88 107.476H53.1913C43.9742 116.43 39 126.834 39 137.5C39 153.331 49.536 168.046 68.6674 178.934C74.4442 182.221 80.809 185.046 87.6236 187.376C89.9534 194.191 92.7783 200.556 96.0657 206.332C106.954 225.464 121.668 236 137.5 236C146.576 236 155.589 232.391 163.564 225.564C165.178 224.182 165.367 221.753 163.985 220.138C162.604 218.524 160.175 218.336 158.56 219.717C151.904 225.416 144.819 228.305 137.5 228.305C124.554 228.305 112.215 219.15 102.754 202.526C100.561 198.673 98.589 194.531 96.8461 190.151C109.449 193.466 123.248 195.215 137.5 195.215C163.439 195.215 187.884 189.433 206.333 178.934C225.464 168.046 236 153.331 236 137.5C236 135.952 235.896 134.389 235.691 132.853Z" fill="black"/>
<path d="M230.961 119.077C230.957 119.07 230.951 119.058 230.945 119.048C229.923 117.204 227.604 116.524 225.746 117.529C223.878 118.541 223.183 120.876 224.196 122.745C224.201 122.755 224.222 122.792 224.227 122.802C224.929 124.071 226.243 124.788 227.597 124.788C228.228 124.788 228.866 124.633 229.457 124.306C231.316 123.278 231.99 120.937 230.961 119.077Z" fill="black"/>
<path d="M173.436 208.225C171.71 206.989 169.293 207.408 168.054 209.13C168.047 209.139 168.04 209.148 168.034 209.157C166.81 210.89 167.201 213.312 168.931 214.54C169.6 215.015 170.372 215.243 171.138 215.243C172.353 215.243 173.553 214.671 174.309 213.612C175.541 211.885 175.161 209.461 173.436 208.225Z" fill="black"/>
<path d="M164.631 126.416C164.565 121.005 160.124 116.603 154.731 116.603H141.16V106.454C141.16 105.261 142.131 104.29 143.324 104.29H154.481C156.605 104.29 158.328 102.568 158.328 100.442C158.328 98.3174 156.605 96.5948 154.481 96.5948H143.324C137.888 96.5948 133.465 101.018 133.465 106.454V137.516C133.465 142.953 137.888 147.376 143.324 147.376H154.731C160.124 147.376 164.565 142.974 164.631 137.563C164.631 137.547 164.631 137.532 164.631 137.516V126.463C164.631 126.447 164.631 126.431 164.631 126.416ZM156.935 137.487C156.911 138.698 155.926 139.68 154.731 139.68H143.324C142.131 139.68 141.16 138.709 141.16 137.516V124.298H154.731V124.298C155.926 124.298 156.911 125.281 156.935 126.491V137.487Z" fill="black"/>
<path d="M190.17 96.5948H178.723C173.286 96.5948 168.863 101.018 168.863 106.454V137.516C168.863 142.953 173.286 147.376 178.723 147.376H190.17C195.606 147.376 200.029 142.953 200.029 137.516V106.454C200.029 101.018 195.606 96.5948 190.17 96.5948ZM192.334 137.516C192.334 138.71 191.363 139.68 190.17 139.68H178.723C177.529 139.68 176.559 138.71 176.559 137.516V106.454C176.559 105.261 177.529 104.29 178.723 104.29H190.17C191.363 104.29 192.334 105.261 192.334 106.454V137.516Z" fill="black"/>
<path d="M119.371 96.5948H109.547C104.11 96.5948 99.6875 101.018 99.6875 106.454V106.59C99.6875 108.715 101.41 110.438 103.535 110.438C105.66 110.438 107.383 108.715 107.383 106.59V106.454C107.383 105.261 108.354 104.29 109.547 104.29H119.371C120.564 104.29 121.535 105.261 121.535 106.454V118.138H111.666C109.541 118.138 107.818 119.86 107.818 121.985C107.818 124.111 109.541 125.833 111.666 125.833H121.535V137.516C121.535 138.71 120.564 139.68 119.371 139.68H109.547C108.354 139.68 107.383 138.71 107.383 137.516V136.984C107.383 134.859 105.66 133.136 103.535 133.136C101.41 133.136 99.6875 134.859 99.6875 136.984V137.516C99.6875 142.953 104.11 147.376 109.547 147.376H119.371C124.807 147.376 129.23 142.953 129.23 137.516V106.454C129.23 101.018 124.807 96.5948 119.371 96.5948Z" fill="black"/>
<path d="M215.589 90.2365C209.961 90.2365 205.383 94.8149 205.383 100.442C205.383 106.07 209.961 110.648 215.589 110.648C221.216 110.648 225.795 106.07 225.795 100.442C225.795 94.8149 221.216 90.2365 215.589 90.2365ZM215.589 102.953C214.205 102.953 213.078 101.826 213.078 100.442C213.078 99.0577 214.205 97.9315 215.589 97.9315C216.973 97.9315 218.099 99.0577 218.099 100.442C218.099 101.826 216.973 102.953 215.589 102.953Z" fill="black"/>
</g>
<defs>
<clipPath id="clip0_9_165">
<rect width="197" height="197" fill="white" transform="translate(39 39)"/>
</clipPath>
</defs>
</svg>
