<svg width="275" height="275" viewBox="0 0 275 275" fill="none" xmlns="http://www.w3.org/2000/svg">
<path d="M182.875 38.8587H92.125C83.7717 38.8587 77 45.653 77 54.0343V220.966C77 229.347 83.7717 236.141 92.125 236.141H182.875C191.228 236.141 198 229.347 198 220.966V54.0343C198 45.653 191.228 38.8587 182.875 38.8587Z" stroke="black" stroke-width="7.3311" stroke-linecap="round" stroke-linejoin="round"/>
<path d="M77 69.2099H198" stroke="black" stroke-width="7.3311" stroke-linecap="round" stroke-linejoin="round"/>
<path d="M77 201.191H198" stroke="black" stroke-width="7.3311" stroke-linecap="round" stroke-linejoin="round"/>
<path d="M137.041 152.446C149.001 152.446 158.697 142.717 158.697 130.717C158.697 118.717 149.001 108.988 137.041 108.988C125.081 108.988 115.385 118.717 115.385 130.717C115.385 142.717 125.081 152.446 137.041 152.446Z" stroke="black" stroke-width="5.49833" stroke-linecap="round" stroke-linejoin="round"/>
<path d="M137.041 140.374C142.357 140.374 146.666 136.05 146.666 130.717C146.666 125.383 142.357 121.06 137.041 121.06C131.725 121.06 127.416 125.383 127.416 130.717C127.416 136.05 131.725 140.374 137.041 140.374Z" fill="black" stroke="black" stroke-width="5.49833" stroke-linecap="round" stroke-linejoin="round"/>
<path d="M137.5 151.986V161.643" stroke="black" stroke-width="5.49833" stroke-linecap="round" stroke-linejoin="round"/>
<path d="M108.166 162.103H165.916" stroke="black" stroke-width="5.49833" stroke-linecap="round" stroke-linejoin="round"/>
<path d="M127.379 54.0669H146.898" stroke="black" stroke-width="4.58194" stroke-linecap="round"/>
<circle cx="137.917" cy="218.1" r="8.24749" stroke="black" stroke-width="4.58194"/>
</svg>
