<svg width="276" height="275" viewBox="0 0 276 275" fill="none" xmlns="http://www.w3.org/2000/svg">
<path d="M137.5 39C91.6938 39 54.4277 76.2661 54.4277 122.072C54.4277 141.862 61.3699 160.686 74.0894 175.683C76.0728 178.022 79.6702 177.819 81.5548 175.4V175.4C83.1066 173.408 82.9349 170.589 81.2861 168.676C70.0885 155.69 63.9707 139.305 63.9707 122.072C63.9707 82.6309 98.0586 48.543 137.5 48.543C176.942 48.543 211.03 82.6309 211.03 122.072C211.03 139.305 204.912 155.69 193.714 168.677C192.066 170.589 191.894 173.408 193.445 175.4V175.4C195.33 177.819 198.927 178.022 200.911 175.683C213.631 160.686 220.573 141.862 220.573 122.073C220.573 76.2661 183.307 39 137.5 39Z" fill="black"/>
<path d="M171.396 153.946C173.28 156.365 176.886 156.57 178.772 154.153C185.914 145.003 189.791 133.807 189.791 122.073C189.791 93.2389 166.334 69.7812 137.5 69.7812C108.667 69.7812 85.209 93.2389 85.209 122.072C85.209 133.808 89.0863 145.003 96.2285 154.153C98.1153 156.57 101.721 156.365 103.605 153.946V153.946C105.157 151.954 104.971 149.142 103.412 147.157C97.7999 140.009 94.752 131.251 94.752 122.072C94.752 99.6037 115.032 79.3242 137.5 79.3242C159.969 79.3242 180.248 99.6037 180.248 122.072C180.248 131.251 177.2 140.009 171.588 147.157C170.029 149.143 169.844 151.954 171.396 153.946V153.946Z" fill="black"/>
<path d="M137.501 170.333C140.136 170.333 142.273 168.197 142.273 165.562V154.119C142.273 150.377 144.933 147.236 148.298 145.601C157.173 141.287 163.794 132.363 163.794 122.072C163.794 107.575 151.999 95.7802 137.501 95.7802C123.004 95.7802 111.209 107.575 111.209 122.072C111.209 132.363 117.83 141.287 126.704 145.601C130.07 147.236 132.73 150.377 132.73 154.119V165.562C132.73 168.197 134.866 170.333 137.501 170.333V170.333ZM137.501 105.323C145.634 105.323 154.251 113.94 154.251 122.072C154.251 130.205 145.634 138.822 137.501 138.822C129.368 138.822 120.752 130.205 120.752 122.072C120.752 113.94 129.368 105.323 137.501 105.323Z" fill="black"/>
<path d="M162.14 213.553H176.181C174.723 219.358 170.835 224.457 163.269 224.457C154.074 224.457 146.594 216.976 146.594 207.782C146.594 198.587 154.074 191.107 163.269 191.107C166.611 191.107 169.834 192.091 172.589 193.951L179.05 184.386C174.38 181.231 168.923 179.564 163.269 179.564C147.71 179.564 135.051 192.222 135.051 207.782C135.051 223.341 147.709 236 163.269 236C178.076 236 188.417 224.396 188.417 207.782V202.01H162.14V213.553Z" fill="black"/>
<path d="M105.748 235.978C105.616 235.98 105.748 235.978 105.748 235.978V235.978Z" fill="black"/>
<path d="M119.738 203.403C116.11 199.582 111.01 197.391 105.747 197.391C105.022 197.391 104.334 197.408 103.674 197.444L104.728 191.085H122.94V179.542H94.9396L90.4748 206.492L97.3675 211.032L100.197 209.857C101.413 209.352 102.671 208.934 105.747 208.934C107.891 208.934 109.887 209.793 111.367 211.352C112.845 212.909 113.598 214.952 113.486 217.105C113.277 221.134 109.949 224.353 105.909 224.434C101.995 224.51 98.6118 221.65 98.0712 217.774L86.6387 219.369C87.9692 228.903 96.1462 235.98 105.748 235.979C115.809 235.776 124.492 227.746 125.014 217.704C125.292 212.357 123.418 207.278 119.738 203.403V203.403Z" fill="black"/>
</svg>
