<svg width="275" height="275" viewBox="0 0 275 275" fill="none" xmlns="http://www.w3.org/2000/svg">
<g clip-path="url(#clip0_45_36)">
<path d="M250.644 132.146C250.32 129.719 248.088 128.014 245.663 128.338C243.236 128.661 241.531 130.891 241.855 133.319C242.039 134.701 242.133 136.108 242.133 137.5C242.133 152.417 231.584 166.636 212.429 177.537C192.486 188.886 165.876 195.137 137.5 195.137C119.569 195.137 102.346 192.638 87.0626 187.937C82.3616 172.654 79.8633 155.431 79.8633 137.5C79.8633 109.124 86.1138 82.5137 97.4629 62.5714C108.364 43.416 122.583 32.8672 137.5 32.8672C150.018 32.8672 159.985 40.086 167.163 48.0225H162.622C160.173 48.0225 158.188 50.0075 158.188 52.4561C158.188 54.9048 160.173 56.8897 162.622 56.8897H176.377C178.825 56.8897 180.81 54.9048 180.81 52.4561V38.7005C180.81 36.2518 178.825 34.2669 176.377 34.2669C173.929 34.2669 171.943 36.2518 171.943 38.7005V40.1941C161.661 29.6741 149.73 24 137.5 24C119.258 24 102.302 36.1405 89.756 58.1852C77.6585 79.443 70.9961 107.61 70.9961 137.5C70.9961 153.923 73.0116 169.823 76.8307 184.345C71.7835 182.336 67.0112 180.064 62.5714 177.537C43.4165 166.636 32.8672 152.417 32.8672 137.5C32.8672 124.908 40.1711 114.895 48.1631 107.708V112.226C48.1631 114.675 50.1484 116.66 52.5967 116.66C55.0449 116.66 57.0303 114.675 57.0303 112.226V98.4706C57.0303 96.022 55.0449 94.037 52.5967 94.037H38.8415C36.3932 94.037 34.4079 96.022 34.4079 98.4706C34.4079 100.919 36.3932 102.904 38.8415 102.904H40.3524C29.7317 113.222 24 125.209 24 137.5C24 155.742 36.1405 172.698 58.1852 185.244C64.8418 189.032 72.1759 192.287 80.0282 194.971C82.7128 202.824 85.9679 210.158 89.756 216.814C102.302 238.859 119.258 251 137.5 251C147.958 251 158.344 246.842 167.534 238.974C169.393 237.382 169.611 234.583 168.019 232.723C166.427 230.863 163.628 230.646 161.767 232.238C154.098 238.804 145.933 242.133 137.5 242.133C122.583 242.133 108.364 231.584 97.4629 212.429C94.9362 207.988 92.6635 203.216 90.6551 198.169C105.177 201.988 121.077 204.004 137.5 204.004C167.39 204.004 195.557 197.342 216.815 185.244C238.859 172.698 251 155.742 251 137.5C251 135.717 250.88 133.915 250.644 132.146Z" fill="#0026BA"/>
<path d="M245.193 116.271C245.188 116.264 245.181 116.25 245.174 116.238C243.997 114.113 241.325 113.329 239.184 114.488C237.031 115.654 236.231 118.345 237.397 120.498C237.404 120.509 237.427 120.552 237.434 120.564C238.242 122.026 239.756 122.852 241.317 122.852C242.043 122.852 242.779 122.673 243.46 122.297C245.602 121.112 246.378 118.414 245.193 116.271Z" fill="#0026BA"/>
<path d="M178.909 218.995C176.92 217.571 174.135 218.054 172.707 220.038C172.699 220.049 172.692 220.059 172.684 220.069C171.274 222.066 171.724 224.857 173.718 226.273C174.489 226.82 175.378 227.082 176.261 227.082C177.661 227.082 179.044 226.423 179.915 225.203C181.335 223.212 180.896 220.419 178.909 218.995Z" fill="#0026BA"/>
<path d="M168.763 124.728C168.687 118.493 163.57 113.421 157.355 113.421H141.718V101.727C141.718 100.351 142.836 99.2328 144.212 99.2328H157.067C159.515 99.2328 161.5 97.2478 161.5 94.7992C161.5 92.3505 159.515 90.3656 157.067 90.3656H144.212C137.947 90.3656 132.851 95.462 132.851 101.727V137.519C132.851 143.783 137.947 148.88 144.212 148.88H157.355C163.57 148.88 168.687 143.807 168.763 137.572C168.763 137.554 168.763 137.536 168.763 137.519V124.782C168.763 124.764 168.763 124.746 168.763 124.728ZM159.895 137.485C159.867 138.88 158.732 140.012 157.355 140.012H144.211C142.836 140.012 141.717 138.893 141.717 137.518V122.287H157.355V122.288C158.732 122.288 159.868 123.42 159.895 124.815V137.485Z" fill="#0026BA"/>
<path d="M198.191 90.3656H185.001C178.736 90.3656 173.64 95.462 173.64 101.727V137.519C173.64 143.783 178.736 148.88 185.001 148.88H198.191C204.455 148.88 209.552 143.783 209.552 137.519V101.727C209.552 95.462 204.455 90.3656 198.191 90.3656ZM200.685 137.519C200.685 138.894 199.566 140.013 198.191 140.013H185.001C183.625 140.013 182.507 138.894 182.507 137.519V101.727C182.507 100.351 183.625 99.2328 185.001 99.2328H198.191C199.566 99.2328 200.685 100.351 200.685 101.727V137.519Z" fill="#0026BA"/>
<path d="M116.609 90.3656H105.29C99.0251 90.3656 93.9287 95.462 93.9287 101.727V101.883C93.9287 104.332 95.9141 106.317 98.3623 106.317C100.811 106.317 102.796 104.332 102.796 101.883V101.727C102.796 100.351 103.914 99.2328 105.29 99.2328H116.609C117.985 99.2328 119.103 100.351 119.103 101.727V115.189H107.731C105.283 115.189 103.297 117.174 103.297 119.623C103.297 122.072 105.283 124.056 107.731 124.056H119.103V137.519C119.103 138.894 117.985 140.013 116.609 140.013H105.29C103.914 140.013 102.796 138.894 102.796 137.519V136.905C102.796 134.456 100.811 132.471 98.3623 132.471C95.9141 132.471 93.9287 134.456 93.9287 136.905V137.519C93.9287 143.783 99.0251 148.88 105.29 148.88H116.609C122.874 148.88 127.97 143.783 127.97 137.519V101.727C127.97 95.462 122.874 90.3656 116.609 90.3656Z" fill="#0026BA"/>
<path d="M227.48 83.0391C220.995 83.0391 215.72 88.3146 215.72 94.7992C215.72 101.284 220.995 106.559 227.48 106.559C233.964 106.559 239.24 101.284 239.24 94.7992C239.24 88.3146 233.964 83.0391 227.48 83.0391ZM227.48 97.6917C225.885 97.6917 224.587 96.3939 224.587 94.7987C224.587 93.2035 225.885 91.9058 227.48 91.9058C229.075 91.9058 230.373 93.2035 230.373 94.7987C230.373 96.3939 229.075 97.6917 227.48 97.6917Z" fill="#0026BA"/>
</g>
<defs>
<clipPath id="clip0_45_36">
<rect width="227" height="227" fill="white" transform="translate(24 24)"/>
</clipPath>
</defs>
</svg>
