<svg width="275" height="275" viewBox="0 0 275 275" fill="none" xmlns="http://www.w3.org/2000/svg">
<path d="M137.775 25C129.617 25 121.793 28.2408 116.024 34.0096C110.255 39.7783 107.015 47.6024 107.015 55.7607V137.789C107.015 145.947 110.255 153.772 116.024 159.54C121.793 165.309 129.617 168.55 137.775 168.55C145.934 168.55 153.758 165.309 159.526 159.54C165.295 153.772 168.536 145.947 168.536 137.789V55.7607C168.536 47.6024 165.295 39.7783 159.526 34.0096C153.758 28.2408 145.934 25 137.775 25V25Z" stroke="#0026BA" stroke-width="11.2261" stroke-linecap="round" stroke-linejoin="round"/>
<path d="M209.55 117.282V137.789C209.55 156.825 201.988 175.081 188.527 188.542C175.067 202.002 156.811 209.564 137.775 209.564C118.739 209.564 100.483 202.002 87.0224 188.542C73.562 175.081 66 156.825 66 137.789V117.282" stroke="#0026BA" stroke-width="11.2261" stroke-linecap="round" stroke-linejoin="round"/>
<path d="M137.776 209.564V250.578" stroke="#0026BA" stroke-width="11.2261" stroke-linecap="round" stroke-linejoin="round"/>
<path d="M96.7617 250.578H178.79" stroke="#0026BA" stroke-width="11.2261" stroke-linecap="round" stroke-linejoin="round"/>
</svg>
