<svg width="276" height="275" viewBox="0 0 276 275" fill="none" xmlns="http://www.w3.org/2000/svg">
<path d="M137.652 213.248C65.7724 213.248 8.94465 144.44 6.57101 141.536C5.55491 140.29 5 138.732 5 137.124C5 135.516 5.55491 133.958 6.57101 132.712C8.94465 129.78 65.7724 61 137.652 61C209.531 61 266.359 129.78 268.732 132.712C269.749 133.958 270.303 135.516 270.303 137.124C270.303 138.732 269.749 140.29 268.732 141.536C266.359 144.44 209.531 213.248 137.652 213.248ZM16.0233 137.124C29.5949 151.98 82.4437 204.55 137.652 204.55C192.86 204.55 245.736 151.98 259.28 137.124C245.709 122.268 192.888 69.6983 137.652 69.6983C82.4158 69.6983 29.5949 122.268 16.0233 137.124Z" fill="#0026BA"/>
<path d="M178.723 141.079C178.008 148.811 175.106 156.181 170.356 162.324C165.606 168.468 159.205 173.132 151.901 175.77C144.597 178.408 136.693 178.912 129.113 177.221C121.534 175.531 114.592 171.718 109.101 166.226C103.61 160.735 99.796 153.794 98.106 146.214C96.4159 138.635 96.9194 130.731 99.5576 123.427C102.196 116.123 106.86 109.721 113.003 104.971C119.147 100.221 126.516 97.3193 134.249 96.6047C129.722 102.73 127.543 110.276 128.109 117.871C128.676 125.467 131.95 132.607 137.335 137.992C142.721 143.378 149.861 146.652 157.456 147.218C165.051 147.784 172.598 145.606 178.723 141.079Z" stroke="#0026BA" stroke-width="9.21253" stroke-linecap="round" stroke-linejoin="round"/>
</svg>
