<svg width="275" height="275" viewBox="0 0 275 275" fill="none" xmlns="http://www.w3.org/2000/svg">
<path d="M178.096 93.4837C175.659 93.4837 173.682 95.4562 173.682 97.896C173.682 100.334 175.659 102.31 178.096 102.31C180.537 102.31 182.51 100.334 182.51 97.896C182.51 95.4562 180.537 93.4837 178.096 93.4837Z" fill="#0026BA"/>
<path d="M97.8965 173.684C95.455 173.684 93.4824 175.661 93.4824 178.098C93.4824 180.539 95.455 182.512 97.8965 182.512C100.333 182.512 102.311 180.539 102.311 178.098C102.311 175.661 100.333 173.684 97.8965 173.684Z" fill="#0026BA"/>
<path d="M245.509 52.1552C244.019 51.8086 242.454 52.2587 241.378 53.3449L223.078 71.7892H214.305L204.648 61.7834V52.888L222.685 34.5817C223.752 33.4988 224.187 31.9418 223.833 30.4607C223.482 28.9813 222.392 27.7881 220.95 27.3019C216.419 25.7742 211.677 25 206.855 25C192.478 25 179.417 31.7039 171.02 43.3926C163.161 54.3347 160.738 67.7441 164.209 80.5777L131.695 113.092L77.5258 58.7987V48.1429C77.5258 46.5928 76.7119 45.1548 75.3825 44.3582L44.1719 25.6294C42.4339 24.5862 40.2113 24.8604 38.7802 26.2932L26.2966 38.775C24.8655 40.2079 24.5914 42.4304 25.6328 44.1685L44.3581 75.3791C45.1547 76.7085 46.591 77.5206 48.1411 77.5223L58.7935 77.5258L112.968 131.819L80.5777 164.209C67.7441 160.74 54.3277 163.166 43.3805 171.03C31.6987 179.422 25 192.48 25 206.856C25 211.677 25.7742 216.421 27.3019 220.95C27.7898 222.401 28.9951 223.495 30.4848 223.84C31.9763 224.187 33.5402 223.737 34.6179 222.651L52.9156 204.208H61.7368L71.7875 214.259V223.08L53.3449 241.378C52.2586 242.455 51.8086 244.019 52.1552 245.511C52.5 247 53.5949 248.206 55.045 248.694C59.5746 250.221 64.318 250.995 69.139 250.995C83.5158 250.995 96.5718 244.295 104.965 232.613C112.83 221.666 115.256 208.251 111.787 195.418L137.8 169.404L143.759 175.877L141.025 178.61C139.3 180.334 139.3 183.129 141.025 184.853C142.749 186.576 145.542 186.576 147.268 184.853L149.744 182.377L205.655 243.109C205.696 243.154 205.739 243.197 205.782 243.24C216.128 253.585 232.889 253.589 243.24 243.238C253.561 232.912 253.561 216.109 243.24 205.782C243.195 205.737 243.148 205.694 243.102 205.651L182.276 149.848L184.724 147.399C186.448 145.677 186.448 142.882 184.724 141.157C183 139.433 180.206 139.433 178.48 141.157L175.765 143.875L169.28 137.923L195.419 111.783C199.135 112.776 202.97 113.28 206.855 113.28C231.194 113.28 250.994 93.4785 250.994 69.1408C250.994 64.318 250.22 59.5764 248.692 55.045C248.204 53.5949 246.999 52.5001 245.509 52.1552V52.1552ZM63.749 69.9943C62.9214 69.1649 61.7989 68.7425 60.6264 68.7425L50.643 68.739L34.9765 42.5822L42.5856 34.9731L68.6976 50.643V60.6264C68.6976 61.7955 69.1614 62.9162 69.9873 63.7439L125.453 119.335L119.209 125.577L63.749 69.9943ZM176.027 156.096L237.06 212.088C243.878 218.978 243.857 230.134 236.996 236.998C230.12 243.874 218.988 243.895 212.084 237.058L155.991 176.129L176.027 156.096ZM169.516 150.122L150.006 169.628L144.047 163.155L163.031 144.17L169.516 150.122ZM206.855 104.452C202.994 104.452 199.197 103.833 195.573 102.612C193.985 102.079 192.23 102.489 191.043 103.674C168.914 125.803 121.232 173.484 103.674 191.043C102.488 192.23 102.076 193.985 102.612 195.575C106.281 206.47 104.526 218.092 97.7943 227.463C91.0818 236.807 80.6363 242.167 69.139 242.167C67.8476 242.167 66.563 242.097 65.2905 241.96L79.3104 228.049C80.1449 227.222 80.6156 226.094 80.6156 224.916V212.429C80.6156 211.258 80.1501 210.136 79.3224 209.308L66.6854 196.671C65.8578 195.844 64.7353 195.378 63.5645 195.378H51.0775C49.8999 195.378 48.7722 195.849 47.9428 196.683L34.0333 210.703C33.8954 209.431 33.8264 208.146 33.8264 206.855C33.8264 195.356 39.1854 184.912 48.5308 178.199C57.9004 171.468 69.5235 169.711 80.4208 173.382C82.0088 173.918 83.7641 173.506 84.9504 172.32C85.1935 172.078 172.258 85.0125 172.32 84.9504C173.506 83.7641 173.916 82.0106 173.382 80.4208C169.711 69.5253 171.463 57.9073 178.189 48.5429C184.907 39.1906 195.354 33.8282 206.853 33.8282C208.184 33.8282 209.507 33.9023 210.817 34.0472L197.089 47.9808C196.275 48.8067 195.82 49.9189 195.82 51.0775V63.5645C195.82 64.7094 196.263 65.8078 197.058 66.6303L209.253 79.2673C210.084 80.1294 211.231 80.6156 212.429 80.6156H224.916C226.092 80.6156 227.22 80.1466 228.049 79.3104L241.959 65.2922C242.097 66.5647 242.166 67.8493 242.166 69.1408C242.166 88.611 226.325 104.452 206.855 104.452V104.452Z" fill="#0026BA"/>
</svg>
