<svg width="169" height="169" viewBox="0 0 169 169" fill="none" xmlns="http://www.w3.org/2000/svg">
<circle cx="84.5" cy="84.5" r="84.5" fill="#0026BA"/>
<circle cx="85" cy="85" r="49" fill="#476DFF"/>
<path d="M55.8341 78.2393C54.8211 78.2393 54 79.0605 54 80.0733V107.011C54 108.024 54.8212 108.845 55.8341 108.845H66.8841V78.2393H55.8341Z" fill="white"/>
<path d="M115.952 88.3674C115.952 86.0392 114.701 83.9976 112.836 82.8794C113.551 81.8476 113.97 80.5959 113.97 79.2485C113.97 75.7231 111.102 72.8549 107.577 72.8549H94.0798C94.4935 70.9804 95.0592 68.1676 95.4531 65.223C96.4783 57.5602 95.7777 53.3104 93.2484 51.849C91.6715 50.938 89.9714 50.7532 88.4612 51.3282C87.2944 51.7726 85.7188 52.8652 84.8209 55.5468L81.2736 64.8347C79.4753 69.2759 73.9681 73.9386 70.5527 76.5168V109.657C76.8827 111.875 83.488 112.999 90.2268 112.999H104.933C108.458 112.999 111.326 110.131 111.326 106.606C111.326 105.371 110.975 104.217 110.366 103.239C112.498 102.201 113.97 100.012 113.97 97.4865C113.97 96.139 113.551 94.8875 112.836 93.8556C114.701 92.7374 115.952 90.6957 115.952 88.3674Z" fill="white"/>
<path d="M60.8046 153.262L65.1358 156.012C65.6944 156.365 66.3819 155.84 66.2186 155.196L64.9639 150.263C64.93 150.126 64.9354 149.983 64.9795 149.849C65.0236 149.715 65.1046 149.597 65.2132 149.507L69.0975 146.267C69.6046 145.846 69.3468 144.995 68.685 144.952L63.6147 144.626C63.4764 144.618 63.3434 144.569 63.232 144.487C63.1206 144.405 63.0356 144.291 62.9874 144.162L61.0968 139.401C61.0467 139.263 60.9555 139.144 60.8356 139.06C60.7157 138.976 60.5729 138.931 60.4264 138.931C60.28 138.931 60.1372 138.976 60.0173 139.06C59.8974 139.144 59.8062 139.263 59.7561 139.401L57.8655 144.162C57.8173 144.291 57.7323 144.405 57.6209 144.487C57.5095 144.569 57.3765 144.618 57.2382 144.626L52.1679 144.952C51.5061 144.995 51.2483 145.846 51.7554 146.267L55.6397 149.507C55.7483 149.597 55.8293 149.715 55.8734 149.849C55.9175 149.983 55.9229 150.126 55.8889 150.263L54.7288 154.835C54.5311 155.608 55.3561 156.236 56.0179 155.815L60.0483 153.262C60.1613 153.19 60.2925 153.152 60.4264 153.152C60.5604 153.152 60.6916 153.19 60.8046 153.262V153.262Z" fill="white" stroke="white" stroke-width="1.375" stroke-linecap="round" stroke-linejoin="round"/>
<path d="M86.8046 158.262L91.1358 161.012C91.6944 161.365 92.3819 160.84 92.2186 160.196L90.9639 155.263C90.93 155.126 90.9354 154.983 90.9795 154.849C91.0236 154.715 91.1046 154.597 91.2132 154.507L95.0975 151.267C95.6046 150.846 95.3468 149.995 94.685 149.952L89.6147 149.626C89.4764 149.618 89.3434 149.569 89.232 149.487C89.1206 149.405 89.0356 149.291 88.9874 149.162L87.0968 144.401C87.0467 144.263 86.9555 144.144 86.8356 144.06C86.7157 143.976 86.5729 143.931 86.4264 143.931C86.28 143.931 86.1372 143.976 86.0173 144.06C85.8974 144.144 85.8062 144.263 85.7561 144.401L83.8655 149.162C83.8173 149.291 83.7323 149.405 83.6209 149.487C83.5095 149.569 83.3765 149.618 83.2382 149.626L78.1679 149.952C77.5061 149.995 77.2483 150.846 77.7554 151.267L81.6397 154.507C81.7483 154.597 81.8293 154.715 81.8734 154.849C81.9175 154.983 81.9229 155.126 81.8889 155.263L80.7288 159.835C80.5311 160.608 81.3561 161.236 82.0179 160.815L86.0483 158.262C86.1613 158.19 86.2925 158.152 86.4264 158.152C86.5604 158.152 86.6916 158.19 86.8046 158.262V158.262Z" fill="white" stroke="white" stroke-width="1.375" stroke-linecap="round" stroke-linejoin="round"/>
<path d="M112.805 153.262L117.136 156.012C117.694 156.365 118.382 155.84 118.219 155.196L116.964 150.263C116.93 150.126 116.935 149.983 116.98 149.849C117.024 149.715 117.105 149.597 117.213 149.507L121.098 146.267C121.605 145.846 121.347 144.995 120.685 144.952L115.615 144.626C115.476 144.618 115.343 144.569 115.232 144.487C115.121 144.405 115.036 144.291 114.987 144.162L113.097 139.401C113.047 139.263 112.956 139.144 112.836 139.06C112.716 138.976 112.573 138.931 112.426 138.931C112.28 138.931 112.137 138.976 112.017 139.06C111.897 139.144 111.806 139.263 111.756 139.401L109.866 144.162C109.817 144.291 109.732 144.405 109.621 144.487C109.51 144.569 109.377 144.618 109.238 144.626L104.168 144.952C103.506 144.995 103.248 145.846 103.755 146.267L107.64 149.507C107.748 149.597 107.829 149.715 107.873 149.849C107.917 149.983 107.923 150.126 107.889 150.263L106.729 154.835C106.531 155.608 107.356 156.236 108.018 155.815L112.048 153.262C112.161 153.19 112.293 153.152 112.426 153.152C112.56 153.152 112.692 153.19 112.805 153.262V153.262Z" fill="white" stroke="white" stroke-width="1.375" stroke-linecap="round" stroke-linejoin="round"/>
<path d="M13.7743 83.949C13.328 83.9648 12.9693 84.1398 12.6985 84.4741C12.4279 84.805 12.2737 85.2497 12.2358 85.808C12.2092 86.2005 12.2455 86.5414 12.3449 86.8307C12.4442 87.12 12.5903 87.3463 12.7832 87.5097C12.9761 87.6731 13.2027 87.7657 13.4629 87.7877C13.6794 87.8031 13.8705 87.7674 14.0362 87.6806C14.2021 87.5905 14.3467 87.4631 14.47 87.2985C14.59 87.1336 14.6943 86.9489 14.783 86.7444C14.8716 86.54 14.9485 86.3329 15.0138 86.1234L15.3234 85.1662C15.4414 84.7802 15.5905 84.4117 15.7707 84.0607C15.9511 83.7064 16.1694 83.3939 16.4258 83.1231C16.6823 82.849 16.9838 82.6393 17.3302 82.494C17.6766 82.3487 18.0747 82.2921 18.5247 82.3241C19.1336 82.3676 19.6593 82.5614 20.1016 82.9058C20.5406 83.2499 20.8703 83.7257 21.0909 84.333C21.3083 84.9367 21.3887 85.6548 21.3323 86.4872C21.2774 87.2959 21.1046 87.9892 20.8138 88.5669C20.5233 89.1412 20.1265 89.5787 19.6234 89.8794C19.1205 90.1768 18.5231 90.3144 17.8311 90.2923L17.9568 88.4396C18.3206 88.4384 18.6293 88.3482 18.8828 88.169C19.1363 87.9899 19.3329 87.7472 19.4727 87.441C19.6127 87.1313 19.696 86.7803 19.7226 86.3877C19.7504 85.9783 19.7138 85.6153 19.6129 85.2987C19.5089 84.9784 19.3529 84.7225 19.1449 84.5309C18.9336 84.339 18.6792 84.2307 18.3817 84.2061C18.1108 84.1902 17.8822 84.2538 17.6957 84.3969C17.5058 84.5398 17.3422 84.7474 17.2047 85.0198C17.0641 85.2886 16.9338 85.6058 16.8138 85.9712L16.4291 87.1321C16.1512 87.9726 15.772 88.6256 15.2917 89.0911C14.8083 89.5531 14.1944 89.7575 13.4502 89.7045C12.8378 89.6608 12.3129 89.4568 11.8753 89.0923C11.4379 88.7245 11.1119 88.244 10.8972 87.6506C10.6791 87.057 10.5948 86.3965 10.6441 85.669C10.6942 84.9313 10.8666 84.2942 11.1613 83.7576C11.4529 83.2173 11.8362 82.8043 12.3111 82.5186C12.7826 82.2326 13.3113 82.1054 13.8973 82.137L13.7743 83.949Z" fill="white"/>
<path d="M21.8908 79.4693L21.4707 81.4397L12.0688 75.574L12.5546 73.2952L23.4873 71.9812L23.0672 73.9515L14.4052 74.862L14.3882 74.9416L21.8908 79.4693ZM17.9183 78.5114L19.0639 73.1378L20.5433 73.4693L19.3976 78.8429L17.9183 78.5114Z" fill="white"/>
<path d="M15.522 67.7855L14.0497 67.2061L16.9642 59.421L18.4365 60.0004L17.3074 63.0163L25.5305 66.2519L24.8741 68.0053L16.6511 64.7696L15.522 67.7855Z" fill="white"/>
<path d="M19.0517 55.1537L28.3067 59.939L27.4736 61.6326L18.2186 56.8473L19.0517 55.1537Z" fill="white"/>
<path d="M25.7052 49.2899C25.3081 49.0875 24.9128 49.0686 24.5195 49.233C24.1279 49.3945 23.7845 49.7131 23.4895 50.1885C23.282 50.5228 23.1538 50.842 23.1047 51.146C23.0557 51.45 23.0771 51.7211 23.1688 51.959C23.2606 52.197 23.4149 52.3888 23.6319 52.5343C23.8137 52.6529 23.9973 52.714 24.1826 52.7175C24.3698 52.7181 24.5558 52.6756 24.7408 52.5897C24.9229 52.5021 25.1006 52.3893 25.274 52.2514C25.4474 52.1135 25.6117 51.9677 25.767 51.8139L26.4866 51.1174C26.7708 50.8331 27.0738 50.5795 27.3959 50.3564C27.7197 50.1304 28.057 49.9598 28.4079 49.8445C28.7605 49.7264 29.1222 49.687 29.4928 49.7264C29.8635 49.7657 30.2377 49.9086 30.6155 50.1551C31.1268 50.4886 31.4948 50.9149 31.7194 51.4339C31.9412 51.951 32.0059 52.5316 31.9134 53.1757C31.8199 53.8151 31.5532 54.4892 31.1132 55.1981C30.6858 55.8868 30.2096 56.4162 29.6846 56.7863C29.1614 57.1535 28.6096 57.3481 28.0292 57.3703C27.4506 57.3896 26.8644 57.2218 26.2706 56.8668L27.2497 55.2891C27.568 55.4643 27.8798 55.5341 28.1852 55.4985C28.4906 55.4629 28.7762 55.3436 29.042 55.1404C29.3095 54.9344 29.547 54.6643 29.7545 54.33C29.9709 53.9813 30.1093 53.6425 30.1698 53.3135C30.2292 52.9799 30.2131 52.6779 30.1215 52.4076C30.027 52.1354 29.8556 51.9164 29.6075 51.7504C29.3784 51.6051 29.1489 51.5505 28.9189 51.5867C28.6861 51.621 28.4458 51.7254 28.1979 51.8997C27.949 52.0693 27.6864 52.2867 27.4101 52.5518L26.5294 53.3922C25.8923 54.0008 25.2548 54.3946 24.617 54.5736C23.9781 54.7479 23.3461 54.6312 22.7212 54.2236C22.207 53.8882 21.8444 53.4533 21.6334 52.9188C21.4241 52.3815 21.365 51.7985 21.456 51.1696C21.5441 50.5389 21.7804 49.9137 22.1649 49.2942C22.5548 48.6659 23.0043 48.186 23.5135 47.8542C24.0217 47.5177 24.5501 47.3381 25.0989 47.3155C25.6448 47.2911 26.1661 47.4349 26.6629 47.7468L25.7052 49.2899Z" fill="white"/>
<path d="M34.1936 50.1631L26.2953 43.3682L30.5229 38.2031L31.7222 39.2349L28.6901 42.9395L30.8344 44.7842L33.5765 41.434L34.7759 42.4658L32.0338 45.816L35.389 48.7026L34.1936 50.1631Z" fill="white"/>
<path d="M40.0923 43.2009L38.619 44.575L34.3862 34.28L36.0902 32.6908L45.6914 37.9788L44.2182 39.3528L36.6861 35.0559L36.6266 35.1114L40.0923 43.2009ZM37.4293 40.1002L41.4473 36.3527L42.4535 37.4867L38.4355 41.2341L37.4293 40.1002Z" fill="white"/>
<path d="M50.2664 26.3865L48.6924 27.4553C48.4782 27.2237 48.2454 27.0478 47.9941 26.9274C47.7409 26.8042 47.4785 26.7324 47.2069 26.7119C46.9353 26.6914 46.6615 26.7236 46.3854 26.8087C46.1103 26.8889 45.8409 27.0186 45.5771 27.1977C45.1085 27.5159 44.7706 27.9175 44.5632 28.4026C44.354 28.8848 44.2952 29.4248 44.3866 30.0225C44.4763 30.6174 44.7337 31.2439 45.1588 31.902C45.5913 32.5715 46.0581 33.066 46.5593 33.3855C47.0614 33.7004 47.5674 33.8526 48.0775 33.8424C48.5885 33.8273 49.0769 33.6617 49.5427 33.3454C49.8008 33.1701 50.02 32.9721 50.2003 32.7513C50.3816 32.5257 50.5178 32.2836 50.6091 32.0249C50.7031 31.7644 50.7474 31.4924 50.7421 31.2092C50.7395 30.924 50.6793 30.6371 50.5613 30.3483L52.1409 29.288C52.3507 29.7439 52.4752 30.2209 52.5143 30.7189C52.5563 31.215 52.5103 31.7094 52.3764 32.2019C52.2407 32.6916 52.013 33.1577 51.6934 33.6002C51.3719 34.0398 50.9544 34.434 50.4409 34.7827C49.6833 35.2971 48.8921 35.5782 48.0672 35.626C47.2423 35.6738 46.4416 35.4778 45.6649 35.0379C44.8883 34.5981 44.1963 33.9081 43.5889 32.968C42.9798 32.025 42.6315 31.1017 42.5441 30.1978C42.4549 29.2912 42.5927 28.4578 42.9575 27.6978C43.3222 26.9378 43.8806 26.3025 44.6326 25.7919C45.1124 25.4661 45.6027 25.2315 46.1035 25.0882C46.6043 24.9448 47.1016 24.8961 47.5954 24.9419C48.0874 24.9849 48.5605 25.1268 49.0148 25.3675C49.47 25.6035 49.8872 25.9432 50.2664 26.3865ZM49.9162 34.9545L50.7411 34.3944L50.9084 34.8033C51.1979 34.6641 51.4872 34.6152 51.7764 34.6566C52.0701 34.6989 52.3182 34.8768 52.5207 35.1902C52.7848 35.5928 52.8165 36.0385 52.6156 36.5274C52.4147 37.0163 51.9818 37.4865 51.3168 37.938L50.8086 37.1888C51.1313 36.9697 51.3595 36.7512 51.4932 36.5334C51.6288 36.3183 51.6373 36.1159 51.5186 35.9259C51.4064 35.7398 51.2526 35.6516 51.0571 35.6614C50.8662 35.6722 50.6106 35.7638 50.2901 35.9363L49.9162 34.9545Z" fill="white"/>
<path d="M56.3123 30.9667L54.4891 31.8239L53.5544 20.7524L55.663 19.761L63.2412 27.7091L61.418 28.5662L55.5179 22.1899L55.4443 22.2245L56.3123 30.9667ZM54.7041 27.2095L59.6763 24.8718L60.2953 26.2557L55.3231 28.5934L54.7041 27.2095ZM52.8401 19.9529L51.8169 20.4058C51.5704 19.8548 51.5184 19.3565 51.6609 18.911C51.8065 18.4641 52.0849 18.144 52.4962 17.9506C52.6957 17.8569 52.8843 17.8094 53.0621 17.8082C53.2416 17.8025 53.4121 17.8142 53.5736 17.8431C53.7352 17.8721 53.891 17.8925 54.0412 17.9043C54.19 17.9131 54.3365 17.8835 54.4808 17.8157C54.6557 17.7334 54.7641 17.6019 54.8058 17.4212C54.8506 17.239 54.8282 17.0435 54.7384 16.8346L55.747 16.411C55.9918 16.9666 56.0416 17.4641 55.8963 17.9033C55.7496 18.3395 55.4729 18.6551 55.0661 18.8501C54.842 18.9555 54.6402 19.011 54.4608 19.0167C54.2799 19.0193 54.1133 19.0039 53.961 18.9706C53.8117 18.9359 53.6657 18.9127 53.5231 18.9011C53.3791 18.8864 53.2303 18.9151 53.0768 18.9872C52.9142 19.0637 52.8097 19.1915 52.7636 19.3706C52.7204 19.5482 52.746 19.7423 52.8401 19.9529Z" fill="white"/>
<path d="M71.8768 19.7007C72.1718 20.7839 72.2222 21.7695 72.0282 22.6575C71.8365 23.5413 71.4491 24.2871 70.8659 24.8949C70.2861 25.5018 69.5576 25.9307 68.6804 26.1818C67.8033 26.4328 66.9618 26.4532 66.1559 26.2429C65.3524 26.0284 64.6438 25.5945 64.0301 24.9412C63.4187 24.2837 62.966 23.415 62.672 22.3351C62.3771 21.2519 62.3254 20.2684 62.5171 19.3846C62.7111 18.4966 63.0981 17.7491 63.678 17.1422C64.2611 16.5344 64.9913 16.105 65.8684 15.854C66.7455 15.6029 67.5854 15.583 68.388 15.7943C69.1939 16.0045 69.9025 16.4384 70.5139 17.096C71.1276 17.7493 71.5819 18.6175 71.8768 19.7007ZM70.0525 20.2228C69.8449 19.4603 69.5508 18.8513 69.1702 18.3959C68.792 17.9362 68.3576 17.6319 67.8672 17.483C67.3759 17.3309 66.858 17.3327 66.3134 17.4886C65.7689 17.6444 65.3249 17.9178 64.9815 18.3089C64.6372 18.6967 64.4178 19.1881 64.3232 19.7831C64.231 20.3738 64.2887 21.0505 64.4963 21.8129C64.7039 22.5754 64.9968 23.1865 65.3751 23.6462C65.7557 24.1016 66.1916 24.4055 66.6829 24.5576C67.1734 24.7065 67.6908 24.703 68.2354 24.5472C68.7799 24.3914 69.2243 24.1195 69.5686 23.7317C69.912 23.3407 70.1298 22.8498 70.222 22.259C70.3166 21.664 70.2601 20.9853 70.0525 20.2228Z" fill="white"/>
<path d="M85.3114 16.4177C85.2133 16.1477 85.0844 15.9081 84.9247 15.6989C84.7683 15.4862 84.583 15.3073 84.3687 15.1621C84.1579 15.0168 83.9184 14.9119 83.6504 14.8476C83.3823 14.7799 83.0924 14.7541 82.7807 14.7701C82.2219 14.7989 81.7309 14.9651 81.3077 15.2687C80.8845 15.5724 80.561 16.0034 80.337 16.5617C80.1163 17.1164 80.025 17.7833 80.0632 18.5624C80.1017 19.3483 80.2579 20.0076 80.5319 20.5403C80.8058 21.073 81.17 21.4702 81.6242 21.7321C82.0783 21.9906 82.5966 22.1049 83.1792 22.0749C83.7076 22.0477 84.1599 21.9225 84.5361 21.6994C84.9156 21.4761 85.2013 21.1727 85.393 20.7893C85.5846 20.4025 85.668 19.9567 85.6433 19.4519L86.0733 19.496L83.2485 19.6414L83.1763 18.1679L87.3983 17.9505L87.4596 19.2005C87.5032 20.0915 87.3513 20.8719 87.0038 21.5418C86.6562 22.2117 86.1592 22.7399 85.5126 23.1264C84.8658 23.5095 84.1122 23.7232 83.2519 23.7675C82.2934 23.8168 81.4412 23.645 80.6952 23.2521C79.9526 22.8556 79.3585 22.2698 78.9131 21.4947C78.4709 20.716 78.2229 19.7779 78.1691 18.6803C78.128 17.8402 78.2098 17.0838 78.4145 16.411C78.6227 15.7381 78.9305 15.1602 79.3381 14.6773C79.7456 14.1911 80.233 13.8128 80.8004 13.5425C81.3677 13.2688 81.9917 13.1144 82.6725 13.0794C83.2483 13.0497 83.7893 13.1068 84.2955 13.2505C84.8015 13.3909 85.2551 13.6052 85.6564 13.8936C86.061 14.1819 86.399 14.5312 86.6704 14.9418C86.9417 15.3523 87.1289 15.8113 87.2319 16.3188L85.3114 16.4177Z" fill="white"/>
<path d="M90.386 23.6213L88.3829 23.4068L93.0862 13.4322L95.403 13.6803L97.999 24.4367L95.9958 24.2222L94.0685 15.6862L93.9875 15.6776L90.386 23.6213ZM90.8659 19.5642L96.329 20.1494L96.1753 21.6576L90.7122 21.0725L90.8659 19.5642Z" fill="white"/>
<path d="M99.0959 24.733L101.646 14.631L105.422 15.633C106.196 15.8383 106.811 16.1454 107.268 16.5542C107.727 16.9639 108.03 17.4477 108.176 18.0057C108.326 18.5613 108.32 19.1614 108.157 19.8059C107.994 20.4537 107.714 20.9795 107.318 21.3833C106.927 21.7846 106.432 22.0447 105.836 22.1636C105.24 22.2792 104.555 22.2343 103.782 22.0291L101.092 21.3154L101.475 19.7961L103.919 20.4446C104.372 20.5646 104.758 20.6004 105.078 20.552C105.399 20.5003 105.659 20.371 105.858 20.1642C106.061 19.955 106.208 19.6712 106.298 19.3127C106.389 18.9543 106.396 18.6298 106.319 18.3392C106.242 18.0453 106.077 17.7943 105.821 17.5862C105.567 17.3748 105.212 17.2087 104.756 17.0878L103.084 16.6442L100.92 25.2171L99.0959 24.733ZM105.454 21.5359L106.791 26.7749L104.756 26.2347L103.462 21.0075L105.454 21.5359Z" fill="white"/>
<path d="M109.276 27.7773L107.428 26.9758L114.767 18.8037L116.905 19.7306L116.301 30.8234L114.453 30.0219L115.058 21.2585L114.983 21.2261L109.276 27.7773ZM110.895 24.0272L115.936 26.2131L115.358 27.6146L110.317 25.4287L110.895 24.0272Z" fill="white"/>
<path d="M129.877 27.127L124.48 36.039L123.064 35.1375L122.599 26.4308L122.526 26.3844L118.849 32.4548L117.257 31.4412L122.654 22.5293L124.079 23.4362L124.537 32.1445L124.615 32.1937L128.294 26.119L129.877 27.127Z" fill="white"/>
<path d="M131.048 29.9862L132.059 28.7692L138.321 34.2364L137.31 35.4535L134.884 33.3355L129.238 40.133L127.827 38.9017L133.474 32.1042L131.048 29.9862Z" fill="white"/>
<path d="M141.462 37.6045L134.053 44.9295L132.76 43.5547L140.169 36.2296L141.462 37.6045Z" fill="white"/>
<path d="M137.468 49.0336L135.332 46.2222L143.474 39.7209L145.653 42.5889C146.278 43.4126 146.653 44.2503 146.776 45.1021C146.904 45.9544 146.786 46.7822 146.421 47.5855C146.056 48.3888 145.451 49.128 144.606 49.8031C143.758 50.4804 142.907 50.9017 142.053 51.0671C141.201 51.2351 140.384 51.1482 139.6 50.8063C138.819 50.4671 138.108 49.8762 137.468 49.0336ZM137.75 46.7061L138.689 47.9416C139.128 48.5196 139.597 48.9191 140.097 49.1402C140.6 49.3592 141.132 49.4008 141.693 49.2651C142.257 49.1273 142.85 48.8097 143.473 48.3124C144.096 47.8151 144.539 47.3052 144.802 46.7827C145.068 46.2581 145.158 45.7239 145.073 45.1802C144.992 44.637 144.739 44.0846 144.312 43.5229L143.339 42.2428L137.75 46.7061Z" fill="white"/>
<path d="M142.015 55.6332L141.054 53.8626L151.854 51.9235L152.965 53.9713L145.667 62.3624L144.706 60.5918L150.573 54.0419L150.534 53.9704L142.015 55.6332ZM145.595 53.667L148.216 58.4959L146.899 59.2471L144.278 54.4182L145.595 53.667Z" fill="white"/>
</svg>
