<svg width="170" height="169" viewBox="0 0 170 169" fill="none" xmlns="http://www.w3.org/2000/svg">
<circle cx="85.5" cy="84.5" r="84.5" fill="#0026BA"/>
<circle cx="87" cy="85" r="49" fill="#476DFF"/>
<path d="M61.746 153.262L66.0772 156.012C66.6358 156.365 67.3233 155.84 67.16 155.196L65.9054 150.263C65.8714 150.126 65.8768 149.983 65.9209 149.849C65.965 149.715 66.046 149.597 66.1546 149.507L70.0389 146.267C70.546 145.846 70.2882 144.995 69.6264 144.952L64.5561 144.626C64.4178 144.618 64.2848 144.569 64.1734 144.487C64.062 144.405 63.977 144.291 63.9288 144.162L62.0382 139.401C61.9881 139.263 61.897 139.144 61.777 139.06C61.6571 138.976 61.5143 138.931 61.3679 138.931C61.2215 138.931 61.0786 138.976 60.9587 139.06C60.8388 139.144 60.7476 139.263 60.6975 139.401L58.8069 144.162C58.7587 144.291 58.6737 144.405 58.5623 144.487C58.4509 144.569 58.3179 144.618 58.1796 144.626L53.1093 144.952C52.4475 144.995 52.1897 145.846 52.6968 146.267L56.5811 149.507C56.6897 149.597 56.7707 149.715 56.8148 149.849C56.8589 149.983 56.8643 150.126 56.8304 150.263L55.6702 154.835C55.4725 155.608 56.2975 156.236 56.9593 155.815L60.9897 153.262C61.1028 153.19 61.2339 153.152 61.3679 153.152C61.5018 153.152 61.633 153.19 61.746 153.262V153.262Z" fill="white" stroke="white" stroke-width="1.375" stroke-linecap="round" stroke-linejoin="round"/>
<path d="M87.746 158.262L92.0772 161.012C92.6358 161.365 93.3233 160.84 93.16 160.196L91.9054 155.263C91.8714 155.126 91.8768 154.983 91.9209 154.849C91.965 154.715 92.046 154.597 92.1546 154.507L96.0389 151.267C96.546 150.846 96.2882 149.995 95.6264 149.952L90.5561 149.626C90.4178 149.618 90.2848 149.569 90.1734 149.487C90.062 149.405 89.977 149.291 89.9288 149.162L88.0382 144.401C87.9881 144.263 87.897 144.144 87.777 144.06C87.6571 143.976 87.5143 143.931 87.3679 143.931C87.2215 143.931 87.0786 143.976 86.9587 144.06C86.8388 144.144 86.7476 144.263 86.6975 144.401L84.8069 149.162C84.7587 149.291 84.6737 149.405 84.5623 149.487C84.4509 149.569 84.3179 149.618 84.1796 149.626L79.1093 149.952C78.4475 149.995 78.1897 150.846 78.6968 151.267L82.5811 154.507C82.6897 154.597 82.7707 154.715 82.8148 154.849C82.8589 154.983 82.8643 155.126 82.8304 155.263L81.6702 159.835C81.4725 160.608 82.2975 161.236 82.9593 160.815L86.9897 158.262C87.1028 158.19 87.2339 158.152 87.3679 158.152C87.5018 158.152 87.633 158.19 87.746 158.262V158.262Z" fill="white" stroke="white" stroke-width="1.375" stroke-linecap="round" stroke-linejoin="round"/>
<path d="M113.746 153.262L118.077 156.012C118.636 156.365 119.323 155.84 119.16 155.196L117.905 150.263C117.871 150.126 117.877 149.983 117.921 149.849C117.965 149.715 118.046 149.597 118.155 149.507L122.039 146.267C122.546 145.846 122.288 144.995 121.626 144.952L116.556 144.626C116.418 144.618 116.285 144.569 116.173 144.487C116.062 144.405 115.977 144.291 115.929 144.162L114.038 139.401C113.988 139.263 113.897 139.144 113.777 139.06C113.657 138.976 113.514 138.931 113.368 138.931C113.221 138.931 113.079 138.976 112.959 139.06C112.839 139.144 112.748 139.263 112.698 139.401L110.807 144.162C110.759 144.291 110.674 144.405 110.562 144.487C110.451 144.569 110.318 144.618 110.18 144.626L105.109 144.952C104.448 144.995 104.19 145.846 104.697 146.267L108.581 149.507C108.69 149.597 108.771 149.715 108.815 149.849C108.859 149.983 108.864 150.126 108.83 150.263L107.67 154.835C107.473 155.608 108.298 156.236 108.959 155.815L112.99 153.262C113.103 153.19 113.234 153.152 113.368 153.152C113.502 153.152 113.633 153.19 113.746 153.262V153.262Z" fill="white" stroke="white" stroke-width="1.375" stroke-linecap="round" stroke-linejoin="round"/>
<path d="M21.5105 84.502L21.2584 87.9348L11.1281 87.191L11.3853 83.6889C11.4591 82.6831 11.7254 81.8341 12.184 81.1417C12.6396 80.4457 13.2592 79.9309 14.043 79.5972C14.8267 79.2636 15.7445 79.1354 16.7965 79.2126C17.8517 79.2901 18.7441 79.5529 19.4738 80.001C20.2037 80.4458 20.7444 81.0508 21.096 81.8159C21.4479 82.5778 21.586 83.4731 21.5105 84.502ZM19.8054 85.9831L19.9161 84.4744C19.968 83.7688 19.8826 83.1707 19.66 82.6802C19.4341 82.1895 19.0727 81.8066 18.5757 81.5314C18.0754 81.256 17.4377 81.0898 16.6628 81.0329C15.8879 80.976 15.2361 81.0475 14.7075 81.2474C14.1757 81.447 13.7657 81.77 13.4777 82.2164C13.1865 82.6591 13.0158 83.2235 12.9654 83.9094L12.8507 85.4725L19.8054 85.9831Z" fill="white"/>
<path d="M22.1391 78.0017L12.2158 75.8326L13.6265 69.3786L15.1334 69.708L14.1156 74.3644L16.8096 74.9532L17.7543 70.6312L19.2613 70.9606L18.3165 75.2826L21.0251 75.8747L22.0514 71.1795L23.5583 71.5089L22.1391 78.0017Z" fill="white"/>
<path d="M18.9687 62.1617C18.5461 62.0561 18.1623 62.1231 17.8172 62.3629C17.4734 62.5995 17.2075 62.974 17.0197 63.4862C16.8877 63.8463 16.8287 64.1751 16.8429 64.4726C16.8571 64.7701 16.9322 65.0213 17.0684 65.2262C17.2046 65.4311 17.3916 65.5789 17.6295 65.6697C17.8282 65.7425 18.017 65.7607 18.1959 65.7242C18.376 65.6846 18.5463 65.6044 18.7068 65.4836C18.8642 65.3617 19.0123 65.217 19.1512 65.0496C19.29 64.8822 19.4186 64.7092 19.5369 64.5307L20.0882 63.7186C20.3041 63.3892 20.5443 63.0846 20.8089 62.8048C21.0747 62.5219 21.3646 62.2884 21.6787 62.1042C21.9939 61.9169 22.3336 61.802 22.6978 61.7595C23.0621 61.7169 23.4506 61.7714 23.8635 61.9228C24.4223 62.1277 24.862 62.4509 25.1826 62.8924C25.5 63.3329 25.6793 63.867 25.7202 64.4948C25.7592 65.1184 25.6387 65.812 25.3587 66.5757C25.0866 67.3176 24.7356 67.9197 24.3055 68.3818C23.8766 68.8408 23.3854 69.1432 22.8318 69.2889C22.2795 69.4315 21.6821 69.3991 21.0397 69.1917L21.6629 67.492C22.0042 67.589 22.318 67.5879 22.6045 67.4886C22.8909 67.3894 23.1414 67.2153 23.3559 66.9665C23.5716 66.7145 23.7454 66.4085 23.8774 66.0484C24.0152 65.6727 24.08 65.3232 24.0718 64.9997C24.0617 64.672 23.9853 64.3904 23.8427 64.155C23.697 63.9184 23.4881 63.7485 23.2161 63.6452C22.9666 63.5573 22.735 63.5551 22.5212 63.6387C22.3043 63.7212 22.0943 63.8713 21.8911 64.0891C21.686 64.3027 21.4774 64.5643 21.2653 64.8739L20.588 65.8565C20.0982 66.5679 19.5648 67.0766 18.9877 67.3827C18.4086 67.6846 17.7776 67.7103 17.0946 67.4598C16.5327 67.2538 16.0965 66.9213 15.7858 66.4622C15.4763 66.0001 15.3019 65.4624 15.2626 64.8493C15.2202 64.2351 15.3213 63.5942 15.5661 62.9268C15.8142 62.25 16.1496 61.7003 16.5722 61.2777C16.9929 60.8509 17.4647 60.5678 17.9877 60.4285C18.5076 60.2881 19.0378 60.3117 19.5782 60.4993L18.9687 62.1617Z" fill="white"/>
<path d="M27.2831 61.2667L18.3175 56.4924L21.4227 50.6612L22.7841 51.3862L20.5439 55.5933L22.9779 56.8894L25.0573 52.9845L26.4188 53.7095L24.3394 57.6144L26.7865 58.9176L29.0455 54.6755L30.4069 55.4005L27.2831 61.2667Z" fill="white"/>
<path d="M27.9993 41.1653L36.1916 47.1705L35.224 48.4905L26.8142 48.2603L26.7643 48.3283L32.3446 52.4187L31.2567 53.9028L23.0644 47.8976L24.0379 46.5696L32.4487 46.8068L32.5015 46.7347L26.9173 42.6414L27.9993 41.1653Z" fill="white"/>
<path d="M30.9762 37.8269L38.4989 41.611L38.5725 41.5374L34.7849 34.0182L36.2158 32.5873L40.8662 42.3019L39.2599 43.9081L29.5488 39.2542L30.9762 37.8269Z" fill="white"/>
<path d="M48.6314 29.5909C49.272 30.4783 49.6544 31.3583 49.7787 32.231C49.9038 33.0991 49.8017 33.9068 49.4726 34.6541C49.1461 35.3995 48.6223 36.0325 47.9011 36.5531C47.1799 37.0737 46.4128 37.3725 45.5999 37.4496C44.7877 37.5221 43.9879 37.3633 43.2007 36.9732C42.4142 36.5786 41.7017 35.9389 41.063 35.0541C40.4224 34.1667 40.0396 33.289 39.9146 32.4209C39.7903 31.5482 39.8914 30.7392 40.2179 29.9938C40.547 29.2464 41.0722 28.6125 41.7934 28.0919C42.5146 27.5713 43.2803 27.2734 44.0906 27.1983C44.9035 27.1212 45.7033 27.28 46.4897 27.6747C47.277 28.0647 47.9909 28.7035 48.6314 29.5909ZM47.1314 30.6736C46.6805 30.049 46.2024 29.5928 45.697 29.3051C45.1924 29.0128 44.6892 28.8806 44.1873 28.9085C43.6835 28.9337 43.2078 29.1079 42.76 29.431C42.3123 29.7542 41.9972 30.151 41.8146 30.6212C41.6302 31.0887 41.5959 31.609 41.7117 32.1819C41.8283 32.7502 42.1121 33.3467 42.563 33.9713C43.0139 34.596 43.4917 35.0545 43.9963 35.3468C44.5017 35.6345 45.0062 35.7657 45.51 35.7405C46.0119 35.7127 46.4867 35.5371 46.9344 35.2139C47.3821 34.8908 47.6982 34.4954 47.8827 34.0278C48.0653 33.5576 48.0982 33.0383 47.9816 32.47C47.8657 31.8971 47.5824 31.2983 47.1314 30.6736Z" fill="white"/>
<path d="M53.1003 32.8912L48.3592 23.908L49.9865 23.0491L54.0077 30.6682L57.9642 28.58L58.6841 29.9442L53.1003 32.8912Z" fill="white"/>
<path d="M57.5855 19.3835L62.7951 25.9994L62.893 25.9639L62.6494 17.5482L64.5519 16.8587L64.6463 27.6286L62.5107 28.4026L55.6876 20.0713L57.5855 19.3835Z" fill="white"/>
<path d="M68.742 15.8907L71.1747 25.7527L69.3882 26.1934L66.9555 16.3314L68.742 15.8907Z" fill="white"/>
<path d="M76.2388 24.8029L72.8279 25.2656L71.4624 15.2003L74.9421 14.7282C75.9414 14.5926 76.8272 14.6777 77.5994 14.9834C78.3745 15.2853 79.0062 15.7852 79.4946 16.4831C79.983 17.1809 80.2981 18.0525 80.4399 19.0977C80.5822 20.1461 80.5094 21.0736 80.2218 21.8801C79.9374 22.6862 79.4572 23.3402 78.7812 23.8424C78.1085 24.3441 77.261 24.6642 76.2388 24.8029ZM74.4373 23.4407L75.9363 23.2373C76.6374 23.1422 77.205 22.9351 77.6388 22.6159C78.0722 22.2935 78.3722 21.8607 78.5388 21.3176C78.7049 20.7712 78.7358 20.113 78.6313 19.343C78.5268 18.5731 78.3222 17.9501 78.0174 17.4743C77.7122 16.9952 77.3114 16.6608 76.8152 16.4712C76.3218 16.2778 75.7344 16.2274 75.0529 16.3198L73.4998 16.5305L74.4373 23.4407Z" fill="white"/>
<path d="M92.0953 19.1902C92.0657 20.2843 91.8354 21.2158 91.4045 21.9848C90.977 22.7505 90.4056 23.3305 89.6904 23.7246C88.9785 24.1188 88.178 24.3039 87.2889 24.2799C86.3998 24.2559 85.6088 24.0278 84.9159 23.5956C84.2264 23.1602 83.6873 22.5486 83.2984 21.7607C82.9129 20.9697 82.7349 20.0288 82.7644 18.9381C82.794 17.844 83.0225 16.9141 83.4501 16.1483C83.881 15.3794 84.4524 14.7978 85.1643 14.4035C85.8795 14.0094 86.6817 13.8243 87.5708 13.8484C88.4599 13.8724 89.2493 14.1005 89.9388 14.5326C90.6317 14.9648 91.1708 15.5764 91.5563 16.3674C91.9452 17.1552 92.1248 18.0962 92.0953 19.1902ZM90.2459 19.1402C90.2668 18.3701 90.1637 17.7174 89.9367 17.182C89.7131 16.6434 89.3934 16.2329 88.9776 15.9504C88.562 15.6646 88.0782 15.5143 87.5262 15.4994C86.9742 15.4845 86.4829 15.6084 86.0525 15.8714C85.6221 16.131 85.279 16.5236 85.0233 17.0492C84.7711 17.5716 84.6345 18.2179 84.6137 18.988C84.5929 19.7582 84.6943 20.4125 84.9179 20.9511C85.1449 21.4865 85.4662 21.897 85.8819 22.1828C86.2976 22.4653 86.7815 22.614 87.3335 22.6289C87.8855 22.6438 88.3767 22.5215 88.8071 22.2619C89.2376 21.999 89.579 21.6063 89.8312 21.0839C90.0869 20.5583 90.2251 19.9104 90.2459 19.1402Z" fill="white"/>
<path d="M97.3793 25.0952L99.737 15.215L103.442 16.0991C104.201 16.2803 104.804 16.5737 105.251 16.9795C105.701 17.3861 105.999 17.8685 106.145 18.4268C106.294 18.9825 106.294 19.574 106.145 20.2012C105.993 20.8348 105.726 21.3658 105.341 21.7941C104.957 22.2225 104.471 22.5161 103.882 22.6747C103.294 22.8302 102.619 22.817 101.857 22.6351L99.4013 22.0492L99.7524 20.5778L101.967 21.1062C102.411 21.2121 102.792 21.2216 103.112 21.1348C103.432 21.0479 103.692 20.8855 103.891 20.6476C104.094 20.4105 104.237 20.1166 104.321 19.766C104.405 19.4155 104.409 19.0902 104.335 18.7903C104.263 18.4911 104.102 18.2334 103.851 18.0171C103.604 17.7984 103.257 17.6357 102.81 17.5291L101.17 17.1376L99.1691 25.5223L97.3793 25.0952Z" fill="white"/>
<path d="M115.742 25.7334C115.33 26.7477 114.788 27.5393 114.115 28.1084C113.446 28.6757 112.708 29.0186 111.9 29.137C111.095 29.2566 110.28 29.1493 109.456 28.8151C108.632 28.4809 107.971 27.99 107.473 27.3423C106.98 26.6929 106.69 25.931 106.602 25.0569C106.518 24.1809 106.681 23.2373 107.091 22.2262C107.503 21.2119 108.043 20.4211 108.711 19.8539C109.385 19.2848 110.124 18.9404 110.929 18.8207C111.737 18.7023 112.553 18.8102 113.377 19.1444C114.201 19.4786 114.861 19.9689 115.355 20.6154C115.852 21.263 116.143 22.0248 116.226 22.9008C116.314 23.7749 116.153 24.7191 115.742 25.7334ZM114.027 25.0383C114.317 24.3243 114.449 23.6769 114.424 23.0959C114.403 22.5131 114.248 22.0166 113.958 21.6063C113.669 21.1929 113.268 20.8825 112.756 20.675C112.245 20.4675 111.741 20.4115 111.246 20.5068C110.752 20.599 110.293 20.8464 109.869 21.2491C109.45 21.6499 109.095 22.2073 108.806 22.9213C108.516 23.6352 108.382 24.2836 108.402 24.8664C108.427 25.4474 108.584 25.9445 108.873 26.3579C109.164 26.7682 109.565 27.0771 110.077 27.2845C110.588 27.492 111.091 27.5496 111.585 27.4574C112.081 27.3621 112.538 27.114 112.957 26.7132C113.381 26.3106 113.738 25.7523 114.027 25.0383Z" fill="white"/>
<path d="M115.274 31.2075L120.472 22.481L123.745 24.4305C124.415 24.8298 124.908 25.2814 125.224 25.7851C125.543 26.2904 125.693 26.8227 125.676 27.3819C125.663 27.9399 125.49 28.4973 125.159 29.0541C124.825 29.6137 124.417 30.0284 123.933 30.2981C123.453 30.5667 122.916 30.6762 122.323 30.6264C121.73 30.5739 121.099 30.3479 120.429 29.9485L118.098 28.5601L118.88 27.2477L120.997 28.5092C121.389 28.7428 121.743 28.88 122.057 28.921C122.373 28.9591 122.653 28.9086 122.898 28.7695C123.147 28.6292 123.363 28.4042 123.548 28.0946C123.732 27.785 123.829 27.4844 123.837 27.1929C123.847 26.8986 123.76 26.6201 123.578 26.3576C123.398 26.0922 123.11 25.8419 122.715 25.6067L121.266 24.7436L116.855 32.1492L115.274 31.2075ZM122.138 29.9389L121.942 35.18L120.178 34.1291L120.412 28.9109L122.138 29.9389Z" fill="white"/>
<path d="M126.118 38.324L132.926 30.7856L137.829 35.2134L136.795 36.3581L133.258 33.1636L131.41 35.2102L134.693 38.1753L133.659 39.3201L130.376 36.3549L128.518 38.4125L132.084 41.6337L131.05 42.7784L126.118 38.324Z" fill="white"/>
<path d="M141.008 38.5699L139.611 42.6797L139.662 42.7403L143.954 42.0546L145.308 43.6568L139.409 44.5456L137.583 50.2523L136.206 48.6236L137.568 44.5109L137.516 44.4503L133.235 45.1086L131.864 43.4875L137.814 42.6593L139.647 36.9602L141.008 38.5699Z" fill="white"/>
<path d="M138.068 51.0134L146.638 45.5607L148.683 48.7744C149.101 49.4328 149.33 50.0632 149.369 50.6658C149.409 51.2711 149.287 51.8248 149.003 52.3269C148.724 52.83 148.312 53.2547 147.768 53.6008C147.218 53.9505 146.656 54.1453 146.082 54.1853C145.508 54.2254 144.954 54.0975 144.421 53.8018C143.891 53.5043 143.416 53.025 142.995 52.3638L141.64 50.2339L142.916 49.4218L144.138 51.3425C144.383 51.7275 144.651 52.0001 144.941 52.1604C145.231 52.3207 145.53 52.3849 145.839 52.353C146.15 52.3238 146.457 52.2125 146.761 52.019C147.065 51.8256 147.295 51.5952 147.45 51.3279C147.607 51.0634 147.671 50.7662 147.641 50.4363C147.616 50.1074 147.48 49.749 147.234 49.3612L146.328 47.9385L139.056 52.5659L138.068 51.0134Z" fill="white"/>
<path d="M142.455 58.0777L151.657 53.775L154.455 59.7595L153.058 60.4128L151.039 56.0953L148.541 57.2634L150.415 61.271L149.018 61.9243L147.144 57.9168L144.632 59.0912L146.668 63.4447L145.271 64.0981L142.455 58.0777Z" fill="white"/>
<path d="M145.944 65.7031L155.652 62.7138L156.773 66.3543C157.003 67.1 157.066 67.7656 156.962 68.351C156.86 68.9396 156.615 69.4354 156.227 69.8386C155.843 70.2439 155.341 70.5419 154.722 70.7327C154.099 70.9244 153.518 70.958 152.978 70.8337C152.442 70.7115 151.971 70.4329 151.564 69.9978C151.159 69.5618 150.843 68.9709 150.613 68.2251L149.814 65.6323L151.274 65.1827L152 67.5386C152.134 67.9747 152.304 68.3133 152.51 68.5544C152.719 68.7945 152.961 68.9449 153.235 69.0056C153.514 69.0685 153.826 69.047 154.17 68.9409C154.515 68.8348 154.788 68.6764 154.989 68.4656C155.194 68.2538 155.316 67.9894 155.357 67.6724C155.401 67.3544 155.355 66.9758 155.22 66.5365L154.724 64.9249L146.486 67.4617L145.944 65.7031ZM151.887 69.3637L148.228 73.1214L147.624 71.159L151.296 67.4439L151.887 69.3637Z" fill="white"/>
<path d="M156.953 72.5451L158.476 72.3026L159.75 80.3061L158.227 80.5486L157.733 77.4481L149.225 78.8024L148.939 76.9999L157.446 75.6456L156.953 72.5451Z" fill="white"/>
<path d="M157.312 88.8389C157.745 88.7859 158.079 88.5856 158.315 88.2381C158.551 87.8938 158.665 87.4489 158.657 86.9034C158.651 86.5199 158.588 86.1919 158.468 85.9192C158.348 85.6466 158.188 85.4391 157.987 85.2967C157.786 85.1543 157.559 85.0834 157.304 85.084C157.092 85.0873 156.91 85.1381 156.756 85.2364C156.602 85.3379 156.472 85.4739 156.365 85.6442C156.262 85.8144 156.176 86.0026 156.106 86.2087C156.037 86.4148 155.979 86.6224 155.932 86.8314L155.709 87.7873C155.626 88.1721 155.511 88.5426 155.364 88.8987C155.217 89.2581 155.031 89.5801 154.803 89.8647C154.576 90.1526 154.301 90.3818 153.976 90.5521C153.651 90.7225 153.269 90.8111 152.829 90.8179C152.234 90.827 151.708 90.6831 151.25 90.3859C150.796 90.0887 150.437 89.6544 150.173 89.0831C149.913 88.515 149.777 87.8243 149.764 87.011C149.752 86.2208 149.864 85.5329 150.1 84.9473C150.335 84.3649 150.685 83.9065 151.15 83.5719C151.614 83.2407 152.183 83.0566 152.857 83.0197L152.885 84.8298C152.532 84.8618 152.24 84.9754 152.008 85.1708C151.776 85.3662 151.605 85.6185 151.494 85.9277C151.383 86.2403 151.33 86.5883 151.336 86.9718C151.342 87.3719 151.407 87.7214 151.531 88.0204C151.658 88.3227 151.83 88.5581 152.048 88.7267C152.269 88.8953 152.525 88.979 152.816 88.9778C153.08 88.9704 153.297 88.8893 153.467 88.7346C153.639 88.5798 153.782 88.3643 153.893 88.0881C154.008 87.8152 154.109 87.4962 154.196 87.1311L154.475 85.971C154.677 85.1312 154.993 84.465 155.422 83.9722C155.854 83.4827 156.434 83.2324 157.161 83.2211C157.76 83.2119 158.286 83.3658 158.741 83.6829C159.195 84.0032 159.551 84.4425 159.808 85.0007C160.068 85.5589 160.203 86.1934 160.214 86.9042C160.225 87.6249 160.109 88.2583 159.866 88.8044C159.627 89.3537 159.288 89.7872 158.85 90.1048C158.415 90.4224 157.912 90.5906 157.34 90.6093L157.312 88.8389Z" fill="white"/>
<g clip-path="url(#clip0_38_200)">
<path d="M118.096 62.9812H55.9038C54.8525 62.9812 54 63.8337 54 64.885V75.6734H120V64.885C120 63.8337 119.148 62.9812 118.096 62.9812ZM102.231 73.135H99.6924C98.6409 73.135 97.7885 72.2826 97.7885 71.2312C97.7885 70.1798 98.641 69.3274 99.6924 69.3274H102.231C103.282 69.3274 104.135 70.1798 104.135 71.2312C104.135 72.2826 103.282 73.135 102.231 73.135ZM109.846 73.135H107.308C106.256 73.135 105.404 72.2826 105.404 71.2312C105.404 70.1798 106.256 69.3274 107.308 69.3274H109.846C110.898 69.3274 111.75 70.1798 111.75 71.2312C111.75 72.2826 110.898 73.135 109.846 73.135Z" fill="white"/>
<path d="M87 87.0961C82.4509 87.0961 78.75 90.797 78.75 95.3461C78.75 99.8952 82.4509 103.596 87 103.596C91.5491 103.596 95.25 99.8952 95.25 95.3461C95.25 90.797 91.5491 87.0961 87 87.0961ZM87 99.2807C84.8304 99.2807 83.0654 97.5156 83.0654 95.3461C83.0654 93.1766 84.8304 91.4115 87 91.4115C89.1696 91.4115 90.9346 93.1766 90.9346 95.3461C90.9346 97.5156 89.1696 99.2807 87 99.2807Z" fill="white"/>
<path d="M59.7109 79.4812V87.7312C59.7109 95.0202 62.5495 101.873 67.7035 107.027C72.8576 112.181 79.7104 115.02 86.9994 115.02C94.2884 115.02 101.141 112.181 106.295 107.027C111.449 101.873 114.288 95.0202 114.288 87.7312V79.4812H59.7109V79.4812ZM86.9994 107.404C80.3508 107.404 74.9417 101.995 74.9417 95.3466C74.9417 88.698 80.3508 83.289 86.9994 83.289C93.648 83.289 99.057 88.698 99.057 95.3466C99.057 101.995 93.648 107.404 86.9994 107.404Z" fill="white"/>
</g>
<defs>
<clipPath id="clip0_38_200">
<rect width="66" height="54" fill="white" transform="translate(54 62)"/>
</clipPath>
</defs>
</svg>
