<svg width="169" height="169" viewBox="0 0 169 169" fill="none" xmlns="http://www.w3.org/2000/svg">
<circle cx="84.5" cy="84.5" r="84.5" fill="#0026BA"/>
<circle cx="84.4258" cy="84.874" r="49" fill="#476DFF"/>
<path d="M13.1217 93.3727L13.0095 90.9514L20.7739 87.3419L20.768 87.2139L12.703 84.338L12.5908 81.9166L23.5136 81.4105L23.6015 83.3091L16.0975 83.6569L16.1022 83.7582L23.7141 86.4306L23.7799 87.8493L16.4317 91.215L16.4364 91.3163L23.9565 90.9679L24.0444 92.8665L13.1217 93.3727Z" fill="white"/>
<path d="M23.792 79.2909L12.9626 77.7794L13.9456 70.7361L15.5901 70.9656L14.8809 76.0472L17.8209 76.4575L18.4792 71.7408L20.1238 71.9703L19.4654 76.6871L22.4213 77.0996L23.1365 71.9757L24.781 72.2053L23.792 79.2909Z" fill="white"/>
<path d="M25.2133 70.3287L14.7156 67.2693L15.2698 65.3676L24.1734 67.9624L25.5208 63.3389L27.115 63.8035L25.2133 70.3287Z" fill="white"/>
<path d="M27.5157 62.5255L17.6454 57.8203L18.4977 56.0322L22.6762 58.0242L24.8565 53.4505L20.6781 51.4586L21.5327 49.6657L31.403 54.371L30.5483 56.1638L26.3554 54.165L24.1751 58.7387L28.368 60.7375L27.5157 62.5255Z" fill="white"/>
<path d="M33.5185 41.8132C34.4713 42.5062 35.1575 43.2783 35.5772 44.1293C35.9961 44.9754 36.1624 45.8359 36.0762 46.7107C35.9921 47.5827 35.6685 48.4058 35.1053 49.1801C34.542 49.9544 33.8575 50.5172 33.0517 50.8686C32.2452 51.215 31.3739 51.3206 30.4378 51.1855C29.501 51.0454 28.5576 50.6299 27.6077 49.9389C26.655 49.2458 25.9691 48.4763 25.5503 47.6302C25.1306 46.7791 24.9628 45.9176 25.0469 45.0457C25.1331 44.1708 25.4578 43.3463 26.021 42.572C26.5842 41.7977 27.2677 41.2363 28.0714 40.8878C28.8772 40.5364 29.7485 40.4308 30.6853 40.5709C31.6214 40.706 32.5658 41.1201 33.5185 41.8132ZM32.3471 43.4236C31.6764 42.9358 31.0344 42.6294 30.421 42.5045C29.8068 42.3747 29.2477 42.4081 28.7436 42.6048C28.2367 42.7995 27.8084 43.1372 27.4588 43.6179C27.1091 44.0986 26.9197 44.61 26.8906 45.1522C26.8586 45.6924 26.9979 46.236 27.3085 46.7833C27.6183 47.3255 28.1085 47.8406 28.7792 48.3284C29.4499 48.8163 30.0923 49.1251 30.7065 49.255C31.3199 49.3799 31.88 49.345 32.3869 49.1504C32.891 48.9536 33.3178 48.6149 33.6675 48.1342C34.0172 47.6535 34.208 47.1431 34.24 46.603C34.2691 46.0607 34.1287 45.5185 33.8189 44.9763C33.5083 44.429 33.0177 43.9115 32.3471 43.4236Z" fill="white"/>
<path d="M39.185 43.6711L31.6236 35.7726L34.5855 32.9371C35.1923 32.3562 35.8023 31.9742 36.4155 31.7912C37.0313 31.6058 37.6268 31.6024 38.2019 31.7811C38.7771 31.9547 39.306 32.2935 39.7884 32.7975C40.2733 33.304 40.5862 33.847 40.7271 34.4266C40.8682 35.0012 40.8276 35.5894 40.6056 36.1912C40.381 36.7905 39.9654 37.3806 39.3586 37.9615L37.249 39.9811L36.1118 38.7932L38.0286 36.9583C38.3834 36.6186 38.6272 36.2916 38.7599 35.9773C38.8902 35.6604 38.9182 35.3551 38.8441 35.0615C38.77 34.7628 38.5988 34.4734 38.3306 34.1931C38.0623 33.9129 37.7781 33.7267 37.478 33.6345C37.1754 33.5398 36.8618 33.5493 36.5371 33.6631C36.2099 33.7743 35.8676 34.0009 35.5102 34.3431L34.199 35.5984L40.6158 42.3013L39.185 43.6711ZM39.8391 36.1858L45.2208 37.893L43.6241 39.4215L38.2772 37.6811L39.8391 36.1858Z" fill="white"/>
<path d="M49.7099 34.5225L44.0793 25.1493L47.5942 23.0378C48.3143 22.6052 48.9991 22.3766 49.6486 22.3518C50.3011 22.3252 50.8936 22.4717 51.4261 22.7913C51.9598 23.106 52.4053 23.5609 52.7627 24.1558C53.1238 24.7569 53.3179 25.3669 53.3451 25.9859C53.3723 26.6049 53.2194 27.1971 52.8864 27.7625C52.5516 28.3249 52.0226 28.8233 51.2995 29.2577L48.9699 30.6571L48.1313 29.2612L50.2321 27.9992C50.6531 27.7463 50.9539 27.4659 51.1345 27.1582C51.315 26.8504 51.3923 26.5299 51.3665 26.1966C51.3438 25.8615 51.2325 25.5277 51.0327 25.1951C50.8329 24.8625 50.5914 24.609 50.308 24.4346C50.0278 24.2583 49.7097 24.1815 49.3538 24.2043C48.9992 24.2222 48.6098 24.3585 48.1857 24.6133L46.6296 25.5481L51.4079 33.5025L49.7099 34.5225Z" fill="white"/>
<path d="M57.5116 29.9405L53.441 19.7919L57.2467 18.2655C58.0264 17.9528 58.7348 17.8259 59.372 17.8847C60.0125 17.9423 60.5663 18.1612 61.0333 18.5415C61.5023 18.9171 61.8666 19.4287 62.1263 20.0762C62.3874 20.727 62.4752 21.3476 62.3898 21.9379C62.3064 22.5236 62.0495 23.0542 61.619 23.5299C61.1872 24.0022 60.5815 24.3947 59.8018 24.7074L57.0912 25.7946L56.4791 24.2684L58.9419 23.2806C59.3978 23.0977 59.7459 22.8852 59.9862 22.6431C60.2253 22.3976 60.3652 22.1249 60.4058 21.8247C60.4485 21.52 60.3976 21.1876 60.2532 20.8275C60.1088 20.4674 59.9145 20.1887 59.6704 19.9913C59.425 19.7906 59.1305 19.6825 58.7868 19.6669C58.4417 19.6481 58.0396 19.7307 57.5804 19.9149L55.8956 20.5907L59.35 29.2031L57.5116 29.9405ZM60.9098 23.2391L65.2667 26.8299L63.2152 27.6528L58.9029 24.044L60.9098 23.2391Z" fill="white"/>
<path d="M66.7452 26.4006L64.3289 15.7364L71.2647 14.1649L71.6316 15.7843L66.6276 16.9181L67.2836 19.8133L71.9283 18.7609L72.2953 20.3803L67.6505 21.4327L68.3101 24.3434L73.3557 23.2002L73.7227 24.8196L66.7452 26.4006Z" fill="white"/>
<path d="M84.4752 16.6807L82.4818 16.7962C82.406 16.4726 82.2843 16.1891 82.1169 15.9456C81.9493 15.6987 81.7466 15.4929 81.5089 15.3284C81.2712 15.1639 81.0041 15.0457 80.7076 14.9737C80.4144 14.898 80.1008 14.8699 79.7668 14.8892C79.1733 14.9236 78.6561 15.1033 78.215 15.4284C77.7737 15.7498 77.4399 16.2042 77.2136 16.7913C76.9872 17.3749 76.8977 18.0771 76.9453 18.8979C76.9937 19.733 77.1642 20.429 77.4567 20.9861C77.7526 21.5394 78.1364 21.9486 78.6081 22.2136C79.0832 22.4749 79.6157 22.5884 80.2055 22.5543C80.5325 22.5353 80.8356 22.475 81.1149 22.3732C81.3976 22.2677 81.6477 22.1231 81.8652 21.9393C82.0863 21.7554 82.2678 21.5345 82.4098 21.2767C82.5553 21.0187 82.649 20.7281 82.6908 20.4047L84.6849 20.2999C84.6404 20.823 84.5069 21.3192 84.2845 21.7885C84.0657 22.2575 83.7673 22.6777 83.3895 23.049C83.0115 23.4167 82.5617 23.7138 82.04 23.9401C81.5181 24.1628 80.932 24.2931 80.2817 24.3307C79.3223 24.3863 78.4531 24.2139 77.674 23.8133C76.8949 23.4128 76.2643 22.8058 75.7822 21.9923C75.3001 21.1788 75.0251 20.1858 74.9572 19.0131C74.889 17.8369 75.0493 16.8187 75.438 15.9583C75.8264 15.0943 76.3845 14.4185 77.1121 13.9306C77.8397 13.4428 78.6796 13.1713 79.6319 13.1161C80.2396 13.0809 80.8095 13.1335 81.3417 13.2738C81.874 13.4141 82.354 13.6376 82.7818 13.9444C83.2094 14.2476 83.5684 14.6297 83.859 15.0906C84.1529 15.5478 84.3583 16.0778 84.4752 16.6807ZM79.7128 24.2033L80.7575 24.1427L80.6985 24.6007C81.0354 24.6311 81.3253 24.7427 81.5682 24.9354C81.8149 25.1315 81.9495 25.4249 81.9722 25.8158C82.005 26.3202 81.8028 26.7384 81.3657 27.0703C80.9285 27.4023 80.2889 27.5926 79.4467 27.6414L79.3704 26.6939C79.7791 26.6702 80.101 26.5963 80.3363 26.4721C80.5717 26.3515 80.6844 26.1739 80.6744 25.9391C80.6683 25.7113 80.5734 25.5492 80.3895 25.4529C80.2094 25.36 79.9282 25.305 79.5457 25.2879L79.7128 24.2033Z" fill="white"/>
<path d="M96.7301 19.7333C96.5807 20.9019 96.2338 21.8749 95.6895 22.6522C95.1492 23.4263 94.4748 23.986 93.6663 24.3312C92.8614 24.6769 91.9841 24.789 91.0343 24.6675C90.0846 24.5461 89.2619 24.2167 88.5663 23.6792C87.8747 23.1386 87.363 22.4255 87.0313 21.5398C86.7035 20.6511 86.6141 19.6241 86.7631 18.459C86.9125 17.2904 87.2574 16.319 87.7977 15.5448C88.342 14.7675 89.0167 14.2061 89.8216 13.8604C90.63 13.5153 91.5091 13.4034 92.4589 13.5248C93.4086 13.6462 94.2295 13.9754 94.9216 14.5125C95.6172 15.0499 96.1289 15.7631 96.4566 16.6518C96.7884 17.5375 96.8795 18.5647 96.7301 19.7333ZM94.7547 19.4807C94.8599 18.6581 94.8197 17.9479 94.6342 17.35C94.4527 16.7491 94.1544 16.275 93.7395 15.9277C93.3251 15.5768 92.823 15.3637 92.2334 15.2884C91.6438 15.213 91.1043 15.2929 90.6149 15.5282C90.126 15.7599 89.7163 16.1435 89.3859 16.679C89.0595 17.2114 88.8437 17.8889 88.7385 18.7116C88.6333 19.5342 88.6715 20.246 88.853 20.8469C89.0385 21.4448 89.3385 21.9191 89.753 22.27C90.1679 22.6173 90.6702 22.8286 91.2598 22.904C91.8494 22.9794 92.3887 22.9012 92.8776 22.6694C93.367 22.4342 93.7749 22.0503 94.1013 21.5179C94.4318 20.9825 94.6495 20.3034 94.7547 19.4807Z" fill="white"/>
<path d="M101.917 26.7471L105.873 16.5535L112.503 19.1266L111.902 20.6746L107.119 18.8181L106.045 21.5856L110.484 23.3087L109.884 24.8567L105.444 23.1335L104.364 25.9159L109.187 27.7877L108.586 29.3357L101.917 26.7471Z" fill="white"/>
<path d="M119.365 31.2659L120.834 32.2945L120.915 34.0322L121.022 35.2018L121.173 38.1617L119.598 37.0596L119.483 35.0633L119.479 34.1479L119.365 31.2659ZM125.061 33.0625C124.385 34.0278 123.626 34.728 122.782 35.1632C121.944 35.5974 121.087 35.7795 120.211 35.7093C119.337 35.6412 118.508 35.3326 117.724 34.7836C116.939 34.2346 116.364 33.5605 115.998 32.7613C115.637 31.9612 115.515 31.0919 115.633 30.1536C115.756 29.2143 116.155 28.2635 116.828 27.3012C117.504 26.3359 118.261 25.6362 119.099 25.2019C119.942 24.7667 120.8 24.5832 121.674 24.6514C122.55 24.7215 123.38 25.0311 124.165 25.5801C124.949 26.1291 125.523 26.8022 125.886 27.5994C126.252 28.3986 126.374 29.2679 126.251 30.2071C126.133 31.1455 125.736 32.0973 125.061 33.0625ZM123.429 31.9207C123.904 31.2412 124.199 30.5937 124.313 29.9781C124.431 29.3617 124.388 28.8033 124.182 28.3029C123.978 27.7996 123.632 27.3776 123.145 27.0368C122.658 26.6959 122.144 26.5159 121.601 26.4967C121.06 26.4746 120.519 26.6238 119.978 26.9444C119.441 27.264 118.935 27.7636 118.46 28.443C117.984 29.1225 117.687 29.7705 117.569 30.3869C117.455 31.0025 117.5 31.5619 117.704 32.0652C117.91 32.5655 118.256 32.9861 118.743 33.327C119.23 33.6678 119.744 33.8492 120.285 33.8714C120.827 33.8905 121.367 33.7403 121.903 33.4207C122.445 33.1001 122.953 32.6001 123.429 31.9207Z" fill="white"/>
<path d="M135.779 35.7889L137.17 37.1996L132.082 42.2142C131.524 42.7638 130.904 43.1155 130.22 43.2691C129.54 43.4252 128.847 43.3837 128.141 43.1445C127.438 42.9028 126.774 42.465 126.15 41.8313C125.522 41.195 125.093 40.5236 124.862 39.8172C124.633 39.1082 124.601 38.4146 124.767 37.7362C124.933 37.0579 125.295 36.4438 125.853 35.8942L130.941 30.8797L132.331 32.2904L127.361 37.1888C127.037 37.5086 126.818 37.8644 126.704 38.2562C126.593 38.6506 126.594 39.0495 126.707 39.453C126.822 39.8541 127.056 40.2333 127.408 40.5907C127.761 40.9482 128.136 41.1875 128.536 41.3087C128.94 41.4299 129.339 41.4366 129.732 41.3287C130.126 41.2209 130.485 41.007 130.809 40.6872L135.779 35.7889Z" fill="white"/>
<path d="M131.474 47.5143L130.281 45.7688L141.48 42.7759L142.86 44.7946L136.009 54.1477L134.816 52.4023L140.343 45.086L140.295 45.0155L131.474 47.5143ZM135.053 45.152L138.307 49.9123L136.994 50.8102L133.739 46.0499L135.053 45.152Z" fill="white"/>
<path d="M136.642 55.4566L146.53 50.7881L147.376 52.5793L138.99 56.5389L141.046 60.8937L139.544 61.6027L136.642 55.4566Z" fill="white"/>
<path d="M150.91 61.0576L140.602 64.7059L139.941 62.8386L150.249 59.1903L150.91 61.0576Z" fill="white"/>
<path d="M142.182 70.1426L141.391 66.5228L152.073 64.1878L152.881 67.8807C153.112 68.9413 153.098 69.8991 152.836 70.7541C152.579 71.6118 152.098 72.3329 151.391 72.9173C150.684 73.5017 149.776 73.9151 148.667 74.1575C147.554 74.4008 146.553 74.4029 145.663 74.1639C144.773 73.9284 144.03 73.4697 143.433 72.7877C142.836 72.1092 142.419 71.2276 142.182 70.1426ZM143.488 68.0919L143.836 69.6828C143.999 70.4269 144.27 71.018 144.65 71.4559C145.033 71.8931 145.524 72.1777 146.121 72.3094C146.722 72.4405 147.43 72.4167 148.248 72.2381C149.065 72.0595 149.715 71.7861 150.2 71.4179C150.687 71.0489 151.012 70.5901 151.172 70.0412C151.337 69.4951 151.34 68.8604 151.182 68.1372L150.822 66.4889L143.488 68.0919Z" fill="white"/>
<path d="M143.63 78.2642L143.548 76.1515L154.623 79.5762L154.717 82.0197L143.94 86.2936L143.858 84.1809L152.431 80.9272L152.428 80.8418L143.63 78.2642ZM147.916 78.1682L148.139 83.9301L146.549 83.9915L146.327 78.2295L147.916 78.1682Z" fill="white"/>
<path d="M143.359 91.6145L143.885 87.9468L154.709 89.4998L154.172 93.2416C154.018 94.3162 153.669 95.2082 153.125 95.9176C152.583 96.6311 151.88 97.1378 151.013 97.4378C150.147 97.7377 149.151 97.8071 148.028 97.6458C146.9 97.4841 145.961 97.1354 145.211 96.5998C144.46 96.0678 143.925 95.3779 143.604 94.53C143.283 93.6856 143.201 92.7138 143.359 91.6145ZM145.3 90.1509L145.069 91.7628C144.961 92.5168 145.008 93.1654 145.211 93.7087C145.417 94.2525 145.776 94.6906 146.29 95.0232C146.806 95.3562 147.479 95.5822 148.307 95.701C149.135 95.8198 149.84 95.7915 150.422 95.6162C151.008 95.4414 151.473 95.125 151.815 94.6672C152.161 94.2134 152.386 93.62 152.491 92.8872L152.731 91.2171L145.3 90.1509Z" fill="white"/>
<path d="M142.124 98.8369L152.537 102.173L150.367 108.946L148.786 108.439L150.351 103.553L147.524 102.647L146.071 107.182L144.49 106.676L145.943 102.14L143.101 101.23L141.522 106.157L139.941 105.65L142.124 98.8369Z" fill="white"/>
<path d="M58.8046 153.262L63.1358 156.012C63.6944 156.365 64.3819 155.84 64.2186 155.196L62.9639 150.263C62.93 150.126 62.9354 149.983 62.9795 149.849C63.0236 149.715 63.1046 149.597 63.2132 149.507L67.0975 146.267C67.6046 145.846 67.3468 144.995 66.685 144.952L61.6147 144.626C61.4764 144.618 61.3434 144.569 61.232 144.487C61.1206 144.405 61.0356 144.291 60.9874 144.162L59.0968 139.401C59.0467 139.263 58.9555 139.144 58.8356 139.06C58.7157 138.976 58.5729 138.931 58.4264 138.931C58.28 138.931 58.1372 138.976 58.0173 139.06C57.8974 139.144 57.8062 139.263 57.7561 139.401L55.8655 144.162C55.8173 144.291 55.7323 144.405 55.6209 144.487C55.5095 144.569 55.3765 144.618 55.2382 144.626L50.1679 144.952C49.5061 144.995 49.2483 145.846 49.7554 146.267L53.6397 149.507C53.7483 149.597 53.8293 149.715 53.8734 149.849C53.9175 149.983 53.9229 150.126 53.8889 150.263L52.7288 154.835C52.5311 155.608 53.3561 156.236 54.0179 155.815L58.0483 153.262C58.1613 153.19 58.2925 153.152 58.4264 153.152C58.5604 153.152 58.6916 153.19 58.8046 153.262V153.262Z" fill="white" stroke="white" stroke-width="1.375" stroke-linecap="round" stroke-linejoin="round"/>
<path d="M84.8046 158.262L89.1358 161.012C89.6944 161.365 90.3819 160.84 90.2186 160.196L88.9639 155.263C88.93 155.126 88.9354 154.983 88.9795 154.849C89.0236 154.715 89.1046 154.597 89.2132 154.507L93.0975 151.267C93.6046 150.846 93.3468 149.995 92.685 149.952L87.6147 149.626C87.4764 149.618 87.3434 149.569 87.232 149.487C87.1206 149.405 87.0356 149.291 86.9874 149.162L85.0968 144.401C85.0467 144.263 84.9555 144.144 84.8356 144.06C84.7157 143.976 84.5729 143.931 84.4264 143.931C84.28 143.931 84.1372 143.976 84.0173 144.06C83.8974 144.144 83.8062 144.263 83.7561 144.401L81.8655 149.162C81.8173 149.291 81.7323 149.405 81.6209 149.487C81.5095 149.569 81.3765 149.618 81.2382 149.626L76.1679 149.952C75.5061 149.995 75.2483 150.846 75.7554 151.267L79.6397 154.507C79.7483 154.597 79.8293 154.715 79.8734 154.849C79.9175 154.983 79.9229 155.126 79.8889 155.263L78.7288 159.835C78.5311 160.608 79.3561 161.236 80.0179 160.815L84.0483 158.262C84.1613 158.19 84.2925 158.152 84.4264 158.152C84.5604 158.152 84.6916 158.19 84.8046 158.262V158.262Z" fill="white" stroke="white" stroke-width="1.375" stroke-linecap="round" stroke-linejoin="round"/>
<path d="M110.805 153.262L115.136 156.012C115.694 156.365 116.382 155.84 116.219 155.196L114.964 150.263C114.93 150.126 114.935 149.983 114.98 149.849C115.024 149.715 115.105 149.597 115.213 149.507L119.098 146.267C119.605 145.846 119.347 144.995 118.685 144.952L113.615 144.626C113.476 144.618 113.343 144.569 113.232 144.487C113.121 144.405 113.036 144.291 112.987 144.162L111.097 139.401C111.047 139.263 110.956 139.144 110.836 139.06C110.716 138.976 110.573 138.931 110.426 138.931C110.28 138.931 110.137 138.976 110.017 139.06C109.897 139.144 109.806 139.263 109.756 139.401L107.866 144.162C107.817 144.291 107.732 144.405 107.621 144.487C107.51 144.569 107.377 144.618 107.238 144.626L102.168 144.952C101.506 144.995 101.248 145.846 101.755 146.267L105.64 149.507C105.748 149.597 105.829 149.715 105.873 149.849C105.917 149.983 105.923 150.126 105.889 150.263L104.729 154.835C104.531 155.608 105.356 156.236 106.018 155.815L110.048 153.262C110.161 153.19 110.293 153.152 110.426 153.152C110.56 153.152 110.692 153.19 110.805 153.262V153.262Z" fill="white" stroke="white" stroke-width="1.375" stroke-linecap="round" stroke-linejoin="round"/>
<g clip-path="url(#clip0_38_202)">
<path d="M86.4824 87.1863V95.2429C89.5481 94.4903 90.7904 92.6403 90.7904 91.2145C90.7904 89.7886 89.5441 87.9386 86.4824 87.1863Z" fill="white"/>
<path d="M115.094 89.6716L112.683 85.9665C112.25 85.3018 112.25 84.4422 112.683 83.776L115.095 80.0696C117.291 76.689 115.805 72.1606 112.058 70.7287L107.931 69.1483C107.189 68.8636 106.683 68.1666 106.642 67.3742L106.415 62.9612C106.209 58.944 102.348 56.1432 98.4661 57.1863L94.1973 58.3334C93.4317 58.5382 92.6126 58.2731 92.1148 57.656L89.3354 54.2188C86.804 51.0899 82.0366 51.0945 79.5106 54.2203L76.7312 57.656C76.2334 58.2731 75.413 58.5395 74.6487 58.3334L70.3815 57.1863C66.5041 56.1419 62.6377 58.9411 62.4317 62.9612L62.2043 67.3759C62.1637 68.1682 61.6589 68.8638 60.9169 69.1485L56.7899 70.7275C53.0382 72.1641 51.5569 76.6944 53.7538 80.0726L56.1631 83.7748C56.5964 84.4409 56.5964 85.3019 56.1645 85.9667L53.7538 89.6717C51.5579 93.0421 53.0357 97.5808 56.79 99.0155L60.917 100.596C61.6589 100.88 62.1637 101.576 62.2045 102.368L62.4316 106.783C62.6373 110.796 66.4921 113.601 70.3813 112.558L74.6486 111.409C75.4116 111.203 76.2306 111.468 76.7325 112.088L79.5106 115.524C82.0351 118.648 86.801 118.656 89.3368 115.525L92.115 112.088C92.6156 111.47 93.4332 111.205 94.1974 111.409L98.469 112.559C102.347 113.596 106.208 110.806 106.415 106.783L106.642 102.37C106.682 101.576 107.189 100.881 107.931 100.596L112.058 99.0169C115.808 97.5806 117.291 93.0496 115.094 89.6716ZM95.0977 91.2141C95.0977 95.0343 91.8781 98.7843 86.4816 99.651V101.984C86.4816 103.173 85.5168 104.138 84.3276 104.138C83.1384 104.138 82.1736 103.173 82.1736 101.984V99.651C76.8577 98.7971 73.5576 95.1044 73.5576 91.2141C73.5576 90.0249 74.5224 89.0601 75.7116 89.0601C76.9008 89.0601 77.8656 90.0249 77.8656 91.2141C77.8656 92.6398 79.1119 94.4901 82.1736 95.2424V86.7273C76.8577 85.8733 73.5576 82.1807 73.5576 78.2903C73.5576 74.3496 76.9167 70.6976 82.1736 69.8532V67.5204C82.1736 66.3312 83.1384 65.3664 84.3276 65.3664C85.5168 65.3664 86.4816 66.3312 86.4816 67.5204V69.8533C91.7976 70.7073 95.0977 74.3999 95.0977 78.2903C95.0977 79.4795 94.1329 80.4443 92.9437 80.4443C91.7544 80.4443 90.7897 79.4795 90.7897 78.2903C90.7897 76.8646 89.5433 75.0142 86.4816 74.262V82.777C91.7978 83.6309 95.0977 87.3236 95.0977 91.2141Z" fill="white"/>
<path d="M77.8652 78.2906C77.8652 79.7165 79.1115 81.5667 82.1732 82.3189V74.2623C79.1075 75.0148 77.8652 76.8647 77.8652 78.2906Z" fill="white"/>
</g>
<defs>
<clipPath id="clip0_38_202">
<rect width="65.996" height="65.996" fill="white" transform="translate(51.4258 51.874)"/>
</clipPath>
</defs>
</svg>
