<svg width="107" height="20" viewBox="0 0 107 20" fill="none" xmlns="http://www.w3.org/2000/svg">
<g clip-path="url(#clip0_2_280)">
<path d="M0 0.0117188H19.9138V19.9998H0V0.0117188ZM21.5732 0.0117188H41.487V19.9998H21.5732V0.0117188ZM43.1463 0.0117188H63.0601V19.9998H43.1463V0.0117188ZM64.7195 0.0117188H84.6333V19.9998H64.7195V0.0117188ZM86.2927 0.0117188H106.206V19.9998H86.2927V0.0117188Z" fill="#00B67A"/>
<path d="M9.95696 13.4826L12.9856 12.7121L14.2511 16.6266L9.95739 13.4826H9.95696ZM16.9267 8.42325H11.5955L9.95696 3.38477L8.3184 8.42325H2.98682L7.30136 11.5463L5.66281 16.5848L9.97735 13.4617L12.6325 11.5463L16.9263 8.42325H16.9267ZM31.5301 13.4826L34.5587 12.7121L35.8243 16.6266L31.5306 13.4826H31.5301ZM38.4999 8.42325H33.1687L31.5301 3.38477L29.8916 8.42325H24.5604L28.875 11.5463L27.2364 16.5848L31.5509 13.4617L34.2061 11.5463L38.4999 8.42325ZM53.1033 13.4826L56.1319 12.7121L57.3975 16.6266L53.1037 13.4826H53.1033ZM60.073 8.42325H54.7419L53.1033 3.38477L51.4647 8.42325H46.1336L50.4481 11.5463L48.8096 16.5848L53.1241 13.4617L55.7793 11.5463L60.073 8.42325ZM74.6765 13.4826L77.7051 12.7121L78.9706 16.6266L74.6769 13.4826H74.6765ZM81.6462 8.42325H76.315L74.6765 3.38477L73.0379 8.42325H67.7067L72.0213 11.5463L70.3827 16.5848L74.6973 13.4617L77.3525 11.5463L81.6462 8.42325ZM96.2496 13.4826L99.2782 12.7121L100.544 16.6266L96.2501 13.4826H96.2496ZM103.219 8.42325H97.8882L96.2496 3.38477L94.6111 8.42325H89.2799L93.5945 11.5463L91.9559 16.5848L96.2705 13.4617L98.9256 11.5463L103.219 8.42325Z" fill="white"/>
</g>
<defs>
<clipPath id="clip0_2_280">
<rect width="106.207" height="20" fill="white"/>
</clipPath>
</defs>
</svg>
